<svg xmlns="http://www.w3.org/2000/svg" width="106mm" height="100.111mm" viewBox="0 0 900 850" role="img" aria-labelledby="title desc">
<title id="title">PPT 生成的提议者-审核者机制</title><desc id="desc">Slidev 源码、逐页截图与结构化反馈在独立上下文间传递。</desc>
<defs><marker id="arrow" viewBox="0 0 10 10" refX="9" refY="5" markerWidth="7" markerHeight="7" orient="auto-start-reverse"><path d="M0 0 L10 5 L0 10 Z" fill="#333333" /></marker></defs>
<rect width="900" height="850" fill="#ffffff" y="0" />
<rect x="20" y="20" width="410" height="290" rx="6" fill="#ffffff" stroke="#333333" stroke-width="1.8" />
<rect x="20" y="20" width="410" height="48" rx="6" fill="#dedede" stroke="#333333" stroke-width="1.8" />
<g aria-label="提议者（Proposer）" fill="#292929" data-font="Source Han Sans CN 700" data-size="28.0"><use href="#g700-63d0" transform="translate(91.846 53) scale(0.028 -0.028)" /><use href="#g700-8bae" transform="translate(119.846 53) scale(0.028 -0.028)" /><use href="#g700-8005" transform="translate(147.846 53) scale(0.028 -0.028)" /><use href="#g700-ff08" transform="translate(175.846 53) scale(0.028 -0.028)" /><use href="#g700-50" transform="translate(203.846 53) scale(0.028 -0.028)" /><use href="#g700-72" transform="translate(222.522 53) scale(0.028 -0.028)" /><use href="#g700-6f" transform="translate(234.730 53) scale(0.028 -0.028)" /><use href="#g700-70" transform="translate(252.258 53) scale(0.028 -0.028)" /><use href="#g700-6f" transform="translate(270.290 53) scale(0.028 -0.028)" /><use href="#g700-73" transform="translate(287.818 53) scale(0.028 -0.028)" /><use href="#g700-65" transform="translate(301.678 53) scale(0.028 -0.028)" /><use href="#g700-72" transform="translate(317.946 53) scale(0.028 -0.028)" /><use href="#g700-ff09" transform="translate(330.154 53) scale(0.028 -0.028)" /></g><g aria-label="输入：论文、论点与原始图表" fill="#292929" data-font="Source Han Sans CN 400" data-size="26.0"><use href="#g400-8f93" transform="translate(56.000 100) scale(0.026 -0.026)" /><use href="#g400-5165" transform="translate(82.000 100) scale(0.026 -0.026)" /><use href="#g400-ff1a" transform="translate(108.000 100) scale(0.026 -0.026)" /><use href="#g400-8bba" transform="translate(134.000 100) scale(0.026 -0.026)" /><use href="#g400-6587" transform="translate(160.000 100) scale(0.026 -0.026)" /><use href="#g400-3001" transform="translate(186.000 100) scale(0.026 -0.026)" /><use href="#g400-8bba" transform="translate(212.000 100) scale(0.026 -0.026)" /><use href="#g400-70b9" transform="translate(238.000 100) scale(0.026 -0.026)" /><use href="#g400-4e0e" transform="translate(264.000 100) scale(0.026 -0.026)" /><use href="#g400-539f" transform="translate(290.000 100) scale(0.026 -0.026)" /><use href="#g400-59cb" transform="translate(316.000 100) scale(0.026 -0.026)" /><use href="#g400-56fe" transform="translate(342.000 100) scale(0.026 -0.026)" /><use href="#g400-8868" transform="translate(368.000 100) scale(0.026 -0.026)" /></g><g aria-label="输出：Slidev Markdown" fill="#292929" data-font="Source Han Sans CN 400" data-size="26.0"><use href="#g400-8f93" transform="translate(81.649 132) scale(0.026 -0.026)" /><use href="#g400-51fa" transform="translate(107.649 132) scale(0.026 -0.026)" /><use href="#g400-ff1a" transform="translate(133.649 132) scale(0.026 -0.026)" /><use href="#g400-53" transform="translate(159.649 132) scale(0.026 -0.026)" /><use href="#g400-6c" transform="translate(175.145 132) scale(0.026 -0.026)" /><use href="#g400-69" transform="translate(182.529 132) scale(0.026 -0.026)" /><use href="#g400-64" transform="translate(189.679 132) scale(0.026 -0.026)" /><use href="#g400-65" transform="translate(205.799 132) scale(0.026 -0.026)" /><use href="#g400-76" transform="translate(220.203 132) scale(0.026 -0.026)" /><use href="#g400-20" transform="translate(233.749 132) scale(0.026 -0.026)" /><use href="#g400-4d" transform="translate(239.573 132) scale(0.026 -0.026)" /><use href="#g400-61" transform="translate(260.685 132) scale(0.026 -0.026)" /><use href="#g400-72" transform="translate(275.323 132) scale(0.026 -0.026)" /><use href="#g400-6b" transform="translate(285.411 132) scale(0.026 -0.026)" /><use href="#g400-64" transform="translate(299.763 132) scale(0.026 -0.026)" /><use href="#g400-6f" transform="translate(315.883 132) scale(0.026 -0.026)" /><use href="#g400-77" transform="translate(331.639 132) scale(0.026 -0.026)" /><use href="#g400-6e" transform="translate(352.491 132) scale(0.026 -0.026)" /></g><g aria-label="layout: two-cols" fill="#292929" data-font="Source Han Sans CN 400" data-size="26.0"><use href="#g400-6c" transform="translate(128.020 164) scale(0.026 -0.026)" /><use href="#g400-61" transform="translate(135.404 164) scale(0.026 -0.026)" /><use href="#g400-79" transform="translate(150.042 164) scale(0.026 -0.026)" /><use href="#g400-6f" transform="translate(163.588 164) scale(0.026 -0.026)" /><use href="#g400-75" transform="translate(179.344 164) scale(0.026 -0.026)" /><use href="#g400-74" transform="translate(195.126 164) scale(0.026 -0.026)" /><use href="#g400-3a" transform="translate(204.928 164) scale(0.026 -0.026)" /><use href="#g400-20" transform="translate(212.156 164) scale(0.026 -0.026)" /><use href="#g400-74" transform="translate(217.980 164) scale(0.026 -0.026)" /><use href="#g400-77" transform="translate(227.782 164) scale(0.026 -0.026)" /><use href="#g400-6f" transform="translate(248.634 164) scale(0.026 -0.026)" /><use href="#g400-2d" transform="translate(264.390 164) scale(0.026 -0.026)" /><use href="#g400-63" transform="translate(273.412 164) scale(0.026 -0.026)" /><use href="#g400-6f" transform="translate(286.672 164) scale(0.026 -0.026)" /><use href="#g400-6c" transform="translate(302.428 164) scale(0.026 -0.026)" /><use href="#g400-73" transform="translate(309.812 164) scale(0.026 -0.026)" /></g><g aria-label="# Transformer 架构" fill="#292929" data-font="Source Han Sans CN 400" data-size="26.0"><use href="#g400-23" transform="translate(110.366 196) scale(0.026 -0.026)" /><use href="#g400-20" transform="translate(124.796 196) scale(0.026 -0.026)" /><use href="#g400-54" transform="translate(130.620 196) scale(0.026 -0.026)" /><use href="#g400-72" transform="translate(146.194 196) scale(0.026 -0.026)" /><use href="#g400-61" transform="translate(156.282 196) scale(0.026 -0.026)" /><use href="#g400-6e" transform="translate(170.920 196) scale(0.026 -0.026)" /><use href="#g400-73" transform="translate(186.780 196) scale(0.026 -0.026)" /><use href="#g400-66" transform="translate(198.948 196) scale(0.026 -0.026)" /><use href="#g400-6f" transform="translate(207.398 196) scale(0.026 -0.026)" /><use href="#g400-72" transform="translate(223.154 196) scale(0.026 -0.026)" /><use href="#g400-6d" transform="translate(233.242 196) scale(0.026 -0.026)" /><use href="#g400-65" transform="translate(257.318 196) scale(0.026 -0.026)" /><use href="#g400-72" transform="translate(271.722 196) scale(0.026 -0.026)" /><use href="#g400-20" transform="translate(281.810 196) scale(0.026 -0.026)" /><use href="#g400-67b6" transform="translate(287.634 196) scale(0.026 -0.026)" /><use href="#g400-6784" transform="translate(313.634 196) scale(0.026 -0.026)" /></g><g aria-label="左栏：自注意力、多头注意力" fill="#292929" data-font="Source Han Sans CN 400" data-size="26.0"><use href="#g400-5de6" transform="translate(56.000 228) scale(0.026 -0.026)" /><use href="#g400-680f" transform="translate(82.000 228) scale(0.026 -0.026)" /><use href="#g400-ff1a" transform="translate(108.000 228) scale(0.026 -0.026)" /><use href="#g400-81ea" transform="translate(134.000 228) scale(0.026 -0.026)" /><use href="#g400-6ce8" transform="translate(160.000 228) scale(0.026 -0.026)" /><use href="#g400-610f" transform="translate(186.000 228) scale(0.026 -0.026)" /><use href="#g400-529b" transform="translate(212.000 228) scale(0.026 -0.026)" /><use href="#g400-3001" transform="translate(238.000 228) scale(0.026 -0.026)" /><use href="#g400-591a" transform="translate(264.000 228) scale(0.026 -0.026)" /><use href="#g400-5934" transform="translate(290.000 228) scale(0.026 -0.026)" /><use href="#g400-6ce8" transform="translate(316.000 228) scale(0.026 -0.026)" /><use href="#g400-610f" transform="translate(342.000 228) scale(0.026 -0.026)" /><use href="#g400-529b" transform="translate(368.000 228) scale(0.026 -0.026)" /></g><g aria-label="右栏：原文架构图" fill="#292929" data-font="Source Han Sans CN 400" data-size="26.0"><use href="#g400-53f3" transform="translate(121.000 260) scale(0.026 -0.026)" /><use href="#g400-680f" transform="translate(147.000 260) scale(0.026 -0.026)" /><use href="#g400-ff1a" transform="translate(173.000 260) scale(0.026 -0.026)" /><use href="#g400-539f" transform="translate(199.000 260) scale(0.026 -0.026)" /><use href="#g400-6587" transform="translate(225.000 260) scale(0.026 -0.026)" /><use href="#g400-67b6" transform="translate(251.000 260) scale(0.026 -0.026)" /><use href="#g400-6784" transform="translate(277.000 260) scale(0.026 -0.026)" /><use href="#g400-56fe" transform="translate(303.000 260) scale(0.026 -0.026)" /></g><rect x="470" y="20" width="410" height="290" rx="6" fill="#ffffff" stroke="#333333" stroke-width="1.8" />
<rect x="470" y="20" width="410" height="48" rx="6" fill="#dedede" stroke="#333333" stroke-width="1.8" />
<g aria-label="审核者（Reviewer）" fill="#292929" data-font="Source Han Sans CN 700" data-size="28.0"><use href="#g700-5ba1" transform="translate(540.544 53) scale(0.028 -0.028)" /><use href="#g700-6838" transform="translate(568.544 53) scale(0.028 -0.028)" /><use href="#g700-8005" transform="translate(596.544 53) scale(0.028 -0.028)" /><use href="#g700-ff08" transform="translate(624.544 53) scale(0.028 -0.028)" /><use href="#g700-52" transform="translate(652.544 53) scale(0.028 -0.028)" /><use href="#g700-65" transform="translate(671.640 53) scale(0.028 -0.028)" /><use href="#g700-76" transform="translate(687.908 53) scale(0.028 -0.028)" /><use href="#g700-69" transform="translate(704.036 53) scale(0.028 -0.028)" /><use href="#g700-65" transform="translate(712.548 53) scale(0.028 -0.028)" /><use href="#g700-77" transform="translate(728.816 53) scale(0.028 -0.028)" /><use href="#g700-65" transform="translate(752.980 53) scale(0.028 -0.028)" /><use href="#g700-72" transform="translate(769.248 53) scale(0.028 -0.028)" /><use href="#g700-ff09" transform="translate(781.456 53) scale(0.028 -0.028)" /></g><g aria-label="渲染逐页截图，结合必要源码" fill="#292929" data-font="Source Han Sans CN 400" data-size="26.0"><use href="#g400-6e32" transform="translate(506.000 100) scale(0.026 -0.026)" /><use href="#g400-67d3" transform="translate(532.000 100) scale(0.026 -0.026)" /><use href="#g400-9010" transform="translate(558.000 100) scale(0.026 -0.026)" /><use href="#g400-9875" transform="translate(584.000 100) scale(0.026 -0.026)" /><use href="#g400-622a" transform="translate(610.000 100) scale(0.026 -0.026)" /><use href="#g400-56fe" transform="translate(636.000 100) scale(0.026 -0.026)" /><use href="#g400-ff0c" transform="translate(662.000 100) scale(0.026 -0.026)" /><use href="#g400-7ed3" transform="translate(688.000 100) scale(0.026 -0.026)" /><use href="#g400-5408" transform="translate(714.000 100) scale(0.026 -0.026)" /><use href="#g400-5fc5" transform="translate(740.000 100) scale(0.026 -0.026)" /><use href="#g400-8981" transform="translate(766.000 100) scale(0.026 -0.026)" /><use href="#g400-6e90" transform="translate(792.000 100) scale(0.026 -0.026)" /><use href="#g400-7801" transform="translate(818.000 100) scale(0.026 -0.026)" /></g><g aria-label="检查：溢出、拥挤、字号、图文" fill="#292929" data-font="Source Han Sans CN 400" data-size="26.0"><use href="#g400-68c0" transform="translate(493.000 132) scale(0.026 -0.026)" /><use href="#g400-67e5" transform="translate(519.000 132) scale(0.026 -0.026)" /><use href="#g400-ff1a" transform="translate(545.000 132) scale(0.026 -0.026)" /><use href="#g400-6ea2" transform="translate(571.000 132) scale(0.026 -0.026)" /><use href="#g400-51fa" transform="translate(597.000 132) scale(0.026 -0.026)" /><use href="#g400-3001" transform="translate(623.000 132) scale(0.026 -0.026)" /><use href="#g400-62e5" transform="translate(649.000 132) scale(0.026 -0.026)" /><use href="#g400-6324" transform="translate(675.000 132) scale(0.026 -0.026)" /><use href="#g400-3001" transform="translate(701.000 132) scale(0.026 -0.026)" /><use href="#g400-5b57" transform="translate(727.000 132) scale(0.026 -0.026)" /><use href="#g400-53f7" transform="translate(753.000 132) scale(0.026 -0.026)" /><use href="#g400-3001" transform="translate(779.000 132) scale(0.026 -0.026)" /><use href="#g400-56fe" transform="translate(805.000 132) scale(0.026 -0.026)" /><use href="#g400-6587" transform="translate(831.000 132) scale(0.026 -0.026)" /></g><g aria-label="页码：7" fill="#292929" data-font="Source Han Sans CN 400" data-size="26.0"><use href="#g400-9875" transform="translate(628.785 164) scale(0.026 -0.026)" /><use href="#g400-7801" transform="translate(654.785 164) scale(0.026 -0.026)" /><use href="#g400-ff1a" transform="translate(680.785 164) scale(0.026 -0.026)" /><use href="#g400-37" transform="translate(706.785 164) scale(0.026 -0.026)" /></g><g aria-label="问题：字号过小" fill="#292929" data-font="Source Han Sans CN 400" data-size="26.0"><use href="#g400-95ee" transform="translate(584.000 196) scale(0.026 -0.026)" /><use href="#g400-9898" transform="translate(610.000 196) scale(0.026 -0.026)" /><use href="#g400-ff1a" transform="translate(636.000 196) scale(0.026 -0.026)" /><use href="#g400-5b57" transform="translate(662.000 196) scale(0.026 -0.026)" /><use href="#g400-53f7" transform="translate(688.000 196) scale(0.026 -0.026)" /><use href="#g400-8fc7" transform="translate(714.000 196) scale(0.026 -0.026)" /><use href="#g400-5c0f" transform="translate(740.000 196) scale(0.026 -0.026)" /></g><g aria-label="建议：增大到 14 pt" fill="#292929" data-font="Source Han Sans CN 400" data-size="26.0"><use href="#g400-5efa" transform="translate(563.785 228) scale(0.026 -0.026)" /><use href="#g400-8bae" transform="translate(589.785 228) scale(0.026 -0.026)" /><use href="#g400-ff1a" transform="translate(615.785 228) scale(0.026 -0.026)" /><use href="#g400-589e" transform="translate(641.785 228) scale(0.026 -0.026)" /><use href="#g400-5927" transform="translate(667.785 228) scale(0.026 -0.026)" /><use href="#g400-5230" transform="translate(693.785 228) scale(0.026 -0.026)" /><use href="#g400-20" transform="translate(719.785 228) scale(0.026 -0.026)" /><use href="#g400-31" transform="translate(725.609 228) scale(0.026 -0.026)" /><use href="#g400-34" transform="translate(740.039 228) scale(0.026 -0.026)" /><use href="#g400-20" transform="translate(754.469 228) scale(0.026 -0.026)" /><use href="#g400-70" transform="translate(760.293 228) scale(0.026 -0.026)" /><use href="#g400-74" transform="translate(776.413 228) scale(0.026 -0.026)" /></g><g aria-label="重新渲染后核对修改" fill="#292929" data-font="Source Han Sans CN 400" data-size="26.0"><use href="#g400-91cd" transform="translate(558.000 260) scale(0.026 -0.026)" /><use href="#g400-65b0" transform="translate(584.000 260) scale(0.026 -0.026)" /><use href="#g400-6e32" transform="translate(610.000 260) scale(0.026 -0.026)" /><use href="#g400-67d3" transform="translate(636.000 260) scale(0.026 -0.026)" /><use href="#g400-540e" transform="translate(662.000 260) scale(0.026 -0.026)" /><use href="#g400-6838" transform="translate(688.000 260) scale(0.026 -0.026)" /><use href="#g400-5bf9" transform="translate(714.000 260) scale(0.026 -0.026)" /><use href="#g400-4fee" transform="translate(740.000 260) scale(0.026 -0.026)" /><use href="#g400-6539" transform="translate(766.000 260) scale(0.026 -0.026)" /></g><path d="M220 310 L220 370 L680 370 L680 310" fill="none" stroke="#333333" stroke-width="1.8" marker-end="url(#arrow)" />
<g aria-label="源码与渲染结果" fill="#292929" data-font="Source Han Sans CN 400" data-size="26.0"><use href="#g400-6e90" transform="translate(359.000 351) scale(0.026 -0.026)" /><use href="#g400-7801" transform="translate(385.000 351) scale(0.026 -0.026)" /><use href="#g400-4e0e" transform="translate(411.000 351) scale(0.026 -0.026)" /><use href="#g400-6e32" transform="translate(437.000 351) scale(0.026 -0.026)" /><use href="#g400-67d3" transform="translate(463.000 351) scale(0.026 -0.026)" /><use href="#g400-7ed3" transform="translate(489.000 351) scale(0.026 -0.026)" /><use href="#g400-679c" transform="translate(515.000 351) scale(0.026 -0.026)" /></g><path d="M680 390 L680 435 L220 435 L220 310" fill="none" stroke="#333333" stroke-width="1.8" marker-end="url(#arrow)" />
<g aria-label="页码 · 问题 · 修改建议" fill="#292929" data-font="Source Han Sans CN 400" data-size="26.0"><use href="#g400-9875" transform="translate(308.352 417) scale(0.026 -0.026)" /><use href="#g400-7801" transform="translate(334.352 417) scale(0.026 -0.026)" /><use href="#g400-20" transform="translate(360.352 417) scale(0.026 -0.026)" /><use href="#g400-b7" transform="translate(366.176 417) scale(0.026 -0.026)" /><use href="#g400-20" transform="translate(392.176 417) scale(0.026 -0.026)" /><use href="#g400-95ee" transform="translate(398.000 417) scale(0.026 -0.026)" /><use href="#g400-9898" transform="translate(424.000 417) scale(0.026 -0.026)" /><use href="#g400-20" transform="translate(450.000 417) scale(0.026 -0.026)" /><use href="#g400-b7" transform="translate(455.824 417) scale(0.026 -0.026)" /><use href="#g400-20" transform="translate(481.824 417) scale(0.026 -0.026)" /><use href="#g400-4fee" transform="translate(487.648 417) scale(0.026 -0.026)" /><use href="#g400-6539" transform="translate(513.648 417) scale(0.026 -0.026)" /><use href="#g400-5efa" transform="translate(539.648 417) scale(0.026 -0.026)" /><use href="#g400-8bae" transform="translate(565.648 417) scale(0.026 -0.026)" /></g><rect x="20" y="485" width="410" height="190" rx="6" fill="#ffffff" stroke="#333333" stroke-width="1.8" />
<rect x="20" y="485" width="410" height="48" rx="6" fill="#dedede" stroke="#333333" stroke-width="1.8" />
<g aria-label="提议者上下文" fill="#292929" data-font="Source Han Sans CN 700" data-size="28.0"><use href="#g700-63d0" transform="translate(141.000 518) scale(0.028 -0.028)" /><use href="#g700-8bae" transform="translate(169.000 518) scale(0.028 -0.028)" /><use href="#g700-8005" transform="translate(197.000 518) scale(0.028 -0.028)" /><use href="#g700-4e0a" transform="translate(225.000 518) scale(0.028 -0.028)" /><use href="#g700-4e0b" transform="translate(253.000 518) scale(0.028 -0.028)" /><use href="#g700-6587" transform="translate(281.000 518) scale(0.028 -0.028)" /></g><g aria-label="任务、资料、当前源码" fill="#292929" data-font="Source Han Sans CN 400" data-size="26.0"><use href="#g400-4efb" transform="translate(95.000 565) scale(0.026 -0.026)" /><use href="#g400-52a1" transform="translate(121.000 565) scale(0.026 -0.026)" /><use href="#g400-3001" transform="translate(147.000 565) scale(0.026 -0.026)" /><use href="#g400-8d44" transform="translate(173.000 565) scale(0.026 -0.026)" /><use href="#g400-6599" transform="translate(199.000 565) scale(0.026 -0.026)" /><use href="#g400-3001" transform="translate(225.000 565) scale(0.026 -0.026)" /><use href="#g400-5f53" transform="translate(251.000 565) scale(0.026 -0.026)" /><use href="#g400-524d" transform="translate(277.000 565) scale(0.026 -0.026)" /><use href="#g400-6e90" transform="translate(303.000 565) scale(0.026 -0.026)" /><use href="#g400-7801" transform="translate(329.000 565) scale(0.026 -0.026)" /></g><g aria-label="接收定位明确的反馈" fill="#292929" data-font="Source Han Sans CN 400" data-size="26.0"><use href="#g400-63a5" transform="translate(108.000 597) scale(0.026 -0.026)" /><use href="#g400-6536" transform="translate(134.000 597) scale(0.026 -0.026)" /><use href="#g400-5b9a" transform="translate(160.000 597) scale(0.026 -0.026)" /><use href="#g400-4f4d" transform="translate(186.000 597) scale(0.026 -0.026)" /><use href="#g400-660e" transform="translate(212.000 597) scale(0.026 -0.026)" /><use href="#g400-786e" transform="translate(238.000 597) scale(0.026 -0.026)" /><use href="#g400-7684" transform="translate(264.000 597) scale(0.026 -0.026)" /><use href="#g400-53cd" transform="translate(290.000 597) scale(0.026 -0.026)" /><use href="#g400-9988" transform="translate(316.000 597) scale(0.026 -0.026)" /></g><g aria-label="按反馈更新相关页面" fill="#292929" data-font="Source Han Sans CN 400" data-size="26.0"><use href="#g400-6309" transform="translate(108.000 629) scale(0.026 -0.026)" /><use href="#g400-53cd" transform="translate(134.000 629) scale(0.026 -0.026)" /><use href="#g400-9988" transform="translate(160.000 629) scale(0.026 -0.026)" /><use href="#g400-66f4" transform="translate(186.000 629) scale(0.026 -0.026)" /><use href="#g400-65b0" transform="translate(212.000 629) scale(0.026 -0.026)" /><use href="#g400-76f8" transform="translate(238.000 629) scale(0.026 -0.026)" /><use href="#g400-5173" transform="translate(264.000 629) scale(0.026 -0.026)" /><use href="#g400-9875" transform="translate(290.000 629) scale(0.026 -0.026)" /><use href="#g400-9762" transform="translate(316.000 629) scale(0.026 -0.026)" /></g><rect x="470" y="485" width="410" height="190" rx="6" fill="#ffffff" stroke="#333333" stroke-width="1.8" />
<rect x="470" y="485" width="410" height="48" rx="6" fill="#dedede" stroke="#333333" stroke-width="1.8" />
<g aria-label="审核者上下文" fill="#292929" data-font="Source Han Sans CN 700" data-size="28.0"><use href="#g700-5ba1" transform="translate(591.000 518) scale(0.028 -0.028)" /><use href="#g700-6838" transform="translate(619.000 518) scale(0.028 -0.028)" /><use href="#g700-8005" transform="translate(647.000 518) scale(0.028 -0.028)" /><use href="#g700-4e0a" transform="translate(675.000 518) scale(0.028 -0.028)" /><use href="#g700-4e0b" transform="translate(703.000 518) scale(0.028 -0.028)" /><use href="#g700-6587" transform="translate(731.000 518) scale(0.028 -0.028)" /></g><g aria-label="当前截图、必要源码与标准" fill="#292929" data-font="Source Han Sans CN 400" data-size="26.0"><use href="#g400-5f53" transform="translate(519.000 565) scale(0.026 -0.026)" /><use href="#g400-524d" transform="translate(545.000 565) scale(0.026 -0.026)" /><use href="#g400-622a" transform="translate(571.000 565) scale(0.026 -0.026)" /><use href="#g400-56fe" transform="translate(597.000 565) scale(0.026 -0.026)" /><use href="#g400-3001" transform="translate(623.000 565) scale(0.026 -0.026)" /><use href="#g400-5fc5" transform="translate(649.000 565) scale(0.026 -0.026)" /><use href="#g400-8981" transform="translate(675.000 565) scale(0.026 -0.026)" /><use href="#g400-6e90" transform="translate(701.000 565) scale(0.026 -0.026)" /><use href="#g400-7801" transform="translate(727.000 565) scale(0.026 -0.026)" /><use href="#g400-4e0e" transform="translate(753.000 565) scale(0.026 -0.026)" /><use href="#g400-6807" transform="translate(779.000 565) scale(0.026 -0.026)" /><use href="#g400-51c6" transform="translate(805.000 565) scale(0.026 -0.026)" /></g><g aria-label="按轮次管理历史图像" fill="#292929" data-font="Source Han Sans CN 400" data-size="26.0"><use href="#g400-6309" transform="translate(558.000 597) scale(0.026 -0.026)" /><use href="#g400-8f6e" transform="translate(584.000 597) scale(0.026 -0.026)" /><use href="#g400-6b21" transform="translate(610.000 597) scale(0.026 -0.026)" /><use href="#g400-7ba1" transform="translate(636.000 597) scale(0.026 -0.026)" /><use href="#g400-7406" transform="translate(662.000 597) scale(0.026 -0.026)" /><use href="#g400-5386" transform="translate(688.000 597) scale(0.026 -0.026)" /><use href="#g400-53f2" transform="translate(714.000 597) scale(0.026 -0.026)" /><use href="#g400-56fe" transform="translate(740.000 597) scale(0.026 -0.026)" /><use href="#g400-50cf" transform="translate(766.000 597) scale(0.026 -0.026)" /></g><g aria-label="通过检查或到达迭代预算" fill="#292929" data-font="Source Han Sans CN 400" data-size="26.0"><use href="#g400-901a" transform="translate(532.000 629) scale(0.026 -0.026)" /><use href="#g400-8fc7" transform="translate(558.000 629) scale(0.026 -0.026)" /><use href="#g400-68c0" transform="translate(584.000 629) scale(0.026 -0.026)" /><use href="#g400-67e5" transform="translate(610.000 629) scale(0.026 -0.026)" /><use href="#g400-6216" transform="translate(636.000 629) scale(0.026 -0.026)" /><use href="#g400-5230" transform="translate(662.000 629) scale(0.026 -0.026)" /><use href="#g400-8fbe" transform="translate(688.000 629) scale(0.026 -0.026)" /><use href="#g400-8fed" transform="translate(714.000 629) scale(0.026 -0.026)" /><use href="#g400-4ee3" transform="translate(740.000 629) scale(0.026 -0.026)" /><use href="#g400-9884" transform="translate(766.000 629) scale(0.026 -0.026)" /><use href="#g400-7b97" transform="translate(792.000 629) scale(0.026 -0.026)" /></g><rect x="20" y="705" width="860" height="112" rx="6" fill="#ffffff" stroke="#333333" stroke-width="1.8" />
<rect x="20" y="705" width="860" height="48" rx="6" fill="#dedede" stroke="#333333" stroke-width="1.8" />
<g aria-label="实验记录" fill="#292929" data-font="Source Han Sans CN 700" data-size="28.0"><use href="#g700-5b9e" transform="translate(394.000 738) scale(0.028 -0.028)" /><use href="#g700-9a8c" transform="translate(422.000 738) scale(0.028 -0.028)" /><use href="#g700-8bb0" transform="translate(450.000 738) scale(0.028 -0.028)" /><use href="#g700-5f55" transform="translate(478.000 738) scale(0.028 -0.028)" /></g><g aria-label="20 页 · 两组审核均为 95 分 · 峰值上下文约 24k / 93k" fill="#292929" data-font="Source Han Sans CN 400" data-size="26.0"><use href="#g400-32" transform="translate(135.712 785) scale(0.026 -0.026)" /><use href="#g400-30" transform="translate(150.142 785) scale(0.026 -0.026)" /><use href="#g400-20" transform="translate(164.572 785) scale(0.026 -0.026)" /><use href="#g400-9875" transform="translate(170.396 785) scale(0.026 -0.026)" /><use href="#g400-20" transform="translate(196.396 785) scale(0.026 -0.026)" /><use href="#g400-b7" transform="translate(202.220 785) scale(0.026 -0.026)" /><use href="#g400-20" transform="translate(228.220 785) scale(0.026 -0.026)" /><use href="#g400-4e24" transform="translate(234.044 785) scale(0.026 -0.026)" /><use href="#g400-7ec4" transform="translate(260.044 785) scale(0.026 -0.026)" /><use href="#g400-5ba1" transform="translate(286.044 785) scale(0.026 -0.026)" /><use href="#g400-6838" transform="translate(312.044 785) scale(0.026 -0.026)" /><use href="#g400-5747" transform="translate(338.044 785) scale(0.026 -0.026)" /><use href="#g400-4e3a" transform="translate(364.044 785) scale(0.026 -0.026)" /><use href="#g400-20" transform="translate(390.044 785) scale(0.026 -0.026)" /><use href="#g400-39" transform="translate(395.868 785) scale(0.026 -0.026)" /><use href="#g400-35" transform="translate(410.298 785) scale(0.026 -0.026)" /><use href="#g400-20" transform="translate(424.728 785) scale(0.026 -0.026)" /><use href="#g400-5206" transform="translate(430.552 785) scale(0.026 -0.026)" /><use href="#g400-20" transform="translate(456.552 785) scale(0.026 -0.026)" /><use href="#g400-b7" transform="translate(462.376 785) scale(0.026 -0.026)" /><use href="#g400-20" transform="translate(488.376 785) scale(0.026 -0.026)" /><use href="#g400-5cf0" transform="translate(494.200 785) scale(0.026 -0.026)" /><use href="#g400-503c" transform="translate(520.200 785) scale(0.026 -0.026)" /><use href="#g400-4e0a" transform="translate(546.200 785) scale(0.026 -0.026)" /><use href="#g400-4e0b" transform="translate(572.200 785) scale(0.026 -0.026)" /><use href="#g400-6587" transform="translate(598.200 785) scale(0.026 -0.026)" /><use href="#g400-7ea6" transform="translate(624.200 785) scale(0.026 -0.026)" /><use href="#g400-20" transform="translate(650.200 785) scale(0.026 -0.026)" /><use href="#g400-32" transform="translate(656.024 785) scale(0.026 -0.026)" /><use href="#g400-34" transform="translate(670.454 785) scale(0.026 -0.026)" /><use href="#g400-6b" transform="translate(684.884 785) scale(0.026 -0.026)" /><use href="#g400-20" transform="translate(699.236 785) scale(0.026 -0.026)" /><use href="#g400-2f" transform="translate(705.060 785) scale(0.026 -0.026)" /><use href="#g400-20" transform="translate(715.252 785) scale(0.026 -0.026)" /><use href="#g400-39" transform="translate(721.076 785) scale(0.026 -0.026)" /><use href="#g400-33" transform="translate(735.506 785) scale(0.026 -0.026)" /><use href="#g400-6b" transform="translate(749.936 785) scale(0.026 -0.026)" /></g><defs><path id="g700-63d0" d="M517 556V607H788V556ZM517 684V734H788V684ZM903 819H408V472H903ZM527 285 418 298C404 162 363 50 279 -16C304 -32 349 -68 367 -87C411 -46 446 7 473 70C540 -52 641 -77 774 -77H948C952 -46 967 4 981 29C937 27 812 27 779 27C755 27 731 28 709 30V147H900V241H709V328H954V425H359V328H596V66C560 89 530 125 509 182C516 215 522 249 527 285ZM251 50V285L357 316L341 424L251 400V550H351V660H251V849H141V660H33V550H141V371L23 342L49 227L141 253V51C141 38 137 34 125 34C113 33 78 33 41 34C56 3 69 -47 72 -76C136 -76 181 -72 211 -53C242 -35 251 -5 251 50Z" /><path id="g700-8bae" d="M629 843 527 803C562 731 597 636 607 577L718 623C705 683 667 773 629 843ZM176 832 90 770C132 718 183 645 205 599L297 669C273 714 219 783 176 832ZM926 762 803 781C776 596 732 422 643 279C553 412 500 580 468 773L357 755C398 521 459 326 564 175C498 103 416 44 312 -1C335 -27 366 -73 382 -102C487 -53 572 9 640 81C710 7 796 -52 902 -95C921 -62 959 -13 986 11C879 50 792 108 721 181C833 344 889 544 926 762ZM172 -72C190 -48 224 -21 415 118C403 142 386 189 379 222L275 148V542H38V427H158V128C158 71 129 30 106 11C126 -6 160 -48 172 -72Z" /><path id="g700-8005" d="M835 361H471C512 386 551 413 589 441H950V546H716C790 613 857 687 915 767L812 821C781 776 746 734 708 693V742H491V850H372V742H136V638H372V546H50V441H391C275 372 149 316 18 274C41 250 76 201 91 175C143 194 194 215 245 239V-90H365V-61H710V-86H835ZM491 546V638H653C619 606 583 575 545 546ZM365 198V262H710V198ZM365 107H710V40H365Z" /><path id="g700-ff08" d="M663 380C663 166 752 6 860 -100L955 -58C855 50 776 188 776 380C776 572 855 710 955 818L860 860C752 754 663 594 663 380Z" /><path id="g700-50" d="M91 0H239V263H338C497 263 624 339 624 508C624 683 498 741 334 741H91ZM239 380V623H323C425 623 479 594 479 508C479 423 430 380 328 380Z" /><path id="g700-72" d="M79 0H226V334C258 415 310 444 353 444C377 444 390 442 408 437L437 562C421 569 403 574 372 574C313 574 253 534 213 461H210L199 560H79Z" /><path id="g700-6f" d="M313 -14C453 -14 582 94 582 280C582 466 453 574 313 574C172 574 44 466 44 280C44 94 172 -14 313 -14ZM313 106C236 106 194 174 194 280C194 385 236 454 313 454C389 454 432 385 432 280C432 174 389 106 313 106Z" /><path id="g700-70" d="M79 -215H226V-44L221 47C263 8 311 -14 360 -14C483 -14 598 97 598 289C598 461 515 574 378 574C317 574 260 542 213 502H210L199 560H79ZM328 107C297 107 262 118 226 149V396C264 434 298 453 336 453C413 453 447 394 447 287C447 165 394 107 328 107Z" /><path id="g700-73" d="M239 -14C384 -14 462 64 462 163C462 259 390 304 302 334C233 357 195 372 195 410C195 440 219 464 270 464C312 464 352 452 393 422L456 505C410 545 343 574 266 574C138 574 57 503 57 403C57 314 130 267 210 237C271 215 324 197 324 155C324 120 299 96 243 96C190 96 139 112 89 152L26 69C81 16 162 -14 239 -14Z" /><path id="g700-65" d="M323 -14C392 -14 463 9 518 48L471 137C429 113 388 100 343 100C269 100 201 136 184 238H532C536 252 539 279 539 306C539 462 459 574 305 574C172 574 44 461 44 280C44 95 166 -14 323 -14ZM184 337C199 426 256 460 307 460C380 460 413 412 413 337Z" /><path id="g700-ff09" d="M337 380C337 594 248 754 140 860L45 818C145 710 224 572 224 380C224 188 145 50 45 -58L140 -100C248 6 337 166 337 380Z" /><path id="g400-8f93" d="M793 447H734V85H793ZM922 5V484H861V5C861 -6 857 -9 846 -10C833 -10 793 -10 747 -9C757 -27 765 -54 767 -71C826 -71 866 -70 890 -60C915 -49 922 -31 922 5ZM42 167 59 96 219 137V-79H285V154L368 176L362 239L285 221V344H365V413H285V565H219V413H131C157 483 182 566 202 652H367V720H217C225 756 231 792 236 827L166 839C162 800 157 759 150 720H47V652H137C119 569 100 501 91 475C77 430 65 398 48 393C56 376 67 344 71 330C79 338 108 344 140 344H219V206C152 190 90 176 42 167ZM505 594C562 635 615 683 659 734C710 678 765 633 826 594ZM720 816 659 843C593 738 469 640 347 584C365 568 385 545 396 527C423 541 450 557 477 574V532H847V581C872 565 898 551 925 537C935 557 955 581 973 596C868 641 774 698 698 783ZM677 -1V466H415V-76H477V130H614V-1C614 -10 612 -12 604 -13C594 -13 568 -13 537 -12C546 -30 554 -57 556 -74C599 -74 630 -74 651 -63C672 -51 677 -33 677 -1ZM614 406V327H477V406ZM477 269H614V187H477Z" /><path id="g400-5165" d="M341 819 295 755C361 709 412 653 455 591C391 305 266 103 41 -13C61 -27 96 -59 110 -74C313 45 440 229 517 490C627 289 698 58 926 -70C931 -46 951 -6 964 15C631 214 662 590 341 819Z" /><path id="g400-ff1a" d="M250 486C290 486 326 515 326 560C326 606 290 636 250 636C210 636 174 606 174 560C174 515 210 486 250 486ZM250 -4C290 -4 326 26 326 71C326 117 290 146 250 146C210 146 174 117 174 71C174 26 210 -4 250 -4Z" /><path id="g400-8bba" d="M154 818 107 768C168 718 245 647 281 601L332 658C294 702 215 771 154 818ZM702 828 622 842C573 722 470 575 315 472C332 460 355 434 366 416C490 504 583 614 648 724C722 607 829 492 924 424C936 443 960 470 977 483C873 547 752 673 685 792ZM856 364 806 427C735 375 626 314 535 269V472H460V62C460 -29 490 -53 598 -53C621 -53 782 -53 806 -53C902 -53 925 -15 935 124C914 128 883 141 866 154C860 36 852 15 802 15C766 15 630 15 603 15C545 15 535 22 535 61V194C635 238 763 304 856 364ZM190 -60C204 -39 231 -17 395 115C387 129 375 158 368 178L268 100V526H40V453H197V91C197 42 166 8 149 -6C161 -17 182 -44 190 -60Z" /><path id="g400-6587" d="M501 847 423 823C453 774 484 707 497 666L580 693C566 735 532 799 501 847ZM954 664H50V590H206C265 438 344 307 447 200C337 108 201 40 35 -7C51 -25 74 -60 83 -78C250 -24 389 48 502 147C615 46 752 -28 916 -73C928 -52 950 -20 968 -4C808 36 671 107 560 201C660 304 738 432 796 590H954ZM504 253C409 348 336 461 284 590H711C661 454 592 343 504 253Z" /><path id="g400-3001" d="M273 -56 341 2C279 75 189 166 117 224L52 167C123 109 209 23 273 -56Z" /><path id="g400-70b9" d="M237 286V465H760V286ZM411 134 340 128C352 63 360 -21 360 -71L437 -61C436 -13 426 70 411 134ZM615 142 547 127C576 65 605 -19 617 -69L689 -49C677 1 645 81 615 142ZM818 161 751 135C801 72 856 -17 879 -72L950 -42C926 13 868 98 818 161ZM248 136 177 155C146 81 95 0 42 -46L110 -79C165 -26 216 58 248 136ZM910 734H530V840H455V536H166V216H835V536H530V663H910Z" /><path id="g400-4e0e" d="M681 238H57V166H681ZM336 810 261 818C236 680 195 492 164 379H807C784 150 758 45 721 15C708 4 694 3 669 3C640 3 562 4 484 11C499 -10 510 -41 512 -64C583 -68 655 -70 691 -68C734 -65 760 -59 786 -33C832 11 859 127 888 413C890 424 891 450 891 450H261C273 504 287 567 300 630H876V702H315Z" /><path id="g400-539f" d="M369 308V402H788V308ZM369 459V552H788V459ZM758 197 699 165C759 100 838 11 876 -42L940 -4C899 48 818 135 758 197ZM442 175 371 199C326 132 260 56 201 4C219 -5 250 -25 264 -37C320 17 390 102 442 175ZM205 501V715H943V785H131V501C131 347 123 132 35 -21C53 -28 85 -48 99 -60C192 101 205 338 205 501ZM617 692 530 704C522 678 507 642 492 611H295V248H541V4C541 -8 537 -13 521 -13C506 -14 455 -14 396 -12C405 -32 416 -59 419 -79C496 -79 545 -79 576 -68C605 -57 614 -36 614 3V248H864V611H573C588 636 603 664 617 692Z" /><path id="g400-59cb" d="M532 31V259H833V31ZM905 327H462V-80H532V-36H833V-78H905ZM800 695 740 666C774 622 809 569 838 517L520 497C585 587 651 703 705 819L627 841C577 714 495 579 468 544C443 508 423 484 404 479C413 460 425 423 429 407C458 419 502 423 874 452C887 426 897 402 905 381L969 414C939 491 868 608 800 695ZM333 635H216C229 703 240 770 248 831L178 836C171 774 160 705 147 635H43V565H134C113 462 88 363 65 292C115 258 168 216 217 174C171 84 112 20 40 -19C56 -33 76 -60 86 -78C162 -31 223 34 271 124C309 87 342 52 364 21L410 82C385 115 347 154 303 193C348 305 377 448 388 630L345 637ZM202 565H316C304 437 281 329 247 241C213 268 178 295 144 319C163 390 184 477 202 565Z" /><path id="g400-56fe" d="M407 325 375 279C455 262 557 227 613 199L644 250C588 276 487 309 407 325ZM310 203 275 152C413 135 586 95 682 61L715 117C618 149 445 188 310 203ZM156 29V728H842V29ZM917 796H84V-80H156V-38H842V-80H917ZM477 686 414 708C364 626 278 548 192 497C208 487 234 465 245 453C275 473 306 497 336 524C367 491 403 461 444 434C359 394 263 364 174 347C187 333 203 304 210 286C308 309 413 346 507 396C591 351 686 317 781 297C791 314 809 340 823 353C735 369 646 397 569 433C643 481 707 538 749 606L706 631L695 628H436C451 647 465 666 477 686ZM378 563 385 570H644C608 531 560 496 505 466C455 495 411 528 378 563Z" /><path id="g400-8868" d="M908 302 846 346C802 303 732 249 672 207C628 259 592 319 566 385H934V450H536V539H858V601H536V686H902V751H536V840H460V751H105V686H460V601H156V539H460V450H65V385H397C302 300 160 223 36 183C52 168 74 140 86 122C142 142 201 170 258 203V55C258 15 236 -2 219 -11C231 -27 247 -61 252 -79C275 -64 312 -51 591 38C587 54 581 83 579 104L335 31V251C395 292 449 337 492 385C570 175 710 23 917 -46C928 -26 950 3 967 19C868 48 783 97 714 162C777 201 850 253 908 302Z" /><path id="g400-51fa" d="M187 341H104V-21H814V-78H895V341H814V54H539V404H855V750H774V477H539V839H457V477H228V749H150V404H457V54H187Z" /><path id="g400-53" d="M304 -13C459 -13 553 79 553 195C553 304 489 354 402 391L298 436C241 460 176 487 176 559C176 624 230 665 313 665C377 665 433 639 479 598L528 658C478 709 402 746 313 746C178 746 82 665 82 552C82 446 161 394 231 363L336 318C406 287 459 263 459 187C459 116 402 68 305 68C228 68 151 101 99 156L48 96C111 28 199 -13 304 -13Z" /><path id="g400-6c" d="M188 -11C211 -11 228 -7 241 0L228 67C220 65 215 65 210 65C195 65 184 75 184 105V796H92V111C92 33 120 -11 188 -11Z" /><path id="g400-69" d="M92 0H184V543H92ZM137 655C172 655 198 679 198 716C198 751 172 775 137 775C101 775 76 751 76 716C76 679 101 655 137 655Z" /><path id="g400-64" d="M277 -13C342 -13 400 22 442 64H445L453 0H528V796H436V587L441 494C393 533 352 557 288 557C164 557 53 447 53 271C53 90 141 -13 277 -13ZM297 64C202 64 147 141 147 272C147 396 217 480 304 480C349 480 391 464 436 423V138C391 88 347 64 297 64Z" /><path id="g400-65" d="M312 -13C385 -13 443 10 490 42L459 100C419 75 375 60 322 60C228 60 149 124 140 250H508C510 264 512 282 512 302C512 457 434 557 295 557C171 557 52 448 52 271C52 92 167 -13 312 -13ZM141 315C154 433 228 484 297 484C382 484 432 425 432 315Z" /><path id="g400-76" d="M209 0H316L508 543H418L315 234C299 181 281 126 265 74H260C244 126 227 181 210 234L108 543H13Z" /><path id="g400-20" d="" /><path id="g400-4d" d="M101 0H184V406C184 469 178 565 172 630H176L235 455L374 74H436L574 455L633 630H637C632 565 625 469 625 406V0H711V733H600L460 341C443 291 428 239 409 188H405C387 239 371 291 352 341L212 733H101Z" /><path id="g400-61" d="M217 -13C284 -13 345 22 397 65H400L408 0H483V334C483 469 428 557 295 557C207 557 131 519 82 486L117 425C160 452 217 481 280 481C369 481 392 414 392 344C161 318 59 259 59 141C59 43 126 -13 217 -13ZM243 61C189 61 147 85 147 147C147 217 209 262 392 283V132C339 85 295 61 243 61Z" /><path id="g400-72" d="M92 0H184V349C220 441 275 475 320 475C343 475 354 473 370 468L390 545C373 554 356 557 332 557C270 557 215 513 178 444H176L167 543H92Z" /><path id="g400-6b" d="M92 0H182V143L284 262L443 0H542L337 324L518 543H416L186 257H182V796H92Z" /><path id="g400-6f" d="M303 -13C436 -13 554 91 554 271C554 452 436 557 303 557C170 557 52 452 52 271C52 91 170 -13 303 -13ZM303 63C209 63 146 146 146 271C146 396 209 480 303 480C397 480 461 396 461 271C461 146 397 63 303 63Z" /><path id="g400-77" d="M178 0H284L361 291C375 343 387 394 398 450H403C416 394 426 344 440 293L518 0H629L776 543H688L609 229C597 177 587 128 576 78H571C558 128 546 177 533 229L448 543H359L274 229C261 177 249 128 238 78H233C222 128 212 177 201 229L120 543H27Z" /><path id="g400-6e" d="M92 0H184V394C238 449 276 477 332 477C404 477 435 434 435 332V0H526V344C526 482 474 557 360 557C286 557 229 516 178 464H176L167 543H92Z" /><path id="g400-79" d="M101 -234C209 -234 266 -152 304 -46L508 543H419L321 242C307 193 291 138 277 88H272C253 139 235 194 218 242L108 543H13L231 -1L219 -42C196 -109 158 -159 97 -159C84 -159 70 -156 56 -151L37 -222C54 -230 76 -234 101 -234Z" /><path id="g400-75" d="M251 -13C325 -13 379 26 430 85H433L440 0H516V543H425V158C373 94 334 66 278 66C206 66 176 109 176 210V543H84V199C84 60 136 -13 251 -13Z" /><path id="g400-74" d="M262 -11C299 -11 335 -1 364 13L345 78C324 67 303 64 283 64C220 64 199 102 199 169V469H347V543H199V718H123L113 543L27 538V469H108V171C108 63 147 -11 262 -11Z" /><path id="g400-3a" d="M139 390C175 390 205 418 205 460C205 501 175 530 139 530C102 530 73 501 73 460C73 418 102 390 139 390ZM139 -13C175 -13 205 15 205 56C205 98 175 126 139 126C102 126 73 98 73 56C73 15 102 -13 139 -13Z" /><path id="g400-2d" d="M46 245H302V315H46Z" /><path id="g400-63" d="M308 -13C376 -13 437 14 482 57L442 113C409 83 364 63 315 63C214 63 146 146 146 271C146 396 219 480 317 480C363 480 398 463 426 437L471 493C434 530 384 557 313 557C173 557 52 452 52 271C52 91 162 -13 308 -13Z" /><path id="g400-73" d="M234 -13C362 -13 431 60 431 148C431 247 350 283 264 314C198 338 149 357 149 407C149 448 181 486 250 486C298 486 337 470 375 442L417 495C376 531 316 557 249 557C130 557 62 489 62 403C62 313 141 275 222 245C283 223 344 198 344 143C344 96 309 58 237 58C169 58 120 79 74 118L32 64C81 15 154 -13 234 -13Z" /><path id="g400-23" d="M101 0H160L188 229H336L309 0H369L396 229H500V292H404L425 458H522V521H432L458 726H398L372 521H223L249 726H190L164 521H62V458H157L136 292H40V229H128ZM195 292 216 458H365L344 292Z" /><path id="g400-54" d="M253 0H346V655H568V733H31V655H253Z" /><path id="g400-66" d="M27 469H107V0H198V469H313V543H198V629C198 699 223 736 275 736C294 736 315 732 336 724L356 792C333 802 299 809 265 809C157 809 107 740 107 630V543L27 538Z" /><path id="g400-6d" d="M92 0H184V394C233 450 279 477 320 477C389 477 421 434 421 332V0H512V394C563 450 607 477 649 477C718 477 750 434 750 332V0H841V344C841 482 788 557 677 557C610 557 554 514 497 453C475 517 431 557 347 557C282 557 226 516 178 464H176L167 543H92Z" /><path id="g400-67b6" d="M631 485V693H837V485ZM912 759H560V418H912ZM537 394H459V297H61V230H404C317 132 172 43 40 0C56 -16 78 -44 90 -62C221 -12 366 85 459 196V-81H537V190C630 83 771 -7 906 -54C918 -35 940 -6 957 9C818 49 675 132 589 230H928V297H537ZM287 839H214C213 802 211 768 208 735H55V668H199C180 558 137 475 36 423C52 410 73 384 82 366C201 430 250 533 272 668H412C403 539 393 488 379 472C372 464 363 462 350 463C335 463 300 463 262 467C273 449 280 420 282 400C322 398 361 398 382 400C407 402 424 408 440 426C463 453 474 524 486 704C487 714 488 735 488 735H280C283 768 285 803 287 839Z" /><path id="g400-6784" d="M938 676H543C561 723 577 773 590 824L516 840C484 705 429 572 357 487C375 477 405 453 419 441C453 486 486 543 514 606H862C849 196 834 43 804 8C794 -5 784 -8 766 -7C745 -7 697 -7 644 -2C656 -24 665 -56 667 -77C716 -80 766 -81 797 -77C829 -73 851 -65 871 -37C908 12 922 167 937 637C938 647 938 676 938 676ZM687 395 632 376C649 340 667 298 682 258L505 227C550 310 594 415 626 517L554 538C527 423 471 297 454 265C437 232 423 208 407 205C415 187 427 152 430 138C449 149 480 157 702 201C711 175 719 150 724 130L783 155C767 215 726 318 687 395ZM271 840H199V647H50V577H192C160 440 97 281 32 197C45 179 64 146 72 124C119 191 165 300 199 413V-79H271V437C299 387 332 326 346 293L393 348C376 378 297 499 271 530V577H387V647H271Z" /><path id="g400-5de6" d="M448 829 370 840C361 781 350 720 336 659H67V587H319C265 377 177 174 28 39C44 24 67 -3 79 -20C196 89 277 233 336 390V323H560V22H232V-51H949V22H636V323H904V395H338C361 457 380 522 397 587H930V659H414C427 716 438 773 448 829Z" /><path id="g400-680f" d="M534 825 474 797C511 743 550 671 566 625L629 657C613 702 572 772 534 825ZM872 339H460V267H872ZM950 46H377V-26H950ZM267 840H196V647H66V577H193C161 440 98 281 33 197C47 179 65 146 73 124C118 189 162 291 196 399V-79H267V447C297 394 332 331 347 297L397 357C379 388 294 514 267 548V577H382V647H267ZM918 614H770C805 671 844 745 876 810L802 833C777 767 733 673 695 614H419V543H918Z" /><path id="g400-81ea" d="M239 482V631H774V482ZM239 411H774V264H239ZM239 194H774V46H239ZM542 830 455 842C447 802 431 747 416 703H163V-81H239V-25H774V-76H853V703H492C509 741 526 787 542 830Z" /><path id="g400-6ce8" d="M136 828 94 774C159 743 242 695 284 662L327 724C284 755 200 800 136 828ZM82 553 42 497C105 467 186 420 227 388L269 451C227 482 144 526 82 553ZM71 -18 134 -69C194 24 263 150 316 255L262 305C204 191 125 59 71 -18ZM616 844 548 819C581 767 616 697 631 653L703 682C688 726 651 793 616 844ZM938 649H334V578H597V352H372V281H597V23H302V-49H962V23H675V281H902V352H675V578H938Z" /><path id="g400-610f" d="M371 20V149H298V20C298 -52 324 -71 426 -71C447 -71 593 -71 615 -71C697 -71 719 -45 728 68C708 72 679 82 662 93C658 4 651 -8 609 -8C576 -8 455 -8 432 -8C380 -8 371 -4 371 20ZM800 167 741 140C792 86 847 12 869 -37L932 -6C908 43 851 115 800 167ZM244 129 181 157C156 99 112 27 61 -17L123 -54C174 -6 215 69 244 129ZM261 254V323H742V254ZM261 373V441H742V373ZM817 493H190V202H444L408 168C463 137 532 89 564 57L611 103C579 133 519 174 467 202H817ZM515 848 443 832C455 812 467 788 477 766H118V705H328L269 691C283 665 298 632 306 605H73V544H933V605H692C707 631 723 661 739 692L681 705H881V766H560C549 793 532 824 515 848ZM338 705H661C650 676 631 636 615 605H382C375 632 358 673 338 705Z" /><path id="g400-529b" d="M488 664V838H410V665V622H83V545H406C391 357 325 137 53 -25C72 -38 100 -66 111 -84C402 93 470 337 484 545H827C807 192 785 50 749 16C737 3 724 0 703 0C678 0 614 1 546 7C560 -15 569 -48 571 -70C633 -73 697 -75 731 -72C770 -68 793 -61 817 -31C862 18 882 168 905 582C906 593 907 622 907 622H488Z" /><path id="g400-591a" d="M539 824 456 842C393 759 272 662 111 595C128 583 151 558 163 541C253 583 330 632 396 685H679C629 623 560 569 481 524C445 554 395 589 353 613L298 574C338 551 382 519 415 489C309 437 190 401 78 381C91 365 107 334 114 314C375 369 668 503 796 726L747 756L734 753H473C497 776 519 800 539 824ZM702 475 619 493C547 394 403 283 200 210C216 197 237 171 246 154C372 203 476 264 560 332H833C783 254 711 191 624 142C589 175 540 214 500 242L438 206C477 177 522 139 554 106C414 42 246 7 75 -9C87 -28 100 -61 106 -82C461 -40 804 76 944 373L894 404L880 400H636C660 425 682 450 702 475Z" /><path id="g400-5934" d="M577 219 537 165C673 99 812 10 893 -66L943 -8C860 65 716 154 577 219ZM232 795 192 741C273 711 372 659 420 619L464 679C414 719 313 768 232 795ZM147 612 102 559C183 527 281 473 329 431L377 490C327 531 227 582 147 612ZM946 382H580C605 511 605 661 606 830H529C528 656 530 507 503 382H57V311H483C429 158 313 49 56 -14C72 -30 92 -59 100 -76C384 -4 508 128 563 311H946Z" /><path id="g400-53f3" d="M490 825 412 840C399 778 382 715 361 653H65V580H334C270 420 174 274 31 176C47 161 70 134 82 116C155 168 216 231 268 302V-81H343V-25H788V-76H866V386H323C359 447 390 513 416 580H939V653H442C460 710 476 767 490 825ZM343 48V313H788V48Z" /><path id="g700-5ba1" d="M539 862 413 828 441 755H71V567H191V640H803V567H928V755H586C577 784 554 829 539 862ZM245 353V426H436V353ZM245 254H436V180H245ZM750 353H561V426H750ZM750 254V180H561V254ZM561 615H436V529H130V30H245V77H436V-88H561V77H750V35H871V529H561Z" /><path id="g700-6838" d="M963 329 839 373C757 214 568 76 333 10C355 -15 388 -62 403 -90C525 -52 634 3 726 71C786 20 852 -40 885 -81L978 -3C940 38 872 95 812 143C872 199 922 261 963 329ZM707 859 595 825C609 797 621 762 630 731H395V622H562C531 572 492 512 476 494C458 474 421 466 397 461C406 436 421 380 425 352C447 360 480 366 630 378C560 316 475 262 384 225C404 202 436 159 450 133C641 217 799 364 894 527L780 565C766 537 748 508 726 480L594 474C625 520 659 575 688 622H965V731H758C750 768 728 820 707 859ZM279 850H165V663H43V552H163C134 431 81 290 20 212C39 180 66 125 77 91C109 139 139 207 165 282V-89H279V367C298 328 315 288 325 261L395 341C379 370 306 484 279 519V552H380V663H279Z" /><path id="g700-52" d="M239 397V623H335C430 623 482 596 482 516C482 437 430 397 335 397ZM494 0H659L486 303C571 336 627 405 627 516C627 686 504 741 348 741H91V0H239V280H342Z" /><path id="g700-76" d="M205 0H375L562 560H421L339 281C324 226 309 168 294 111H289C273 168 259 226 243 281L162 560H14Z" /><path id="g700-69" d="M79 0H226V560H79ZM152 651C202 651 238 682 238 731C238 779 202 811 152 811C101 811 66 779 66 731C66 682 101 651 152 651Z" /><path id="g700-77" d="M172 0H340L397 244C408 296 420 348 427 408H432C443 348 453 297 465 244L524 0H697L835 560H698L638 284C628 229 620 175 610 120H606C593 175 583 229 570 284L500 560H370L302 284C288 230 278 175 267 120H262C253 175 245 229 236 284L174 560H28Z" /><path id="g400-6e32" d="M840 584H405V521H840ZM961 12H293V-57H961ZM458 148V242H787V148ZM458 297V392H787V297ZM859 449H389V89H859ZM134 825 89 774C147 742 220 693 255 658L302 716C266 749 192 796 134 825ZM81 560 38 507C99 476 177 428 215 395L260 454C221 486 141 533 81 560ZM72 -16 138 -63C191 30 254 155 301 260L243 306C191 193 121 62 72 -16ZM640 843 565 829C579 799 591 760 597 728H317V559H387V663H866V559H938V728H678C672 761 657 807 640 843Z" /><path id="g400-67d3" d="M77 690 44 639C102 620 176 590 215 566L248 624C208 646 133 675 77 690ZM143 832 113 783C171 764 246 731 284 708L316 764C277 787 201 816 143 832ZM70 383 124 332C180 388 242 455 296 517L251 564C190 497 120 426 70 383ZM538 397H462V290H57V223H395C307 126 166 40 37 -2C53 -17 75 -45 87 -64C222 -12 369 88 462 202V-79H538V197C631 85 774 -9 914 -57C925 -38 947 -9 964 6C828 46 688 127 602 223H945V290H538ZM591 841 515 840C514 800 512 763 508 729H344V661H497C467 531 400 451 269 402C285 390 313 359 322 345C464 409 539 504 572 661H708V482C708 423 714 405 730 392C747 379 772 374 794 374C806 374 839 374 853 374C872 374 895 377 909 383C925 390 937 401 943 421C950 439 953 489 955 533C934 540 905 554 890 568C890 520 888 484 886 468C883 452 878 445 872 442C867 438 856 437 846 437C835 437 818 437 809 437C800 437 793 438 788 441C783 445 781 457 781 478V729H583C587 764 590 801 591 841Z" /><path id="g400-9010" d="M119 800 62 760C116 711 180 640 208 594L269 640C239 685 173 752 119 800ZM248 110V483H49V413H176V103C133 85 85 46 38 -1L85 -64C137 -2 188 51 223 51C246 51 278 21 320 -2C391 -42 476 -52 596 -52C693 -52 870 -47 943 -42C945 -21 956 14 964 33C866 22 715 15 597 15C488 15 402 21 337 58C295 80 271 101 248 110ZM920 605 857 644C818 596 752 534 696 489C670 547 632 602 581 646C609 670 635 696 658 723H934V787H306V723H569C493 648 386 585 280 544C296 531 321 503 331 489C399 520 470 561 534 609C555 590 572 569 588 547C521 480 405 411 313 377C327 364 347 341 357 325C441 362 546 429 619 497C632 473 642 448 650 423C572 324 422 231 286 189C302 175 321 150 331 134C450 176 580 258 668 352C684 262 671 182 638 151C618 130 598 128 571 128C549 128 520 130 490 133C502 114 507 85 508 66C537 63 564 62 585 63C631 63 660 71 691 102C740 146 758 255 735 370C801 311 864 246 898 197L951 245C908 304 824 384 742 449C799 493 867 552 920 605Z" /><path id="g400-9875" d="M541 281V462H464V281C464 174 421 55 50 -18C66 -34 87 -64 96 -80C485 4 541 144 541 281ZM589 161 545 110C661 56 812 -27 886 -83L932 -23C854 32 703 111 589 161ZM839 595H479C497 631 517 673 535 715H935V785H74V715H449C437 676 419 631 404 595H171V128H248V525H760V130H839Z" /><path id="g400-622a" d="M776 819 723 782C778 740 840 678 869 636L924 678C894 720 831 779 776 819ZM369 519 314 497C330 473 347 443 359 418H218C234 446 248 474 260 503L197 520C161 433 102 346 37 289C53 279 79 257 91 246C106 261 121 278 136 296V-59H202V-6H531L500 -28C519 -42 541 -64 553 -80C608 -42 657 5 701 58C738 -23 787 -70 850 -70C921 -70 946 -25 959 126C940 133 915 149 899 165C894 48 883 4 857 4C816 4 780 48 752 126C816 222 865 333 901 450L833 470C807 381 771 294 725 217C704 302 689 409 680 531H949V596H676C672 672 670 754 671 839H597C597 755 599 674 604 596H354V684H536V747H354V839H282V747H95V684H282V596H52V531H608C619 376 639 239 671 136C636 90 598 48 555 13V55H407V124H538V175H407V244H538V294H407V359H557V418H428C418 447 394 489 369 519ZM345 294H202V359H345ZM345 244V175H202V244ZM345 124V55H202V124Z" /><path id="g400-ff0c" d="M157 -107C262 -70 330 12 330 120C330 190 300 235 245 235C204 235 169 210 169 163C169 116 203 92 244 92L261 94C256 25 212 -22 135 -54Z" /><path id="g400-7ed3" d="M35 53 48 -24C147 -2 280 26 406 55L400 124C266 97 128 68 35 53ZM63 184C87 197 123 205 402 256C400 272 397 301 398 321L175 285C254 372 334 479 401 587L334 629C315 593 292 557 270 522L137 511C196 594 254 700 298 802L221 834C181 717 110 593 87 561C66 529 48 506 30 502C39 481 52 443 56 427C71 434 96 439 223 454C178 391 136 341 117 322C84 286 61 262 38 257C47 237 59 200 63 184ZM716 841H639V706H408V634H639V478H433V406H926V478H716V634H943V706H716ZM532 32V236H826V32ZM901 304H459V-79H532V-36H826V-75H901Z" /><path id="g400-5408" d="M278 513C363 569 441 636 506 710C583 630 663 567 751 513ZM583 809 517 843C415 688 230 553 40 479C61 461 82 433 95 413C147 436 198 463 248 494V444H753V512C805 479 859 450 916 423C927 446 949 473 969 490C810 557 668 640 551 764ZM272 48V255H738V48ZM817 324H196V-78H272V-22H738V-74H817Z" /><path id="g400-5fc5" d="M359 837 310 784C394 727 503 643 562 592L612 652C554 699 444 781 359 837ZM218 519 147 538C128 428 88 292 31 206L103 177C159 264 196 408 218 519ZM805 503 739 473C805 373 873 238 899 149L971 184C943 272 875 404 805 503ZM865 750 791 781C700 596 562 414 386 265V597H308V203C223 140 131 84 32 39C48 24 70 -3 81 -20C161 18 237 62 308 112V61C308 -44 339 -71 448 -71C472 -71 626 -71 651 -71C760 -71 784 -18 796 162C774 167 741 182 722 196C715 36 705 3 647 3C612 3 481 3 454 3C397 3 386 13 386 60V169C592 330 753 534 865 750Z" /><path id="g400-8981" d="M672 232C639 174 593 129 532 93C459 111 384 127 310 141C331 168 355 199 378 232ZM888 645H647V730H930V797H69V730H342V645H119V386H386C372 358 355 328 336 298H54V232H291C256 183 219 137 186 101C271 85 354 68 433 49C335 15 211 -4 59 -13C72 -30 84 -57 90 -78C279 -62 428 -33 541 22C668 -12 779 -47 861 -80L924 -22C844 8 739 40 623 71C680 113 724 166 755 232H947V298H422C438 324 453 350 466 375L420 386H888ZM413 730H576V645H413ZM190 448V583H342V448ZM413 583H576V448H413ZM647 583H814V448H647Z" /><path id="g400-6e90" d="M537 319V407H843V319ZM537 463V549H843V463ZM572 186 505 205C475 138 431 68 385 19C402 9 431 -9 444 -20C489 32 539 113 572 186ZM853 213 788 188C828 124 876 40 898 -10L967 21C943 69 893 152 853 213ZM131 829 87 777C142 742 217 693 254 662L299 722C260 751 185 797 131 829ZM81 560 38 507C94 476 169 428 207 400L251 460C212 488 136 531 81 560ZM59 -24 126 -66C174 28 230 152 271 258L211 300C166 186 103 54 59 -24ZM411 516V723H951V791H338V517C338 352 327 125 214 -37C231 -44 263 -63 276 -76C395 92 411 342 411 516ZM721 -2V261H913V607H693L733 692L650 709C644 680 633 640 621 607H469V261H649V0C649 -11 645 -15 633 -16C620 -16 576 -16 529 -15C538 -34 547 -61 550 -79C616 -80 660 -80 687 -69C714 -58 721 -39 721 -2Z" /><path id="g400-7801" d="M792 205H410V137H792ZM791 781H443V712H778C770 624 757 502 745 401H537C546 476 556 569 561 645L491 650C484 551 471 417 458 336H863C844 117 822 28 796 2C786 -8 776 -10 758 -9C740 -9 696 -9 647 -4C659 -23 666 -52 668 -73C716 -76 763 -76 788 -74C818 -72 837 -65 856 -43C892 -7 914 98 937 368C938 379 940 401 940 401H816C832 525 848 675 856 779L803 785ZM365 479H181C208 554 229 635 245 718H394V787H51V718H173C145 565 100 423 29 328C41 308 58 266 63 247C82 272 100 300 116 329V-34H181V46H365ZM181 411H299V113H181Z" /><path id="g400-68c0" d="M807 530H468V465H807ZM456 370 397 355C425 279 453 179 461 113L523 131C514 195 486 294 456 370ZM650 391 591 383C609 307 626 208 631 142L694 153C688 218 670 315 650 391ZM248 840H179V650H49V580H172C145 448 89 293 33 211C45 193 63 159 71 138C111 200 149 300 179 404V-79H248V443C274 394 303 335 316 304L361 357C345 387 271 505 248 538V580H352V650H248ZM690 823 624 847C556 706 437 579 311 502C325 487 347 455 356 440C458 511 558 611 634 726C711 626 826 518 927 451C935 471 952 502 966 519C864 579 739 689 670 786ZM938 35H754C806 129 866 265 909 373L842 391C807 283 743 130 690 35H343V-32H938Z" /><path id="g400-67e5" d="M295 134V218H700V134ZM295 270V352H700V270ZM778 406H221V80H778ZM930 20H74V-48H930ZM534 840H460V713H57V647H379C293 553 158 467 36 424C52 410 74 383 85 365C221 419 369 524 460 642V437H534V643C626 528 776 424 914 373C925 391 947 420 964 434C838 473 702 556 615 647H944V713H534Z" /><path id="g400-6ea2" d="M847 807 773 836C752 785 712 713 681 668L741 641C774 684 813 749 847 807ZM430 839 368 811C403 759 444 686 464 641L528 674C508 718 466 787 430 839ZM937 623H278V555H937ZM694 528 659 480C741 434 848 364 902 319L939 374C883 418 774 485 694 528ZM121 822 73 778C130 738 198 678 230 640L281 689C246 728 177 784 121 822ZM86 558 39 511C97 472 168 416 200 378L250 431C215 469 144 522 86 558ZM68 -16 130 -51C167 41 210 167 241 271L184 306C151 194 103 62 68 -16ZM548 491 495 526C447 470 347 404 270 372C287 358 306 331 316 314C395 355 495 430 548 491ZM961 27H878V319H343V27H247V-40H961ZM405 27V256H503V27ZM558 27V256H658V27ZM713 27V256H812V27Z" /><path id="g400-62e5" d="M931 11V773H393V410C393 270 384 92 285 -33C301 -42 330 -66 342 -80C413 8 443 128 456 242H625V-61H695V242H859V12C859 -3 854 -7 841 -8C827 -8 782 -8 733 -7C743 -26 753 -58 756 -77C824 -77 869 -76 895 -65C922 -52 931 -30 931 11ZM464 704H625V540H464ZM859 704V540H695V704ZM464 410V472H625V309H461C463 344 464 378 464 410ZM859 472V309H695V472ZM239 14V298L352 335L342 404L239 371V568H352V638H239V839H167V638H42V568H167V349C114 333 66 319 28 309L47 235L167 274V14C167 0 162 -4 150 -4C138 -5 99 -5 56 -4C66 -24 75 -57 78 -75C141 -76 180 -73 204 -61C230 -49 239 -28 239 14Z" /><path id="g400-6324" d="M810 327H737V-72H810ZM548 211V330H476V212C476 139 452 41 305 -22C322 -32 348 -54 361 -68C519 3 548 117 548 211ZM633 842 567 823C583 793 599 757 610 725H344V657H447C480 575 526 510 587 459C518 424 435 402 339 387C351 371 366 339 371 321C478 342 572 372 648 416C724 371 816 342 929 325C937 345 956 374 972 390C869 402 783 424 712 460C773 509 820 573 849 657H946V725H688C676 760 654 806 633 842ZM772 657C747 589 705 537 650 497C592 538 549 591 519 657ZM233 16V305L329 343L316 411L233 380V568H330V638H233V840H160V638H47V568H160V353L36 309L55 237L160 277V16C160 3 156 0 144 0C133 -1 98 -1 58 1C68 -21 77 -53 80 -73C139 -73 176 -70 200 -58C224 -45 233 -24 233 16Z" /><path id="g400-5b57" d="M711 551H233V480H634C584 437 519 392 460 363V300H69V228H460V14C460 0 455 -4 437 -5C419 -6 354 -6 287 -3C299 -24 314 -57 319 -78C404 -78 457 -77 492 -66C528 -54 539 -32 539 13V228H930V300H539V337C627 384 717 451 779 516L728 555ZM497 847 424 824C443 798 462 765 475 736H80V529H155V664H843V529H920V736H563C549 770 523 815 497 847Z" /><path id="g400-53f7" d="M260 597V732H736V597ZM815 799H185V530H815ZM816 259H315L352 371H933V440H63V371H269C249 308 224 239 203 191H727C708 75 688 19 663 -1C652 -9 639 -10 615 -10C587 -10 514 -9 444 -2C458 -22 468 -52 470 -74C539 -78 606 -79 639 -77C678 -76 702 -70 726 -50C763 -18 788 57 812 225C814 236 816 259 816 259Z" /><path id="g400-37" d="M198 0H293C305 287 336 458 508 678V733H49V655H405C261 455 211 278 198 0Z" /><path id="g400-95ee" d="M167 615H93V-80H167ZM158 827 104 791C154 739 220 666 253 623L310 665C277 707 209 777 158 827ZM906 25V784H355V713H832V25C832 8 826 3 809 2C792 1 732 0 672 3C682 -18 694 -51 697 -72C778 -72 832 -72 865 -59C895 -46 906 -23 906 25ZM391 536H322V103H391V168H673V536ZM391 468H600V236H391Z" /><path id="g400-9898" d="M176 539V615H380V539ZM176 668V743H380V668ZM450 798H108V484H450ZM758 530H695C688 271 668 143 458 77C471 65 488 42 494 27C722 103 751 248 758 530ZM774 226 730 186C792 141 870 75 907 33L953 79C914 121 835 183 774 226ZM188 298 124 302C119 157 100 37 33 -41C49 -49 77 -68 88 -78C124 -30 148 29 164 99C254 -34 400 -57 614 -57H937C941 -39 952 -9 963 6C905 4 660 4 615 4C495 5 395 11 317 44V186H483V244H317V351H501V410H49V351H252V82C222 106 197 137 178 177C183 215 186 255 188 298ZM906 636H719C731 664 744 699 757 733H955V794H499V733H681C672 700 661 664 650 636H540V215H604V579H841V219H906Z" /><path id="g400-8fc7" d="M137 812 79 774C135 722 199 650 227 602L289 646C259 693 193 763 137 812ZM441 509 381 477C432 415 493 327 521 275L584 313C555 365 492 449 441 509ZM262 128V465H50V395H188V133C143 117 91 72 37 14L89 -57C140 12 189 71 222 71C245 71 277 37 319 11C389 -33 473 -43 597 -43C693 -43 870 -38 941 -34C942 -11 955 27 964 47C867 37 716 28 599 28C487 28 402 36 336 76C302 96 281 116 262 128ZM796 192V589H935V660H796V837H720V660H332V589H720V192C720 174 713 168 693 168C673 167 604 167 530 170C541 148 553 115 557 93C651 93 712 94 747 107C783 119 796 141 796 192Z" /><path id="g400-5c0f" d="M545 24V826H464V24C464 4 456 -2 436 -3C415 -4 343 -5 270 -2C282 -23 296 -59 301 -80C395 -81 457 -79 494 -66C530 -54 545 -31 545 24ZM777 598 705 571C791 427 872 240 895 121L976 154C950 274 865 458 777 598ZM285 577 202 591C176 457 121 284 32 178C53 169 85 151 103 138C194 250 252 430 285 577Z" /><path id="g400-5efa" d="M876 755H652V840H581V755H394V695H581V620H330V561H581V483H387V422H581V345H379V288H581V209H337V149H581V49H652V149H937V209H652V288H899V345H652V422H876V561H945V620H876ZM652 620V695H809V620ZM652 561H809V483H652ZM97 393C97 404 120 417 135 425H258C246 336 226 259 200 193C173 233 151 283 134 343L78 322C102 241 132 177 169 126C134 60 89 8 37 -30C53 -40 81 -66 92 -80C140 -43 183 7 218 70C323 -30 469 -55 653 -55H934C937 -35 951 -2 962 14C911 13 694 13 654 13C485 13 347 35 249 132C290 225 319 342 334 483L292 493L278 492H192C242 567 293 661 338 758L290 789L266 778H64V711H237C197 622 147 540 129 515C109 483 84 458 66 454C76 439 91 408 97 393Z" /><path id="g400-8bae" d="M605 820 542 793C582 726 624 637 640 582L708 613C691 668 647 754 605 820ZM167 812 113 771C158 724 212 658 238 616L294 663C269 704 213 766 167 812ZM909 766 832 778C799 570 747 383 640 233C539 372 478 554 442 766L371 754C414 517 479 320 589 170C519 91 428 25 311 -25C325 -42 346 -69 356 -87C473 -35 564 32 637 112C712 28 806 -37 922 -83C934 -63 958 -33 976 -18C858 24 764 89 688 173C809 334 869 538 909 766ZM187 -54C203 -34 229 -14 404 111C397 125 385 154 380 175L260 92V527H46V454H187V101C187 49 160 15 144 -1C157 -12 179 -38 187 -54Z" /><path id="g400-589e" d="M509 612 466 596C495 551 524 491 534 452L579 471C569 510 540 569 509 612ZM820 592 769 612C752 569 717 505 691 466L730 449C758 486 791 543 820 592ZM41 129 65 56C146 87 248 127 345 166L332 233L231 196V526H332V596H231V828H161V596H53V526H161V171ZM505 838 442 811C469 775 499 726 512 695L579 727C564 757 533 804 505 838ZM907 695H769C796 730 827 774 854 815L776 842C758 798 721 736 693 695H373V363H907ZM435 417V641H611V417ZM669 641H842V417H669ZM494 159V243H789V159ZM494 103H789V29H494ZM860 300H425V-77H494V-29H789V-77H860Z" /><path id="g400-5927" d="M542 839H461C460 760 461 659 446 553H62V476H433C393 286 293 92 43 -16C64 -32 88 -59 100 -79C344 34 453 226 501 420C580 191 708 14 902 -77C915 -56 940 -24 959 -8C764 73 633 255 563 476H942V553H526C540 658 541 758 542 839Z" /><path id="g400-5230" d="M711 754H641V148H711ZM912 37V824H839V37C839 20 834 15 817 15C800 14 745 14 686 16C698 -4 710 -38 714 -59C787 -59 840 -57 871 -44C901 -32 912 -10 912 37ZM62 42 78 -29C211 -4 401 32 579 67L575 133L365 94V251H565V318H365V425H294V318H97V251H294V81ZM434 675 379 643C404 613 430 577 454 543L198 521C238 575 279 642 313 708H585V774H71V708H230C197 637 157 574 142 554C125 530 110 513 94 510C103 490 114 455 119 439C143 450 180 454 493 484C507 461 519 440 528 422L585 460C556 517 490 608 434 675Z" /><path id="g400-31" d="M88 0H490V76H343V733H273C233 710 186 693 121 681V623H252V76H88Z" /><path id="g400-34" d="M340 0H426V202H524V275H426V733H325L20 262V202H340ZM340 275H115L282 525C303 561 323 598 341 633H345C343 596 340 536 340 500Z" /><path id="g400-70" d="M92 -229H184V-45L181 50C230 9 282 -13 331 -13C455 -13 567 94 567 280C567 448 491 557 351 557C288 557 227 521 178 480H176L167 543H92ZM316 64C280 64 232 78 184 120V406C236 454 283 480 328 480C432 480 472 400 472 279C472 145 406 64 316 64Z" /><path id="g400-91cd" d="M848 540H534V601H944V663H534V739C651 748 760 761 846 776L807 834C649 805 366 786 133 780C140 765 148 738 149 721C248 723 355 727 459 734V663H58V601H459V540H159V229H459V160H127V100H459V13H52V-48H949V13H534V100H886V160H534V229H848ZM232 284V360H459V284ZM534 360H772V284H534ZM232 411V486H459V411ZM534 486H772V411H534Z" /><path id="g400-65b0" d="M410 240 360 213C390 163 425 96 442 51L496 83C480 125 444 190 410 240ZM196 220 135 235C115 174 82 112 42 68C57 60 82 41 93 31C133 78 172 150 196 220ZM623 400V432H775V-75H848V432H958V502H623V693C728 710 843 736 926 766L865 821C793 791 665 762 553 744V400C553 267 545 95 460 -25C476 -34 506 -57 518 -71C610 59 623 256 623 400ZM282 844 214 827C229 799 245 765 258 735H61V672H503V735H335C322 767 301 810 282 844ZM320 17V273H507V339H320V443H519V507H392C410 550 430 603 447 652L377 667C365 621 342 553 323 507H46V443H251V339H50V273H251V18C251 8 249 5 239 5C228 4 197 4 162 5C171 -13 182 -41 184 -59C232 -59 267 -58 290 -47C313 -36 320 -18 320 17ZM187 665 126 651C146 606 161 546 165 507L229 525C225 563 207 622 187 665Z" /><path id="g400-540e" d="M95 -82C210 81 227 324 227 491H954V563H227V687C455 702 711 729 885 770L821 831C666 793 388 764 151 750V491C151 336 140 122 32 -30C50 -40 82 -66 95 -82ZM387 41V278H802V41ZM881 348H312V-81H387V-29H802V-79H881Z" /><path id="g400-6838" d="M936 342 858 370C772 201 580 56 348 -19C362 -34 383 -63 392 -81C517 -37 630 24 724 100C791 44 867 -25 906 -69L963 -19C922 26 844 91 777 145C841 204 894 270 936 342ZM683 844 613 822C634 785 652 739 662 703H401V634H592C558 576 502 485 482 464C466 447 438 440 417 436C424 419 436 382 439 364C458 371 487 376 666 389C592 314 499 247 399 201C412 187 433 160 442 143C617 229 770 372 856 525L785 549C769 517 748 486 724 455L555 446C592 501 639 578 674 634H957V703H727L741 708C734 745 708 802 683 844ZM264 840H192V647H58V577H188C157 440 96 281 33 197C46 179 65 146 73 124C116 188 159 290 192 397V-79H264V445C291 396 322 337 335 306L381 358C364 387 291 501 264 536V577H377V647H264Z" /><path id="g400-5bf9" d="M563 422 502 394C549 323 594 228 610 168L676 201C660 261 611 353 563 422ZM144 500 91 453C152 398 217 332 275 267C215 139 136 42 45 -18C63 -32 86 -60 98 -78C190 -12 268 80 329 203C374 147 411 94 435 49L495 104C466 156 419 218 364 281C410 396 443 533 460 695L411 709L398 706H70V635H378C363 527 339 430 307 344C254 399 198 453 144 500ZM839 22V527H959V599H839V840H765V599H482V527H765V22C765 4 758 -1 741 -2C724 -2 668 -3 605 0C615 -23 626 -58 630 -79C715 -79 766 -77 796 -64C827 -51 839 -28 839 22Z" /><path id="g400-4fee" d="M755 362 698 386C644 335 543 287 454 261C469 249 486 230 496 215C591 247 694 299 755 362ZM850 264 794 287C726 216 595 159 468 130C482 117 497 95 506 80C641 117 774 179 850 264ZM952 151 887 179C798 77 614 13 413 -16C428 -33 444 -59 452 -77C664 -39 852 32 952 151ZM370 561H306V78H370ZM885 734 871 731H590C606 761 621 792 633 823L565 841C523 733 451 629 371 563C387 552 416 530 428 518C458 546 488 579 516 616C545 574 584 532 633 494C554 452 462 424 371 407C384 393 400 366 407 350C507 371 605 404 690 454C756 412 836 378 930 356C939 373 958 402 972 416C887 432 813 459 750 492C827 548 890 620 928 712ZM553 668H832C798 613 749 566 692 528C630 570 584 619 553 668ZM153 -80H224V614C255 678 282 747 304 815L235 834C187 679 107 526 20 426C33 407 53 367 59 349C92 388 123 432 153 481Z" /><path id="g400-6539" d="M431 770H76V696H357V484H89V103C89 66 73 53 58 46C71 27 83 -10 88 -32C111 -13 148 6 439 117C435 134 431 166 430 188L165 93V410H429L424 404C440 392 470 363 482 350C508 385 531 425 553 469C581 361 616 264 663 180C602 96 523 32 416 -16C431 -33 453 -66 461 -84C563 -33 643 31 705 111C761 32 830 -32 915 -75C927 -56 950 -27 968 -12C879 28 808 94 751 177C817 286 859 420 886 585H952V655H626C643 710 658 768 670 827L596 840C565 676 510 517 431 413ZM602 585H808C787 453 755 343 706 251C657 345 622 455 598 574Z" /><path id="g400-679c" d="M848 792H159V394H461V309H62V240H400C310 144 167 58 36 15C53 -1 76 -28 88 -47C220 3 364 98 461 208V-80H540V213C639 106 785 9 914 -42C925 -23 948 5 965 21C839 63 694 148 601 240H939V309H540V394H848ZM236 459V563H461V459ZM540 563H767V459H540ZM236 625V727H461V625ZM540 727H767V625H540Z" /><path id="g400-b7" d="M606 380C606 439 559 486 500 486C441 486 394 439 394 380C394 321 441 274 500 274C559 274 606 321 606 380Z" /><path id="g700-4e0a" d="M532 837H403V81H43V-40H958V81H532V428H887V549H532Z" /><path id="g700-4e0b" d="M565 521 544 496V655H949V776H52V655H415V-87H544V391C645 333 760 260 818 208L907 318C830 380 673 467 565 521Z" /><path id="g700-6587" d="M540 860 412 822C435 779 458 722 469 681H44V564H202C256 423 326 302 416 202C312 121 182 64 25 25C48 -3 85 -59 98 -88C259 -41 394 26 505 116C611 27 740 -39 898 -81C917 -48 952 4 979 31C828 65 702 125 598 204C687 301 755 420 806 564H960V681H524L609 708C598 750 568 813 540 860ZM507 286C430 365 370 459 326 564H672C631 454 577 362 507 286Z" /><path id="g400-4efb" d="M944 31H677V340H960V412H677V691C767 708 852 729 920 752L864 815C741 771 523 731 337 706C345 689 356 661 359 642C437 651 520 663 601 677V412H304V340H601V31H343V-41H944ZM367 817 295 840C232 683 130 529 22 431C36 413 60 374 68 356C108 395 148 441 186 492V-80H260V603C301 671 338 744 367 817Z" /><path id="g400-52a1" d="M524 375 446 381C442 345 435 312 427 282H126V216H404C346 87 235 20 57 -14C70 -29 91 -62 98 -78C296 -31 420 53 484 216H788C771 84 751 23 728 4C717 -5 705 -6 684 -6C660 -6 595 -5 532 1C545 -18 554 -46 556 -66C616 -69 675 -70 706 -69C742 -67 765 -61 787 -41C822 -10 844 66 866 248C868 259 870 282 870 282H505C513 311 519 342 524 375ZM460 826 382 841C331 754 232 651 91 580C106 567 128 541 137 523C188 552 234 583 274 616C315 569 365 530 423 497C305 459 173 435 46 423C58 407 71 377 76 357C222 375 373 406 508 457C624 410 764 383 919 370C928 390 945 420 961 437C827 444 702 463 597 495C708 549 802 619 862 710L817 741L804 737H396C420 766 442 796 460 826ZM745 673C686 613 604 565 508 527C430 561 367 604 323 659L338 673Z" /><path id="g400-8d44" d="M123 804 85 752C158 725 249 678 294 643L334 701C287 737 195 780 123 804ZM49 495 71 427C151 453 254 486 351 519L339 585C231 550 123 516 49 495ZM830 372H182V93H256V302H752V100H830ZM547 273H473C444 107 367 19 50 -20C62 -36 78 -64 83 -82C421 -34 513 73 547 273ZM557 130 516 75C641 34 807 -31 892 -76L935 -14C848 30 681 92 557 130ZM860 747H519C534 773 546 800 556 826L484 836C458 766 407 682 325 621C342 612 366 590 378 574C421 609 455 648 484 689H602C571 585 505 493 326 445C340 432 359 407 366 390C504 431 584 497 632 578C695 493 793 428 905 397C914 416 934 442 950 456C825 484 716 550 661 636C667 653 673 671 678 689H827C812 656 795 623 781 600L846 581C871 620 901 681 927 736L872 751Z" /><path id="g400-6599" d="M109 777 54 762C80 692 103 600 108 540L168 555C161 615 137 706 109 777ZM443 763 377 780C363 712 334 613 311 553L360 538C386 594 418 688 443 763ZM554 769 516 717C573 682 642 627 674 589L714 647C681 684 611 735 554 769ZM500 518 465 465C524 433 597 382 632 346L669 405C634 441 560 488 500 518ZM442 504H278V837H208V504H47V434H188C152 323 89 191 31 121C44 102 61 69 69 48C119 115 170 225 208 333V-78H278V334C315 276 361 200 379 162L429 222C407 254 307 389 278 420V434H442ZM954 296 837 275V840H765V262L440 203L453 134L765 191V-79H837V204L966 227Z" /><path id="g400-5f53" d="M189 796 121 769C173 698 228 601 250 537L322 569C299 632 244 726 189 796ZM882 778 801 805C772 728 716 622 673 555L738 530C783 594 839 693 882 778ZM869 486H540V840H458V486H135V411H790V266H168V194H790V38H115V-37H790V-81H869Z" /><path id="g400-524d" d="M674 514H604V104H674ZM881 13V544H807V14C807 -1 802 -5 786 -5C769 -6 715 -6 654 -4C665 -24 677 -56 681 -76C758 -77 809 -75 839 -63C870 -51 881 -30 881 13ZM803 819 723 845C701 796 663 730 629 682H328L377 700C359 740 316 799 278 841L208 816C244 775 281 721 300 682H53V613H947V682H714C743 723 775 773 803 819ZM409 360H187V459H409ZM409 301V200H187V301ZM433 523H116V-75H187V141H409V7C409 -6 405 -10 391 -10C378 -11 332 -11 281 -9C291 -28 302 -57 307 -76C374 -76 419 -75 446 -63C474 -52 482 -32 482 6V523Z" /><path id="g400-63a5" d="M513 659 456 635C485 595 515 539 528 504L588 532C575 566 543 619 513 659ZM230 10V295L329 327L319 397L230 369V568H330V638H230V839H160V638H41V568H160V347C110 332 64 318 28 309L47 235L160 272V9C160 -4 155 -8 143 -8C132 -8 96 -8 57 -7C66 -27 76 -59 78 -77C136 -78 173 -75 196 -63C220 -51 230 -31 230 10ZM637 832 568 821C584 795 600 764 613 735H383V669H926V735H692C678 766 657 803 637 832ZM840 637 769 658C751 611 714 544 685 501H348V436H952V501H758C785 540 814 591 840 637ZM765 261C745 198 715 148 671 108C615 130 558 151 503 168C523 196 544 228 564 261ZM963 326H601C618 357 633 388 646 418L576 432C562 398 544 362 524 326H335V261H486C457 214 427 171 400 136C465 116 537 91 606 62C536 23 443 -1 320 -14C333 -30 345 -57 352 -78C496 -57 604 -24 682 29C764 -8 837 -47 886 -82L935 -25C886 9 817 44 742 78C788 126 820 186 840 261H963Z" /><path id="g400-6536" d="M654 828 577 840C548 666 495 502 409 401C425 386 453 353 463 338C493 375 519 418 543 466C574 361 613 264 662 180C604 96 527 30 426 -19C442 -35 466 -66 475 -81C570 -30 645 35 704 114C762 34 830 -31 912 -76C923 -57 947 -29 964 -15C878 27 806 95 747 178C811 285 853 416 881 574H955V645H611C628 703 643 765 654 828ZM588 574H805C784 447 751 338 703 247C651 339 611 446 583 559ZM398 825H324V270L170 219V729H96V236C96 197 76 178 61 169C73 152 87 119 92 100C111 116 141 130 324 196V-81H398Z" /><path id="g400-5b9a" d="M300 370 224 378C203 197 148 54 37 -33C55 -44 86 -69 98 -83C164 -25 213 51 247 144C339 -29 490 -64 698 -64H932C936 -42 949 -6 960 12C911 11 739 11 702 11C643 11 588 14 538 23V225H836V295H538V459H795V532H211V459H460V44C378 75 315 134 276 239C286 280 294 324 300 370ZM500 847 426 826C443 796 461 758 472 727H82V509H156V656H841V509H918V727H558C548 761 522 810 500 847Z" /><path id="g400-4f4d" d="M914 658H369V585H914ZM503 524 435 509C465 369 495 185 503 80L577 102C567 204 536 384 503 524ZM641 847 570 828C588 778 609 712 617 669L692 691C681 734 660 798 641 847ZM955 34H749C786 168 826 365 852 519L774 532C757 382 716 169 679 34H326V-38H955ZM180 -78H255V601C294 669 329 742 357 815L286 836C230 685 136 535 38 437C51 420 73 381 81 363C115 398 148 439 180 484Z" /><path id="g400-660e" d="M338 519H151V710H338ZM338 451V252H151V451ZM151 779H80V88H151V182H408V779ZM928 19V797H501V441C501 285 484 94 314 -35C330 -46 358 -71 369 -87C484 1 535 122 558 241H854V19C854 1 847 -5 829 -5C812 -6 749 -7 684 -4C695 -25 708 -57 711 -78C798 -78 852 -76 885 -64C917 -52 928 -28 928 19ZM854 727V554H574V727ZM574 440V486H854V309H568C573 354 574 399 574 440Z" /><path id="g400-786e" d="M513 318V349H645V230H510C512 261 513 290 513 318ZM711 230V349H855V230ZM780 757H589C599 780 609 803 617 826L552 843C508 720 434 604 348 528C362 514 385 485 393 471C410 487 427 504 443 523V318C443 205 432 62 335 -40C352 -48 381 -69 393 -81C458 -13 488 76 502 164H645V-44H711V164H855V10C855 -1 851 -5 839 -6C828 -6 788 -6 745 -5C754 -24 762 -53 764 -72C826 -72 869 -71 894 -60C919 -48 927 -28 927 10V585H744C779 628 816 681 840 727L792 760ZM645 409H513V520H645ZM711 409V520H855V409ZM513 585H492C516 619 539 656 559 694H739C717 656 690 615 664 585ZM361 479H186C211 554 232 635 247 718H393V787H56V718H175C148 565 105 424 35 328C47 308 65 266 69 247C88 272 105 299 121 329V-34H186V46H361ZM186 411H297V113H186Z" /><path id="g400-7684" d="M610 456 552 423C607 350 675 250 705 190L768 229C736 288 666 385 610 456ZM321 828 240 842C232 794 215 727 199 679H87V-54H156V25H435V679H268C285 722 304 778 321 828ZM156 612H366V401H156ZM156 93V335H366V93ZM670 828 598 844C566 706 512 568 443 479C461 469 492 448 506 436C540 484 572 545 600 613H856C844 212 828 58 796 24C784 10 773 7 753 7C730 7 670 8 604 13C618 -6 627 -38 629 -59C685 -62 744 -64 778 -61C814 -57 836 -49 859 -19C899 30 913 185 928 644C929 654 929 682 929 682H627C643 729 658 779 670 828Z" /><path id="g400-53cd" d="M865 770 804 831C660 790 394 765 169 754V488C169 332 160 115 55 -39C74 -47 106 -69 120 -83C224 70 244 297 246 462H313C359 330 424 221 511 134C423 68 320 21 213 -8C229 -24 248 -55 257 -75C370 -41 477 10 570 82C657 13 763 -38 890 -71C901 -50 921 -20 937 -5C815 22 712 68 628 131C729 227 808 353 852 517L801 539L786 535H246V690C463 700 704 726 865 770ZM754 462C713 349 649 256 568 182C489 257 429 351 389 462Z" /><path id="g400-9988" d="M882 401H417V89H487V340H810V89H882ZM705 89 671 40C751 9 850 -43 898 -82L935 -28C886 10 786 59 705 89ZM683 190V289H613V193C613 111 572 30 351 -23C364 -36 384 -66 391 -82C628 -22 683 84 683 190ZM329 685H191C202 731 211 778 219 826L151 839C129 691 90 545 29 450C45 441 74 418 85 406C120 463 150 537 173 619H302C286 569 266 518 248 483L304 463C334 515 365 599 389 672L341 688ZM151 -73C164 -54 189 -33 362 100C355 115 345 141 340 160L234 82V480H166V78C166 28 129 -8 109 -23C122 -34 143 -59 151 -73ZM893 773H688V839H619V773H422V581H619V516H371V457H961V516H688V581H893ZM485 634V720H619V634ZM688 720H827V634H688Z" /><path id="g400-6309" d="M772 379C755 284 723 210 675 151C622 181 567 209 516 234C538 278 561 327 583 379ZM959 447H611C630 497 648 547 662 594L587 605C573 556 553 501 531 447H355V379H502C474 315 444 256 417 210C482 178 553 139 623 99C557 45 470 9 358 -16C371 -32 389 -64 394 -81C518 -49 615 -4 688 61C773 10 850 -41 900 -82L954 -24C902 17 824 66 739 115C794 183 830 269 852 379H959ZM945 712H711C701 751 683 803 668 845L593 831C606 795 620 750 629 712H383V517H454V645H873V518H945ZM249 7V267L377 309L367 376L249 340V568H357V639H249V840H177V639H42V568H177V319L30 277L48 204L177 244V7C177 -8 171 -12 158 -12C145 -13 104 -13 58 -12C68 -32 79 -62 81 -80C147 -80 188 -78 214 -67C240 -55 249 -35 249 7Z" /><path id="g400-66f4" d="M252 238 188 212C222 154 264 108 313 71C252 36 166 7 47 -15C63 -32 83 -64 92 -81C222 -53 315 -16 382 28C519 -45 704 -67 937 -77C941 -52 955 -20 969 -2C745 3 572 18 443 76C495 127 522 185 534 247H873V634H545V719H935V787H65V719H467V634H156V247H455C443 199 420 154 374 114C326 145 285 186 252 238ZM545 369V411H798V309H543C544 329 545 349 545 369ZM228 309V411H467V370C467 349 467 329 465 309ZM545 571H798V471H545ZM228 471V571H467V471Z" /><path id="g400-76f8" d="M546 542V710H850V542ZM546 474H850V300H546ZM546 231H850V57H546ZM925 781H473V-74H546V-12H850V-70H925ZM287 840H214V626H52V554H205C170 416 99 258 29 175C41 157 60 127 68 107C122 176 175 287 214 402V-79H287V378C325 329 370 267 389 234L435 295C413 322 321 428 287 464V554H430V626H287Z" /><path id="g400-5173" d="M546 429V552H881V627H682C718 681 759 749 792 809L711 836C686 774 640 687 600 627H326L391 663C372 710 330 780 287 831L224 799C265 746 307 675 324 627H129V552H461V430C461 412 460 393 459 374H68V300H444C412 192 317 77 48 -13C68 -30 93 -62 102 -79C360 11 470 127 515 243C599 88 729 -21 907 -74C919 -51 942 -18 960 -1C777 44 640 152 565 300H935V374H544Z" /><path id="g400-9762" d="M389 395V506H601V395ZM389 334H601V221H389ZM389 160H601V43H389ZM176 43V506H320V43ZM820 43H670V506H820ZM945 774H58V702H444C437 661 426 614 416 576H104V-80H176V-27H820V-80H896V576H493L532 702H945Z" /><path id="g400-6807" d="M902 764H466V693H902ZM843 345 779 325C826 225 872 95 888 16L957 41C940 120 892 247 843 345ZM560 327 491 342C465 236 420 129 364 57C381 49 411 29 425 18C479 94 529 211 560 327ZM711 17V454H955V525H422V454H636V17C636 4 632 0 617 0C604 -1 558 -1 505 1C515 -22 526 -55 529 -76C599 -76 645 -74 674 -62C703 -49 711 -26 711 17ZM277 840H202V628H49V558H186C153 434 88 290 24 215C37 196 57 165 66 144C117 208 166 313 202 420V-79H277V444C311 395 351 333 368 301L412 360C392 388 306 498 277 531V558H408V628H277Z" /><path id="g400-51c6" d="M114 796 48 765C98 695 157 598 182 538L253 575C226 634 165 727 114 796ZM48 2 124 -33C170 62 226 191 268 303L202 339C156 220 93 84 48 2ZM435 461V595H646V461ZM435 395H646V262H435ZM670 833 607 805C635 761 667 701 681 661H452C476 710 497 762 515 814L445 831C395 677 311 528 211 433C227 421 255 394 266 381C300 417 334 459 365 506V-80H435V-9H954V59H719V196H912V262H719V395H913V461H719V595H934V661H686L749 693C734 731 702 789 670 833ZM435 196H646V59H435Z" /><path id="g400-8f6e" d="M723 828 644 842C601 724 511 577 374 472C390 460 414 434 426 417C534 504 615 612 671 717C735 604 825 491 906 425C919 444 943 470 960 483C869 548 765 674 708 791ZM868 364 817 427C757 379 666 320 586 276V472H511V58C511 -29 537 -53 635 -53C654 -53 786 -53 807 -53C894 -53 915 -15 924 123C903 128 872 141 855 153C851 36 844 15 802 15C774 15 664 15 642 15C594 15 586 21 586 58V198C675 241 786 307 868 364ZM40 167 56 94 232 128V-75H299V141L420 166L415 232L299 211V346H398L399 414H299V569H232V414H144C172 483 199 565 222 650H401V722H240C249 757 256 792 262 826L193 840C188 801 180 761 172 722H47V650H155C134 569 113 502 103 477C87 432 73 400 57 395C65 378 75 346 79 332C87 340 118 346 151 346H232V199Z" /><path id="g400-6b21" d="M102 771 57 717C125 679 210 619 250 578L298 639C256 680 170 735 102 771ZM42 73 111 21C173 111 249 227 308 329L250 379C185 270 100 146 42 73ZM862 670H493C508 720 522 772 533 825L454 840C422 680 366 524 289 426C309 417 345 397 360 384C401 441 437 514 467 596H837C818 527 787 451 763 403C781 395 811 380 827 371C862 440 906 546 932 644L877 674ZM649 484V547H569V485C569 342 547 124 240 -26C259 -39 285 -66 297 -84C494 15 582 143 620 265C676 106 766 -11 911 -73C921 -52 944 -22 961 -7C787 56 692 210 647 411C648 437 649 461 649 484Z" /><path id="g400-7ba1" d="M771 12H287V109H771ZM287 438H211V-81H287V-47H771V-79H845V168H287V237H792V438ZM507 637 440 623C451 603 462 580 470 559H101V394H174V500H839V394H915V559H547C538 584 522 614 507 637ZM287 380H719V295H287ZM240 830 167 844C142 756 99 672 43 615C62 607 94 590 108 580C137 613 165 656 189 703H258C280 666 301 621 310 591L374 614C366 638 349 672 330 703H484V758H214C224 782 233 806 240 830ZM663 829 590 842C572 770 537 698 492 651C510 643 541 626 554 616C575 640 595 669 612 702H683C713 665 742 619 755 589L816 616C805 640 784 672 761 702H940V758H638C648 781 656 805 663 829Z" /><path id="g400-7406" d="M476 411V540H629V411ZM694 540H847V411H694ZM476 602V728H629V602ZM694 728H847V602H694ZM967 22H700V160H933V228H700V346H919V794H407V346H623V228H395V160H623V22H318V-47H967ZM35 100 54 24C142 53 257 92 365 129L353 201L242 164V413H343V483H242V702H358V772H46V702H170V483H56V413H170V141Z" /><path id="g400-5386" d="M191 472V720H947V791H115V472C115 320 109 113 35 -35C53 -43 87 -64 101 -77C180 80 191 311 191 472ZM571 667H494C493 610 491 554 488 501H255V430H482C463 234 405 74 212 -20C229 -33 252 -58 262 -75C471 32 535 211 558 430H818C804 156 788 47 759 21C749 9 737 7 717 7C694 7 632 8 569 14C582 -7 592 -39 593 -61C654 -65 714 -66 746 -63C782 -60 803 -53 824 -27C861 13 878 135 894 466C895 476 896 501 896 501H564C568 554 569 610 571 667Z" /><path id="g400-53f2" d="M540 610H808V423H540ZM196 423V610H463V423ZM237 317 170 292C209 206 259 141 320 90C258 49 169 14 42 -13C59 -31 79 -63 88 -80C223 -48 318 -5 385 45C519 -35 697 -64 929 -78C934 -52 949 -19 964 -1C738 8 569 30 443 97C511 172 532 259 538 351H884V682H540V836H463V682H123V351H461C456 274 439 201 379 138C321 182 274 240 237 317Z" /><path id="g400-50cf" d="M707 769H525C537 788 548 807 558 826L487 839C445 755 366 649 256 571C272 561 294 539 305 523C324 537 341 552 358 567V413H513C465 371 394 329 287 296C303 283 321 262 330 249C420 278 486 313 534 350C550 335 564 320 577 303C509 242 384 180 287 151C301 139 320 118 329 103C417 135 530 197 604 259C614 241 622 222 628 204C549 123 403 46 278 10C292 -3 311 -27 322 -44C430 -7 556 63 642 141C651 78 640 24 618 3C604 -14 589 -16 569 -16C552 -16 528 -15 503 -12C514 -31 520 -59 520 -77C544 -78 566 -79 583 -79C619 -79 645 -72 670 -44C713 -3 727 104 694 209L743 232C779 124 841 28 921 -22C932 -5 954 21 970 34C893 76 831 163 799 259C837 279 876 301 909 322L858 370C812 337 738 291 675 259C653 307 621 352 577 387L600 413H898V629H685C714 664 743 703 765 741L721 773ZM485 710H666C649 681 628 651 607 629H420C444 656 466 683 485 710ZM425 470V571H603C598 542 588 507 563 470ZM665 571H828V470H637C655 507 663 542 665 571ZM333 815 262 836C209 685 122 535 29 437C43 420 65 381 73 363C103 395 131 432 159 473V-77H230V589C270 661 305 738 333 815Z" /><path id="g400-901a" d="M117 800 65 757C124 705 200 632 235 585L290 636C253 681 176 751 117 800ZM256 108V465H43V394H184V110C140 92 90 47 39 -8L86 -70C137 -2 186 56 220 56C243 56 277 22 318 -2C388 -45 471 -57 595 -57C703 -57 879 -51 949 -47C950 -27 961 7 969 26C866 16 714 8 596 8C485 8 400 15 333 56C298 79 276 97 256 108ZM855 803H364V744H786C745 713 693 681 644 658C595 680 544 700 499 717L451 674C513 651 586 619 647 589H363V71H434V237H603V75H671V237H845V146C845 134 841 130 828 129C816 129 774 129 726 130C735 113 744 88 747 69C814 69 857 69 883 80C909 91 917 109 917 146V589H786C765 601 740 614 711 628C786 667 862 719 917 771L870 807ZM845 531V443H671V531ZM434 443V531H603V443ZM434 387H603V296H434ZM845 387V296H671V387Z" /><path id="g400-6216" d="M736 837 692 791C753 761 827 716 863 681L909 734C872 767 797 811 736 837ZM62 66 77 -11C192 14 357 50 511 84L505 155C342 121 171 86 62 66ZM195 278V452H399V278ZM472 518H125V213H472ZM936 680H635C632 731 631 784 631 838H552C552 785 554 732 557 680H68V606H561C573 443 596 293 632 175C564 95 484 29 391 -22C408 -35 437 -65 449 -80C528 -32 599 26 661 94C706 -15 766 -81 843 -81C920 -81 948 -31 962 141C941 149 913 166 896 184C890 50 877 -3 850 -3C800 -3 755 60 719 164C793 264 853 381 897 516L822 534C790 430 746 337 692 255C667 353 649 473 639 606H936Z" /><path id="g400-8fbe" d="M144 819 80 787C128 727 181 645 202 593L270 630C248 682 193 761 144 819ZM662 837H585C583 770 582 705 577 643H323V570H569C546 395 487 247 316 160C334 148 357 120 367 102C505 175 577 286 615 419C714 316 821 191 876 109L939 157C876 249 746 392 635 501L645 570H942V643H653C658 706 660 771 662 837ZM262 124V467H47V394H187V130C142 112 89 65 36 5L87 -64C139 8 189 70 222 70C245 70 277 34 319 7C389 -40 472 -51 599 -51C691 -51 874 -45 941 -41C943 -19 955 18 964 38C869 27 721 19 601 19C486 19 402 26 336 69C302 91 281 112 262 124Z" /><path id="g400-8fed" d="M130 803 72 764C126 714 190 645 219 599L279 643C249 688 183 756 130 803ZM248 110V483H49V413H176V103C133 85 85 46 38 -1L85 -64C137 -2 188 51 223 51C246 51 278 21 320 -2C391 -42 476 -52 595 -52C692 -52 868 -47 941 -42C942 -21 953 14 961 33C864 22 714 15 597 15C488 15 401 21 337 58C295 80 271 101 248 110ZM666 560V615H900V684H666V840H592V684H467C481 721 493 761 503 801L431 815C406 708 361 602 302 534C321 526 354 509 369 499C394 531 417 571 437 615H592V560C592 527 591 493 587 457H305V389H573C547 290 481 192 326 122C343 109 365 82 375 65C513 131 586 218 625 310C717 234 813 141 857 74L915 122C861 197 747 301 647 377L650 389H939V457H661C665 492 666 527 666 560Z" /><path id="g400-4ee3" d="M769 819 715 783C773 733 844 663 877 618L934 658C901 703 829 771 769 819ZM623 826H548C552 720 559 620 568 528L324 497L335 426L576 456C614 141 694 -68 860 -79C913 -82 953 -30 975 143C960 150 927 168 912 183C902 66 886 8 857 9C750 20 684 200 650 466L955 504L944 575L642 537C632 626 626 724 623 826ZM199 -78H276V604C317 669 354 737 384 807L313 830C247 671 136 518 21 420C34 404 57 365 65 348C111 390 156 439 199 494Z" /><path id="g400-9884" d="M741 294V495H670V296C670 193 647 58 410 -21C427 -35 447 -60 456 -75C710 18 741 168 741 294ZM775 134 725 88C788 38 869 -34 908 -79L960 -26C920 17 837 86 775 134ZM129 656 88 608C149 567 227 512 282 470H38V403H203V10C203 -3 199 -6 184 -7C170 -7 124 -7 72 -6C83 -27 93 -57 96 -77C165 -77 210 -77 238 -65C267 -53 275 -32 275 9V403H382C364 349 344 294 326 256L384 241C410 295 441 383 467 460L420 473L409 470H341L361 496C338 514 306 538 270 562C329 616 394 693 437 764L391 796L378 792H59V725H328C297 679 256 631 219 597ZM919 628H724L759 728H959V796H464V728H677C670 696 660 659 651 628H500V152H570V559H846V154H919Z" /><path id="g400-7b97" d="M252 398V457H764V398ZM252 290V350H764V290ZM252 505V562H764V505ZM387 172V239H642V152H386ZM648 828 576 845C548 768 497 695 436 647C452 639 480 624 495 613H296L353 634C346 653 331 680 315 704H487V766H223C234 786 244 806 253 826L183 845C151 767 96 689 35 638C52 628 82 608 96 596C127 625 158 663 185 704H237C257 674 277 638 287 613H177V239H311V174L310 152H56V90H286C258 48 198 6 72 -25C88 -39 109 -65 119 -81C279 -35 346 28 372 90H642V-78H719V90H948V152H719V239H842V613H740L796 639C786 658 768 681 748 704H940V766H620C631 786 640 807 648 828ZM505 613C532 638 559 669 583 704H663C690 674 717 638 731 613Z" /><path id="g700-5b9e" d="M586 154 530 66C658 28 789 -33 866 -85L939 10C858 59 716 118 586 154ZM302 623 232 545C284 515 348 467 376 434L451 520C419 554 354 597 302 623ZM198 475 130 395C183 366 249 321 279 287L351 377C318 409 251 451 198 475ZM927 756H588C573 790 551 830 531 862L410 825C422 804 434 780 445 756H77V526H196V644H802V526H927ZM938 274H575C600 367 606 476 610 601H483C479 470 476 362 446 274H68V174H392C334 103 238 51 76 15C101 -11 131 -57 143 -88C364 -34 478 53 539 174H938Z" /><path id="g700-9a8c" d="M20 168 40 74C114 91 202 112 287 133L278 220C183 200 87 180 20 168ZM552 373 461 349C483 274 507 176 514 112L611 139C601 202 577 299 552 373ZM726 390 634 377C650 302 668 204 672 139L768 155C762 219 744 314 726 390ZM187 640 85 646C81 533 71 383 58 292H318C308 116 297 43 279 24C269 14 260 12 244 12C225 12 183 13 139 17C155 -10 167 -50 169 -79C217 -81 264 -81 291 -78C323 -74 346 -66 367 -40C397 -5 410 93 422 343C423 356 424 386 424 386H347C352 432 357 488 361 547C368 635 374 730 378 813H46V712H273C267 598 258 474 247 385H169C176 465 183 560 187 640ZM757 825 652 861C590 733 478 617 361 547C381 524 416 473 429 449C463 472 496 499 529 529V443H839V520C869 495 900 472 930 452C941 485 964 541 984 571C896 618 797 700 731 777ZM670 685C712 637 761 588 811 544H545C590 587 633 634 670 685ZM957 56H838C879 142 924 259 959 361L851 384C827 284 780 148 738 56H436V-46H957Z" /><path id="g700-8bb0" d="M182 834 102 760C159 709 234 635 267 588L353 673C315 718 238 787 182 834ZM195 -78C213 -56 245 -30 417 95C404 119 388 168 381 201L303 147V543H38V428H184V120C184 66 155 27 133 9C152 -9 184 -53 195 -78ZM912 785H413V666H791V462H434V91C434 -38 476 -73 610 -73C638 -73 768 -73 798 -73C922 -73 957 -24 972 149C938 158 886 178 858 199C851 65 843 42 789 42C758 42 649 42 623 42C567 42 558 49 558 92V349H791V300H912Z" /><path id="g700-5f55" d="M196 368 116 295C179 259 260 204 297 166L382 248C341 286 258 337 196 368ZM558 373H790C750 332 689 281 635 242C605 276 579 313 558 352ZM52 73 118 -35C210 2 324 51 435 100V26C435 12 429 8 413 8C398 7 340 7 292 10C308 -19 326 -62 333 -93C409 -94 463 -92 504 -77C545 -61 558 -34 558 23V166C639 66 744 -9 876 -53C894 -20 929 28 956 52C862 77 780 117 713 170C771 206 838 254 896 301L797 373H943V477H821C831 580 838 696 839 800L743 805L721 801H121V691H705L703 638H154V531H697L694 477H61V373H435V215C294 160 147 105 52 73Z" /><path id="g400-32" d="M44 0H505V79H296C259 79 215 75 176 72C350 235 470 382 470 531C470 661 387 746 256 746C164 746 101 702 42 637L93 587C134 636 185 672 245 672C336 672 380 611 380 527C380 402 277 255 44 58Z" /><path id="g400-30" d="M278 -13C417 -13 506 113 506 369C506 623 417 746 278 746C138 746 50 623 50 369C50 113 138 -13 278 -13ZM278 61C195 61 138 154 138 369C138 583 195 674 278 674C361 674 418 583 418 369C418 154 361 61 278 61Z" /><path id="g400-4e24" d="M406 698H589V559H406ZM901 15V559H662V698H942V770H60V698H333V559H101V-81H176V489H332C327 371 302 223 187 114C205 102 229 78 241 62C313 134 354 218 377 302C408 260 439 215 455 184L500 243C479 281 436 338 395 387C400 422 403 457 405 489H588C583 371 558 223 443 114C461 102 485 78 497 62C570 135 611 221 634 306C687 240 741 165 769 115L814 173C782 230 714 318 651 389C656 423 659 457 661 489H826V16C826 0 820 -6 801 -6C781 -7 714 -8 643 -5C654 -26 665 -59 668 -81C758 -81 819 -80 855 -68C890 -55 901 -32 901 15Z" /><path id="g400-7ec4" d="M48 58 63 -14C157 10 282 42 401 73L394 137C266 106 134 76 48 58ZM872 790H481V11H380V-58H959V11H872ZM553 11V207H798V11ZM553 535V721H798V535ZM553 466H798V274H553ZM73 182C94 194 129 204 401 259C399 274 400 301 402 321L182 281C265 370 346 480 415 591L355 628C334 591 311 555 288 520L143 505C207 591 269 701 318 808L249 840C204 719 125 588 102 555C79 521 60 497 42 493C50 473 62 438 66 423C81 430 105 436 242 454C193 388 150 335 130 315C97 278 71 253 49 249C58 231 69 197 73 182Z" /><path id="g400-5ba1" d="M506 847 429 826C445 798 463 761 474 733H83V570H158V661H839V570H917V733H544L560 738C550 767 526 813 506 847ZM217 355V465H460V355ZM217 290H460V177H217ZM780 355H538V465H780ZM780 290V177H538V290ZM538 628H460V531H145V54H217V110H460V-78H538V110H780V59H855V531H538Z" /><path id="g400-5747" d="M376 151 404 79C503 114 637 161 762 207L749 274C613 227 469 179 376 151ZM518 516 464 474C529 429 603 362 637 315L694 363C659 410 583 473 518 516ZM583 824 507 840C477 725 432 611 373 523C358 502 343 482 327 464C346 454 379 430 393 418C433 468 471 532 504 604H859C849 195 837 42 806 9C795 -4 784 -8 764 -7C740 -7 679 -7 613 -2C627 -23 636 -55 637 -77C698 -80 759 -82 795 -78C830 -74 853 -66 875 -36C913 12 924 171 935 635C935 646 935 675 935 675H534C553 723 569 773 583 824ZM34 154 55 77C151 109 277 150 395 191L384 261L250 219V523H373V595H250V826H177V595H52V523H177V196C123 179 74 165 34 154Z" /><path id="g400-4e3a" d="M226 812 162 784C202 737 247 673 267 632L335 665C314 706 267 768 226 812ZM561 401 499 371C550 310 609 226 635 173L701 209C674 261 613 342 561 401ZM487 719V838H411V719C411 682 410 641 407 599H82V524H399C374 346 295 145 54 -11C73 -23 101 -49 114 -66C370 104 452 328 476 524H821C807 184 791 50 761 19C750 7 739 4 717 5C693 5 630 5 562 11C577 -11 587 -44 588 -67C650 -70 713 -72 748 -69C785 -65 808 -57 831 -28C870 18 884 159 900 560C900 572 901 599 901 599H484C486 641 487 682 487 719Z" /><path id="g400-39" d="M235 -13C372 -13 501 101 501 398C501 631 395 746 254 746C140 746 44 651 44 508C44 357 124 278 246 278C307 278 370 313 415 367C408 140 326 63 232 63C184 63 140 84 108 119L58 62C99 19 155 -13 235 -13ZM414 444C365 374 310 346 261 346C174 346 130 410 130 508C130 609 184 675 255 675C348 675 404 595 414 444Z" /><path id="g400-35" d="M262 -13C385 -13 502 78 502 238C502 400 402 472 281 472C237 472 204 461 171 443L190 655H466V733H110L86 391L135 360C177 388 208 403 257 403C349 403 409 341 409 236C409 129 340 63 253 63C168 63 114 102 73 144L27 84C77 35 147 -13 262 -13Z" /><path id="g400-5206" d="M673 822 604 794C675 646 795 483 900 393C915 414 942 441 961 456C857 534 735 687 673 822ZM403 798 324 820C266 666 164 528 43 442C62 428 94 399 108 384C135 406 161 430 187 457V388H380C357 218 302 59 65 -19C82 -35 102 -64 111 -83C366 9 432 190 459 388H731C720 138 705 40 680 14C670 4 658 2 637 2C614 2 552 2 487 8C501 -13 510 -45 512 -67C575 -71 637 -72 670 -69C705 -66 727 -59 748 -34C783 5 796 119 811 426C812 436 812 462 812 462H192C277 553 352 670 403 798Z" /><path id="g400-5cf0" d="M828 757H634C646 778 657 800 667 822L597 840C555 739 477 649 390 591C405 578 429 548 439 534C475 561 510 593 543 629C565 594 595 559 631 525C557 473 470 435 383 414C397 400 414 373 422 355C515 382 605 423 684 481C747 433 825 393 918 368C928 387 949 416 964 431C875 451 800 485 739 525C803 583 855 654 889 739L842 759ZM596 696H791C764 648 727 604 684 567C642 603 609 642 585 682ZM715 416H642V352H457V294H642V229H463V171H642V98H417V37H642V-80H715V37H939V98H715V171H898V229H715V294H901V352H715ZM253 830H192V123L129 118V673H70V52L317 72V34H374V674H317V133L253 128Z" /><path id="g400-503c" d="M679 835 599 840C596 810 591 774 586 738H329V671H574C568 637 562 605 555 578H382V14H286V-51H958V14H869V578H624C632 605 639 637 647 671H928V738H661ZM450 14V97H799V14ZM450 435V519H799V435ZM450 379H799V293H450ZM450 239H799V152H450ZM333 817 264 839C211 687 124 538 32 440C45 422 67 383 74 366C103 398 132 434 159 474V-80H229V588C269 661 305 739 333 817Z" /><path id="g400-4e0a" d="M506 825H427V43H51V-32H950V43H506V441H881V516H506Z" /><path id="g400-4e0b" d="M534 527 520 511V691H946V766H55V691H441V-79H520V451C635 389 769 306 839 250L891 319C812 379 653 469 534 527Z" /><path id="g400-7ea6" d="M40 53 52 -20C154 2 293 29 427 56L422 122C281 95 135 68 40 53ZM549 457 498 415C571 350 655 258 691 196L747 243C709 306 624 394 549 457ZM68 184C91 196 127 204 413 251C410 266 409 295 410 315L173 280C256 369 338 479 407 590L345 628C324 591 301 553 276 517L140 505C204 590 267 699 316 807L245 836C199 716 120 589 97 556C73 522 55 500 36 495C45 476 57 440 61 424C76 432 100 437 231 452C184 388 142 337 123 317C91 281 66 256 44 252C53 233 64 199 68 184ZM638 825 566 840C534 704 478 568 409 481C426 471 458 450 472 439C502 480 530 530 555 586H849C838 193 824 43 794 9C783 -3 772 -7 753 -6C729 -6 672 -6 609 0C622 -21 632 -51 633 -72C689 -76 747 -77 780 -73C815 -70 837 -62 859 -33C897 15 909 166 922 618C922 628 923 656 923 656H584C604 710 623 767 638 825Z" /><path id="g400-2f" d="M11 -179H78L377 794H311Z" /><path id="g400-33" d="M263 -13C394 -13 499 65 499 196C499 297 430 361 344 382V387C422 414 474 474 474 563C474 679 384 746 260 746C176 746 111 709 56 659L105 601C147 643 198 672 257 672C334 672 381 626 381 556C381 477 330 416 178 416V346C348 346 406 288 406 199C406 115 345 63 257 63C174 63 119 103 76 147L29 88C77 35 149 -13 263 -13Z" /></defs></svg>
