<svg xmlns="http://www.w3.org/2000/svg" width="106mm" height="122.489mm" viewBox="0 0 900 1040" role="img" aria-labelledby="title desc">
<title id="title">工具调用 RL 奖励循环</title><desc id="desc">模型决策、Harness调度、工具执行和训练反馈分别表示。</desc>
<defs><marker id="arrow" viewBox="0 0 10 10" refX="9" refY="5" markerWidth="7" markerHeight="7" orient="auto-start-reverse"><path d="M0 0 L10 5 L0 10 Z" fill="#333333" /></marker></defs>
<rect width="900" height="1040" fill="#ffffff" y="0" />
<rect x="20" y="20" width="860" height="110" rx="6" fill="#ffffff" stroke="#333333" stroke-width="1.8" />
<rect x="20" y="20" width="860" height="48" rx="6" fill="#dedede" stroke="#333333" stroke-width="1.8" />
<g aria-label="策略模型 πθ" fill="#292929" data-font="Source Han Sans CN 700" data-size="28.0"><use href="#g700-7b56" transform="translate(372.342 53) scale(0.028 -0.028)" /><use href="#g700-7565" transform="translate(400.342 53) scale(0.028 -0.028)" /><use href="#g700-6a21" transform="translate(428.342 53) scale(0.028 -0.028)" /><use href="#g700-578b" transform="translate(456.342 53) scale(0.028 -0.028)" /><use href="#g700-20" transform="translate(484.342 53) scale(0.028 -0.028)" /><use href="#g700-3c0" transform="translate(490.698 53) scale(0.028 -0.028)" /><use href="#g700-3b8" transform="translate(510.438 53) scale(0.028 -0.028)" /></g><g aria-label="根据任务与上下文生成调用：搜索 / 代码 / 文档 / 回答" fill="#292929" data-font="Source Han Sans CN 400" data-size="26.0"><use href="#g400-6839" transform="translate(144.240 100) scale(0.026 -0.026)" /><use href="#g400-636e" transform="translate(170.240 100) scale(0.026 -0.026)" /><use href="#g400-4efb" transform="translate(196.240 100) scale(0.026 -0.026)" /><use href="#g400-52a1" transform="translate(222.240 100) scale(0.026 -0.026)" /><use href="#g400-4e0e" transform="translate(248.240 100) scale(0.026 -0.026)" /><use href="#g400-4e0a" transform="translate(274.240 100) scale(0.026 -0.026)" /><use href="#g400-4e0b" transform="translate(300.240 100) scale(0.026 -0.026)" /><use href="#g400-6587" transform="translate(326.240 100) scale(0.026 -0.026)" /><use href="#g400-751f" transform="translate(352.240 100) scale(0.026 -0.026)" /><use href="#g400-6210" transform="translate(378.240 100) scale(0.026 -0.026)" /><use href="#g400-8c03" transform="translate(404.240 100) scale(0.026 -0.026)" /><use href="#g400-7528" transform="translate(430.240 100) scale(0.026 -0.026)" /><use href="#g400-ff1a" transform="translate(456.240 100) scale(0.026 -0.026)" /><use href="#g400-641c" transform="translate(482.240 100) scale(0.026 -0.026)" /><use href="#g400-7d22" transform="translate(508.240 100) scale(0.026 -0.026)" /><use href="#g400-20" transform="translate(534.240 100) scale(0.026 -0.026)" /><use href="#g400-2f" transform="translate(540.064 100) scale(0.026 -0.026)" /><use href="#g400-20" transform="translate(550.256 100) scale(0.026 -0.026)" /><use href="#g400-4ee3" transform="translate(556.080 100) scale(0.026 -0.026)" /><use href="#g400-7801" transform="translate(582.080 100) scale(0.026 -0.026)" /><use href="#g400-20" transform="translate(608.080 100) scale(0.026 -0.026)" /><use href="#g400-2f" transform="translate(613.904 100) scale(0.026 -0.026)" /><use href="#g400-20" transform="translate(624.096 100) scale(0.026 -0.026)" /><use href="#g400-6587" transform="translate(629.920 100) scale(0.026 -0.026)" /><use href="#g400-6863" transform="translate(655.920 100) scale(0.026 -0.026)" /><use href="#g400-20" transform="translate(681.920 100) scale(0.026 -0.026)" /><use href="#g400-2f" transform="translate(687.744 100) scale(0.026 -0.026)" /><use href="#g400-20" transform="translate(697.936 100) scale(0.026 -0.026)" /><use href="#g400-56de" transform="translate(703.760 100) scale(0.026 -0.026)" /><use href="#g400-7b54" transform="translate(729.760 100) scale(0.026 -0.026)" /></g><path d="M450 130 L450 165" fill="none" stroke="#333333" stroke-width="1.8" marker-end="url(#arrow)" />
<path d="M20 220 L12 220 L12 100 L20 100" fill="none" stroke="#333333" stroke-width="1.8" marker-end="url(#arrow)" />
<rect x="20" y="165" width="860" height="110" rx="6" fill="#ffffff" stroke="#333333" stroke-width="1.8" />
<rect x="20" y="165" width="860" height="48" rx="6" fill="#dedede" stroke="#333333" stroke-width="1.8" />
<g aria-label="Harness" fill="#292929" data-font="Source Han Sans CN 700" data-size="28.0"><use href="#g700-48" transform="translate(394.056 198) scale(0.028 -0.028)" /><use href="#g700-61" transform="translate(415.252 198) scale(0.028 -0.028)" /><use href="#g700-72" transform="translate(431.800 198) scale(0.028 -0.028)" /><use href="#g700-6e" transform="translate(444.008 198) scale(0.028 -0.028)" /><use href="#g700-65" transform="translate(461.956 198) scale(0.028 -0.028)" /><use href="#g700-73" transform="translate(478.224 198) scale(0.028 -0.028)" /><use href="#g700-73" transform="translate(492.084 198) scale(0.028 -0.028)" /></g><g aria-label="组织上下文 · 校验参数与权限 · 调度工具 · 记录轨迹" fill="#292929" data-font="Source Han Sans CN 400" data-size="26.0"><use href="#g400-7ec4" transform="translate(133.528 245) scale(0.026 -0.026)" /><use href="#g400-7ec7" transform="translate(159.528 245) scale(0.026 -0.026)" /><use href="#g400-4e0a" transform="translate(185.528 245) scale(0.026 -0.026)" /><use href="#g400-4e0b" transform="translate(211.528 245) scale(0.026 -0.026)" /><use href="#g400-6587" transform="translate(237.528 245) scale(0.026 -0.026)" /><use href="#g400-20" transform="translate(263.528 245) scale(0.026 -0.026)" /><use href="#g400-b7" transform="translate(269.352 245) scale(0.026 -0.026)" /><use href="#g400-20" transform="translate(295.352 245) scale(0.026 -0.026)" /><use href="#g400-6821" transform="translate(301.176 245) scale(0.026 -0.026)" /><use href="#g400-9a8c" transform="translate(327.176 245) scale(0.026 -0.026)" /><use href="#g400-53c2" transform="translate(353.176 245) scale(0.026 -0.026)" /><use href="#g400-6570" transform="translate(379.176 245) scale(0.026 -0.026)" /><use href="#g400-4e0e" transform="translate(405.176 245) scale(0.026 -0.026)" /><use href="#g400-6743" transform="translate(431.176 245) scale(0.026 -0.026)" /><use href="#g400-9650" transform="translate(457.176 245) scale(0.026 -0.026)" /><use href="#g400-20" transform="translate(483.176 245) scale(0.026 -0.026)" /><use href="#g400-b7" transform="translate(489.000 245) scale(0.026 -0.026)" /><use href="#g400-20" transform="translate(515.000 245) scale(0.026 -0.026)" /><use href="#g400-8c03" transform="translate(520.824 245) scale(0.026 -0.026)" /><use href="#g400-5ea6" transform="translate(546.824 245) scale(0.026 -0.026)" /><use href="#g400-5de5" transform="translate(572.824 245) scale(0.026 -0.026)" /><use href="#g400-5177" transform="translate(598.824 245) scale(0.026 -0.026)" /><use href="#g400-20" transform="translate(624.824 245) scale(0.026 -0.026)" /><use href="#g400-b7" transform="translate(630.648 245) scale(0.026 -0.026)" /><use href="#g400-20" transform="translate(656.648 245) scale(0.026 -0.026)" /><use href="#g400-8bb0" transform="translate(662.472 245) scale(0.026 -0.026)" /><use href="#g400-5f55" transform="translate(688.472 245) scale(0.026 -0.026)" /><use href="#g400-8f68" transform="translate(714.472 245) scale(0.026 -0.026)" /><use href="#g400-8ff9" transform="translate(740.472 245) scale(0.026 -0.026)" /></g><path d="M450 275 L450 310" fill="none" stroke="#333333" stroke-width="1.8" marker-end="url(#arrow)" />
<rect x="20" y="310" width="860" height="110" rx="6" fill="#ffffff" stroke="#333333" stroke-width="1.8" />
<rect x="20" y="310" width="860" height="48" rx="6" fill="#dedede" stroke="#333333" stroke-width="1.8" />
<g aria-label="工具与环境" fill="#292929" data-font="Source Han Sans CN 700" data-size="28.0"><use href="#g700-5de5" transform="translate(380.000 343) scale(0.028 -0.028)" /><use href="#g700-5177" transform="translate(408.000 343) scale(0.028 -0.028)" /><use href="#g700-4e0e" transform="translate(436.000 343) scale(0.028 -0.028)" /><use href="#g700-73af" transform="translate(464.000 343) scale(0.028 -0.028)" /><use href="#g700-5883" transform="translate(492.000 343) scale(0.028 -0.028)" /></g><g aria-label="执行 API 调用或沙箱代码 → 返回结果 / 错误 / 状态" fill="#292929" data-font="Source Han Sans CN 400" data-size="26.0"><use href="#g400-6267" transform="translate(162.570 390) scale(0.026 -0.026)" /><use href="#g400-884c" transform="translate(188.570 390) scale(0.026 -0.026)" /><use href="#g400-20" transform="translate(214.570 390) scale(0.026 -0.026)" /><use href="#g400-41" transform="translate(220.394 390) scale(0.026 -0.026)" /><use href="#g400-50" transform="translate(236.202 390) scale(0.026 -0.026)" /><use href="#g400-49" transform="translate(252.660 390) scale(0.026 -0.026)" /><use href="#g400-20" transform="translate(260.278 390) scale(0.026 -0.026)" /><use href="#g400-8c03" transform="translate(266.102 390) scale(0.026 -0.026)" /><use href="#g400-7528" transform="translate(292.102 390) scale(0.026 -0.026)" /><use href="#g400-6216" transform="translate(318.102 390) scale(0.026 -0.026)" /><use href="#g400-6c99" transform="translate(344.102 390) scale(0.026 -0.026)" /><use href="#g400-7bb1" transform="translate(370.102 390) scale(0.026 -0.026)" /><use href="#g400-4ee3" transform="translate(396.102 390) scale(0.026 -0.026)" /><use href="#g400-7801" transform="translate(422.102 390) scale(0.026 -0.026)" /><use href="#g400-20" transform="translate(448.102 390) scale(0.026 -0.026)" /><use href="#g400-2192" transform="translate(453.926 390) scale(0.026 -0.026)" /><use href="#g400-20" transform="translate(479.926 390) scale(0.026 -0.026)" /><use href="#g400-8fd4" transform="translate(485.750 390) scale(0.026 -0.026)" /><use href="#g400-56de" transform="translate(511.750 390) scale(0.026 -0.026)" /><use href="#g400-7ed3" transform="translate(537.750 390) scale(0.026 -0.026)" /><use href="#g400-679c" transform="translate(563.750 390) scale(0.026 -0.026)" /><use href="#g400-20" transform="translate(589.750 390) scale(0.026 -0.026)" /><use href="#g400-2f" transform="translate(595.574 390) scale(0.026 -0.026)" /><use href="#g400-20" transform="translate(605.766 390) scale(0.026 -0.026)" /><use href="#g400-9519" transform="translate(611.590 390) scale(0.026 -0.026)" /><use href="#g400-8bef" transform="translate(637.590 390) scale(0.026 -0.026)" /><use href="#g400-20" transform="translate(663.590 390) scale(0.026 -0.026)" /><use href="#g400-2f" transform="translate(669.414 390) scale(0.026 -0.026)" /><use href="#g400-20" transform="translate(679.606 390) scale(0.026 -0.026)" /><use href="#g400-72b6" transform="translate(685.430 390) scale(0.026 -0.026)" /><use href="#g400-6001" transform="translate(711.430 390) scale(0.026 -0.026)" /></g><path d="M880 365 L893 365 L893 220 L880 220" fill="none" stroke="#333333" stroke-width="1.8" marker-end="url(#arrow)" />
<path d="M225 420 L225 455" fill="none" stroke="#333333" stroke-width="1.8" marker-end="url(#arrow)" />
<rect x="20" y="455" width="410" height="140" rx="6" fill="#ffffff" stroke="#333333" stroke-width="1.8" />
<rect x="20" y="455" width="410" height="48" rx="6" fill="#dedede" stroke="#333333" stroke-width="1.8" />
<g aria-label="奖励计算" fill="#292929" data-font="Source Han Sans CN 700" data-size="28.0"><use href="#g700-5956" transform="translate(169.000 488) scale(0.028 -0.028)" /><use href="#g700-52b1" transform="translate(197.000 488) scale(0.028 -0.028)" /><use href="#g700-8ba1" transform="translate(225.000 488) scale(0.028 -0.028)" /><use href="#g700-7b97" transform="translate(253.000 488) scale(0.028 -0.028)" /></g><g aria-label="验证任务结果与路径" fill="#292929" data-font="Source Han Sans CN 400" data-size="26.0"><use href="#g400-9a8c" transform="translate(108.000 535) scale(0.026 -0.026)" /><use href="#g400-8bc1" transform="translate(134.000 535) scale(0.026 -0.026)" /><use href="#g400-4efb" transform="translate(160.000 535) scale(0.026 -0.026)" /><use href="#g400-52a1" transform="translate(186.000 535) scale(0.026 -0.026)" /><use href="#g400-7ed3" transform="translate(212.000 535) scale(0.026 -0.026)" /><use href="#g400-679c" transform="translate(238.000 535) scale(0.026 -0.026)" /><use href="#g400-4e0e" transform="translate(264.000 535) scale(0.026 -0.026)" /><use href="#g400-8def" transform="translate(290.000 535) scale(0.026 -0.026)" /><use href="#g400-5f84" transform="translate(316.000 535) scale(0.026 -0.026)" /></g><g aria-label="例：成功 +1 / 失败 −1" fill="#292929" data-font="Source Han Sans CN 400" data-size="26.0"><use href="#g400-4f8b" transform="translate(101.396 567) scale(0.026 -0.026)" /><use href="#g400-ff1a" transform="translate(127.396 567) scale(0.026 -0.026)" /><use href="#g400-6210" transform="translate(153.396 567) scale(0.026 -0.026)" /><use href="#g400-529f" transform="translate(179.396 567) scale(0.026 -0.026)" /><use href="#g400-20" transform="translate(205.396 567) scale(0.026 -0.026)" /><use href="#g400-2b" transform="translate(211.220 567) scale(0.026 -0.026)" /><use href="#g400-31" transform="translate(225.650 567) scale(0.026 -0.026)" /><use href="#g400-20" transform="translate(240.080 567) scale(0.026 -0.026)" /><use href="#g400-2f" transform="translate(245.904 567) scale(0.026 -0.026)" /><use href="#g400-20" transform="translate(256.096 567) scale(0.026 -0.026)" /><use href="#g400-5931" transform="translate(261.920 567) scale(0.026 -0.026)" /><use href="#g400-8d25" transform="translate(287.920 567) scale(0.026 -0.026)" /><use href="#g400-20" transform="translate(313.920 567) scale(0.026 -0.026)" /><use href="#g400-2212" transform="translate(319.744 567) scale(0.026 -0.026)" /><use href="#g400-31" transform="translate(334.174 567) scale(0.026 -0.026)" /></g><rect x="470" y="455" width="410" height="140" rx="6" fill="#ffffff" stroke="#333333" stroke-width="1.8" />
<rect x="470" y="455" width="410" height="48" rx="6" fill="#dedede" stroke="#333333" stroke-width="1.8" />
<g aria-label="策略梯度更新" fill="#292929" data-font="Source Han Sans CN 700" data-size="28.0"><use href="#g700-7b56" transform="translate(591.000 488) scale(0.028 -0.028)" /><use href="#g700-7565" transform="translate(619.000 488) scale(0.028 -0.028)" /><use href="#g700-68af" transform="translate(647.000 488) scale(0.028 -0.028)" /><use href="#g700-5ea6" transform="translate(675.000 488) scale(0.028 -0.028)" /><use href="#g700-66f4" transform="translate(703.000 488) scale(0.028 -0.028)" /><use href="#g700-65b0" transform="translate(731.000 488) scale(0.028 -0.028)" /></g><g aria-label="只对模型生成位置计损失" fill="#292929" data-font="Source Han Sans CN 400" data-size="26.0"><use href="#g400-53ea" transform="translate(532.000 535) scale(0.026 -0.026)" /><use href="#g400-5bf9" transform="translate(558.000 535) scale(0.026 -0.026)" /><use href="#g400-6a21" transform="translate(584.000 535) scale(0.026 -0.026)" /><use href="#g400-578b" transform="translate(610.000 535) scale(0.026 -0.026)" /><use href="#g400-751f" transform="translate(636.000 535) scale(0.026 -0.026)" /><use href="#g400-6210" transform="translate(662.000 535) scale(0.026 -0.026)" /><use href="#g400-4f4d" transform="translate(688.000 535) scale(0.026 -0.026)" /><use href="#g400-7f6e" transform="translate(714.000 535) scale(0.026 -0.026)" /><use href="#g400-8ba1" transform="translate(740.000 535) scale(0.026 -0.026)" /><use href="#g400-635f" transform="translate(766.000 535) scale(0.026 -0.026)" /><use href="#g400-5931" transform="translate(792.000 535) scale(0.026 -0.026)" /></g><g aria-label="环境反馈作为上下文" fill="#292929" data-font="Source Han Sans CN 400" data-size="26.0"><use href="#g400-73af" transform="translate(558.000 567) scale(0.026 -0.026)" /><use href="#g400-5883" transform="translate(584.000 567) scale(0.026 -0.026)" /><use href="#g400-53cd" transform="translate(610.000 567) scale(0.026 -0.026)" /><use href="#g400-9988" transform="translate(636.000 567) scale(0.026 -0.026)" /><use href="#g400-4f5c" transform="translate(662.000 567) scale(0.026 -0.026)" /><use href="#g400-4e3a" transform="translate(688.000 567) scale(0.026 -0.026)" /><use href="#g400-4e0a" transform="translate(714.000 567) scale(0.026 -0.026)" /><use href="#g400-4e0b" transform="translate(740.000 567) scale(0.026 -0.026)" /><use href="#g400-6587" transform="translate(766.000 567) scale(0.026 -0.026)" /></g><path d="M430 525 L470 525" fill="none" stroke="#333333" stroke-width="1.8" marker-end="url(#arrow)" />
<path d="M675 595 L675 615 L7 615 L7 75 L20 75" fill="none" stroke="#333333" stroke-width="1.8" marker-end="url(#arrow)" />
<rect x="20" y="660" width="860" height="100" rx="6" fill="#ffffff" stroke="#333333" stroke-width="1.8" />
<rect x="20" y="660" width="860" height="48" rx="6" fill="#dedede" stroke="#333333" stroke-width="1.8" />
<g aria-label="单工具掌握" fill="#292929" data-font="Source Han Sans CN 700" data-size="28.0"><use href="#g700-5355" transform="translate(380.000 693) scale(0.028 -0.028)" /><use href="#g700-5de5" transform="translate(408.000 693) scale(0.028 -0.028)" /><use href="#g700-5177" transform="translate(436.000 693) scale(0.028 -0.028)" /><use href="#g700-638c" transform="translate(464.000 693) scale(0.028 -0.028)" /><use href="#g700-63e1" transform="translate(492.000 693) scale(0.028 -0.028)" /></g><g aria-label="何时调用 · 参数构造 · 读取反馈 · 错误恢复" fill="#292929" data-font="Source Han Sans CN 400" data-size="26.0"><use href="#g400-4f55" transform="translate(185.528 740) scale(0.026 -0.026)" /><use href="#g400-65f6" transform="translate(211.528 740) scale(0.026 -0.026)" /><use href="#g400-8c03" transform="translate(237.528 740) scale(0.026 -0.026)" /><use href="#g400-7528" transform="translate(263.528 740) scale(0.026 -0.026)" /><use href="#g400-20" transform="translate(289.528 740) scale(0.026 -0.026)" /><use href="#g400-b7" transform="translate(295.352 740) scale(0.026 -0.026)" /><use href="#g400-20" transform="translate(321.352 740) scale(0.026 -0.026)" /><use href="#g400-53c2" transform="translate(327.176 740) scale(0.026 -0.026)" /><use href="#g400-6570" transform="translate(353.176 740) scale(0.026 -0.026)" /><use href="#g400-6784" transform="translate(379.176 740) scale(0.026 -0.026)" /><use href="#g400-9020" transform="translate(405.176 740) scale(0.026 -0.026)" /><use href="#g400-20" transform="translate(431.176 740) scale(0.026 -0.026)" /><use href="#g400-b7" transform="translate(437.000 740) scale(0.026 -0.026)" /><use href="#g400-20" transform="translate(463.000 740) scale(0.026 -0.026)" /><use href="#g400-8bfb" transform="translate(468.824 740) scale(0.026 -0.026)" /><use href="#g400-53d6" transform="translate(494.824 740) scale(0.026 -0.026)" /><use href="#g400-53cd" transform="translate(520.824 740) scale(0.026 -0.026)" /><use href="#g400-9988" transform="translate(546.824 740) scale(0.026 -0.026)" /><use href="#g400-20" transform="translate(572.824 740) scale(0.026 -0.026)" /><use href="#g400-b7" transform="translate(578.648 740) scale(0.026 -0.026)" /><use href="#g400-20" transform="translate(604.648 740) scale(0.026 -0.026)" /><use href="#g400-9519" transform="translate(610.472 740) scale(0.026 -0.026)" /><use href="#g400-8bef" transform="translate(636.472 740) scale(0.026 -0.026)" /><use href="#g400-6062" transform="translate(662.472 740) scale(0.026 -0.026)" /><use href="#g400-590d" transform="translate(688.472 740) scale(0.026 -0.026)" /></g><rect x="20" y="790" width="410" height="140" rx="6" fill="#ffffff" stroke="#333333" stroke-width="1.8" />
<rect x="20" y="790" width="410" height="48" rx="6" fill="#dedede" stroke="#333333" stroke-width="1.8" />
<g aria-label="多工具选择" fill="#292929" data-font="Source Han Sans CN 700" data-size="28.0"><use href="#g700-591a" transform="translate(155.000 823) scale(0.028 -0.028)" /><use href="#g700-5de5" transform="translate(183.000 823) scale(0.028 -0.028)" /><use href="#g700-5177" transform="translate(211.000 823) scale(0.028 -0.028)" /><use href="#g700-9009" transform="translate(239.000 823) scale(0.028 -0.028)" /><use href="#g700-62e9" transform="translate(267.000 823) scale(0.028 -0.028)" /></g><g aria-label="搜索 / 代码 / 文档解析" fill="#292929" data-font="Source Han Sans CN 400" data-size="26.0"><use href="#g400-641c" transform="translate(99.160 870) scale(0.026 -0.026)" /><use href="#g400-7d22" transform="translate(125.160 870) scale(0.026 -0.026)" /><use href="#g400-20" transform="translate(151.160 870) scale(0.026 -0.026)" /><use href="#g400-2f" transform="translate(156.984 870) scale(0.026 -0.026)" /><use href="#g400-20" transform="translate(167.176 870) scale(0.026 -0.026)" /><use href="#g400-4ee3" transform="translate(173.000 870) scale(0.026 -0.026)" /><use href="#g400-7801" transform="translate(199.000 870) scale(0.026 -0.026)" /><use href="#g400-20" transform="translate(225.000 870) scale(0.026 -0.026)" /><use href="#g400-2f" transform="translate(230.824 870) scale(0.026 -0.026)" /><use href="#g400-20" transform="translate(241.016 870) scale(0.026 -0.026)" /><use href="#g400-6587" transform="translate(246.840 870) scale(0.026 -0.026)" /><use href="#g400-6863" transform="translate(272.840 870) scale(0.026 -0.026)" /><use href="#g400-89e3" transform="translate(298.840 870) scale(0.026 -0.026)" /><use href="#g400-6790" transform="translate(324.840 870) scale(0.026 -0.026)" /></g><g aria-label="按信息需求与任务选择" fill="#292929" data-font="Source Han Sans CN 400" data-size="26.0"><use href="#g400-6309" transform="translate(95.000 902) scale(0.026 -0.026)" /><use href="#g400-4fe1" transform="translate(121.000 902) scale(0.026 -0.026)" /><use href="#g400-606f" transform="translate(147.000 902) scale(0.026 -0.026)" /><use href="#g400-9700" transform="translate(173.000 902) scale(0.026 -0.026)" /><use href="#g400-6c42" transform="translate(199.000 902) scale(0.026 -0.026)" /><use href="#g400-4e0e" transform="translate(225.000 902) scale(0.026 -0.026)" /><use href="#g400-4efb" transform="translate(251.000 902) scale(0.026 -0.026)" /><use href="#g400-52a1" transform="translate(277.000 902) scale(0.026 -0.026)" /><use href="#g400-9009" transform="translate(303.000 902) scale(0.026 -0.026)" /><use href="#g400-62e9" transform="translate(329.000 902) scale(0.026 -0.026)" /></g><rect x="470" y="790" width="410" height="140" rx="6" fill="#ffffff" stroke="#333333" stroke-width="1.8" />
<rect x="470" y="790" width="410" height="48" rx="6" fill="#dedede" stroke="#333333" stroke-width="1.8" />
<g aria-label="工具链编排" fill="#292929" data-font="Source Han Sans CN 700" data-size="28.0"><use href="#g700-5de5" transform="translate(605.000 823) scale(0.028 -0.028)" /><use href="#g700-5177" transform="translate(633.000 823) scale(0.028 -0.028)" /><use href="#g700-94fe" transform="translate(661.000 823) scale(0.028 -0.028)" /><use href="#g700-7f16" transform="translate(689.000 823) scale(0.028 -0.028)" /><use href="#g700-6392" transform="translate(717.000 823) scale(0.028 -0.028)" /></g><g aria-label="依赖关系 / 互斥约束" fill="#292929" data-font="Source Han Sans CN 400" data-size="26.0"><use href="#g400-4f9d" transform="translate(560.080 870) scale(0.026 -0.026)" /><use href="#g400-8d56" transform="translate(586.080 870) scale(0.026 -0.026)" /><use href="#g400-5173" transform="translate(612.080 870) scale(0.026 -0.026)" /><use href="#g400-7cfb" transform="translate(638.080 870) scale(0.026 -0.026)" /><use href="#g400-20" transform="translate(664.080 870) scale(0.026 -0.026)" /><use href="#g400-2f" transform="translate(669.904 870) scale(0.026 -0.026)" /><use href="#g400-20" transform="translate(680.096 870) scale(0.026 -0.026)" /><use href="#g400-4e92" transform="translate(685.920 870) scale(0.026 -0.026)" /><use href="#g400-65a5" transform="translate(711.920 870) scale(0.026 -0.026)" /><use href="#g400-7ea6" transform="translate(737.920 870) scale(0.026 -0.026)" /><use href="#g400-675f" transform="translate(763.920 870) scale(0.026 -0.026)" /></g><g aria-label="跨步骤状态 / 成本优化" fill="#292929" data-font="Source Han Sans CN 400" data-size="26.0"><use href="#g400-8de8" transform="translate(547.080 902) scale(0.026 -0.026)" /><use href="#g400-6b65" transform="translate(573.080 902) scale(0.026 -0.026)" /><use href="#g400-9aa4" transform="translate(599.080 902) scale(0.026 -0.026)" /><use href="#g400-72b6" transform="translate(625.080 902) scale(0.026 -0.026)" /><use href="#g400-6001" transform="translate(651.080 902) scale(0.026 -0.026)" /><use href="#g400-20" transform="translate(677.080 902) scale(0.026 -0.026)" /><use href="#g400-2f" transform="translate(682.904 902) scale(0.026 -0.026)" /><use href="#g400-20" transform="translate(693.096 902) scale(0.026 -0.026)" /><use href="#g400-6210" transform="translate(698.920 902) scale(0.026 -0.026)" /><use href="#g400-672c" transform="translate(724.920 902) scale(0.026 -0.026)" /><use href="#g400-4f18" transform="translate(750.920 902) scale(0.026 -0.026)" /><use href="#g400-5316" transform="translate(776.920 902) scale(0.026 -0.026)" /></g><defs><path id="g700-7b56" d="M447 566H291L382 601C375 621 362 646 347 671H470C458 659 446 648 434 638L463 621H447ZM699 828 582 857C561 796 527 737 486 689V771H268C277 789 285 808 293 826L179 857C147 775 88 690 25 637C53 622 102 590 125 571C153 598 181 633 208 671H227C247 636 267 595 276 566H63V463H447V415H127V136H255V313H447V243C361 147 205 70 38 38C63 13 97 -33 113 -63C238 -29 356 30 447 110V-90H576V106C659 39 773 -25 901 -56C917 -25 952 24 977 50C877 67 784 100 707 139C762 139 807 140 841 155C877 169 887 194 887 244V415H576V463H938V566H576V614C591 631 605 651 619 671H668C690 635 711 596 720 568L827 602C819 621 806 646 791 671H955V771H675C684 790 692 809 699 828ZM576 313H764V244C764 233 759 230 748 230C736 230 695 230 663 232C676 208 693 171 701 142C651 168 609 196 576 225Z" /><path id="g700-7565" d="M702 820 588 852C552 757 490 666 417 600V791H68V25H156V107H417V282C431 264 443 244 451 229L476 240V-89H587V-57H793V-88H909V244L917 241C933 272 968 319 993 342C910 368 837 408 775 456C842 530 898 617 935 717L857 756L837 751H670C682 774 692 797 702 820ZM156 688H203V509H156ZM156 210V411H203V210ZM326 509H277V688H326ZM326 411V210H277V411ZM417 337V533C436 515 454 496 465 483C490 504 515 529 539 557C560 524 585 491 614 458C554 409 486 367 417 337ZM587 48V178H793V48ZM779 651C755 609 725 569 691 532C656 568 628 605 605 642L611 651ZM556 282C604 310 650 342 694 379C735 343 780 310 830 282Z" /><path id="g700-6a21" d="M512 360V404H787V360ZM512 482V525H787V482ZM836 850H720V781H604V850H490V781H373V683H490V626H604V683H720V626H836V683H949V781H836ZM903 608H401V277H593C591 257 588 237 585 219H355V120H546C509 68 442 31 317 6C340 -17 368 -61 378 -90C544 -50 625 12 667 99C717 7 793 -56 906 -88C922 -58 955 -12 980 11C890 29 823 66 778 120H953V219H703L710 277H903ZM264 850H151V663H42V552H151V527C123 413 74 284 18 212C37 180 64 125 76 91C103 133 129 190 151 254V-89H264V365C285 323 304 280 315 250L386 334C369 363 293 479 264 517V552H355V663H264Z" /><path id="g700-578b" d="M721 792H611V452H721ZM908 409V838H794V411C794 398 790 395 775 395C761 393 712 393 666 395C681 366 697 320 702 290C772 290 824 292 861 308C898 326 908 354 908 409ZM364 709V604H279V709ZM561 322H476V498H569V604H476V709H547V814H90V709H169V604H56V498H157C142 448 108 400 35 362C56 345 97 301 113 278C213 333 255 415 271 498H364V305H438V243H148V134H438V54H46V-57H951V54H561V134H851V243H561Z" /><path id="g700-20" d="" /><path id="g700-3c0" d="M582 -12C621 -12 654 -5 675 3L657 112C641 109 626 107 616 107C583 107 564 120 564 159C564 193 565 338 571 444H679V560H104L21 553V444H145C145 312 132 152 105 0L253 -8C268 141 282 303 282 444H430C430 342 426 205 426 166C426 56 467 -12 582 -12Z" /><path id="g700-3b8" d="M307 -14C458 -14 557 121 557 402C557 676 458 812 307 812C156 812 59 677 59 402C59 121 156 -14 307 -14ZM307 106C252 106 209 159 202 347H413C406 159 363 106 307 106ZM202 458C209 642 252 694 307 694C363 694 406 642 413 458Z" /><path id="g400-6839" d="M272 840H203V647H50V577H196C164 440 100 281 35 197C48 179 67 146 75 124C122 191 168 299 203 412V-79H272V436C299 387 330 329 343 297L389 350C373 379 297 495 272 529V577H391V647H272ZM804 609H504V730H804ZM804 546V422H504V546ZM935 271 885 324C845 288 782 241 729 207C704 252 684 302 668 356H877V796H430V44C430 5 415 -9 401 -16C412 -31 428 -63 433 -80C452 -68 483 -57 690 0C688 15 686 45 687 65L504 22V356H603C655 155 752 3 913 -72C924 -52 948 -22 964 -8C881 25 814 81 763 153C818 185 885 229 935 271Z" /><path id="g400-636e" d="M927 238H734V362H958V427H734V537H923V796H395V494C395 335 386 117 282 -37C299 -45 330 -67 344 -79C427 43 455 213 464 362H663V238H484V-81H550V-40H858V-77H927ZM468 731H851V603H468ZM468 494V537H663V427H467ZM550 22V174H858V22ZM237 14V296L352 335L341 403L237 370V568H350V638H237V839H167V638H42V568H167V349C115 333 67 319 29 309L49 235L167 273V14C167 0 162 -4 150 -4C138 -5 99 -5 56 -4C65 -24 75 -55 77 -73C140 -74 179 -71 203 -59C228 -48 237 -27 237 14Z" /><path id="g400-4efb" d="M944 31H677V340H960V412H677V691C767 708 852 729 920 752L864 815C741 771 523 731 337 706C345 689 356 661 359 642C437 651 520 663 601 677V412H304V340H601V31H343V-41H944ZM367 817 295 840C232 683 130 529 22 431C36 413 60 374 68 356C108 395 148 441 186 492V-80H260V603C301 671 338 744 367 817Z" /><path id="g400-52a1" d="M524 375 446 381C442 345 435 312 427 282H126V216H404C346 87 235 20 57 -14C70 -29 91 -62 98 -78C296 -31 420 53 484 216H788C771 84 751 23 728 4C717 -5 705 -6 684 -6C660 -6 595 -5 532 1C545 -18 554 -46 556 -66C616 -69 675 -70 706 -69C742 -67 765 -61 787 -41C822 -10 844 66 866 248C868 259 870 282 870 282H505C513 311 519 342 524 375ZM460 826 382 841C331 754 232 651 91 580C106 567 128 541 137 523C188 552 234 583 274 616C315 569 365 530 423 497C305 459 173 435 46 423C58 407 71 377 76 357C222 375 373 406 508 457C624 410 764 383 919 370C928 390 945 420 961 437C827 444 702 463 597 495C708 549 802 619 862 710L817 741L804 737H396C420 766 442 796 460 826ZM745 673C686 613 604 565 508 527C430 561 367 604 323 659L338 673Z" /><path id="g400-4e0e" d="M681 238H57V166H681ZM336 810 261 818C236 680 195 492 164 379H807C784 150 758 45 721 15C708 4 694 3 669 3C640 3 562 4 484 11C499 -10 510 -41 512 -64C583 -68 655 -70 691 -68C734 -65 760 -59 786 -33C832 11 859 127 888 413C890 424 891 450 891 450H261C273 504 287 567 300 630H876V702H315Z" /><path id="g400-4e0a" d="M506 825H427V43H51V-32H950V43H506V441H881V516H506Z" /><path id="g400-4e0b" d="M534 527 520 511V691H946V766H55V691H441V-79H520V451C635 389 769 306 839 250L891 319C812 379 653 469 534 527Z" /><path id="g400-6587" d="M501 847 423 823C453 774 484 707 497 666L580 693C566 735 532 799 501 847ZM954 664H50V590H206C265 438 344 307 447 200C337 108 201 40 35 -7C51 -25 74 -60 83 -78C250 -24 389 48 502 147C615 46 752 -28 916 -73C928 -52 950 -20 968 -4C808 36 671 107 560 201C660 304 738 432 796 590H954ZM504 253C409 348 336 461 284 590H711C661 454 592 343 504 253Z" /><path id="g400-751f" d="M315 807 239 824C201 681 136 542 54 453C73 443 107 421 121 408C159 453 194 510 226 573H463V352H165V280H463V25H55V-48H949V25H541V280H865V352H541V573H901V646H541V840H463V646H259C281 697 300 752 315 807Z" /><path id="g400-6210" d="M622 839H544C544 782 546 725 549 670H128V389C128 259 119 86 36 -37C54 -46 86 -72 100 -87C191 44 206 247 206 388V395H389C385 223 380 159 367 144C359 135 350 133 335 133C318 133 275 133 229 138C241 119 249 89 250 68C299 65 345 65 371 67C398 70 415 77 431 96C452 123 457 208 462 433C463 443 463 465 463 465H206V597H554C566 435 590 287 628 172C562 96 485 34 396 -13C412 -27 439 -59 450 -74C527 -29 597 27 657 92C703 -11 764 -73 841 -73C918 -73 946 -24 959 147C939 155 911 172 894 188C888 56 876 3 847 3C796 3 750 61 714 159C788 255 846 369 889 500L815 519C783 418 740 327 686 247C660 344 641 463 630 597H951V670H626C623 725 622 781 622 839ZM716 835 671 790C734 757 812 706 850 670L897 722C858 756 779 805 716 835Z" /><path id="g400-8c03" d="M154 818 105 772C159 726 226 659 256 615L309 668C277 710 209 774 154 818ZM924 10V795H383V422C383 327 380 215 351 112C343 127 334 147 329 163L257 108V526H43V454H184V107C184 54 148 15 128 -1C142 -12 166 -37 175 -52C188 -35 211 -15 345 90C330 44 310 0 283 -39C298 -47 327 -68 338 -79C436 57 450 268 450 422V728H856V11C856 -4 851 -9 836 -9C822 -10 775 -10 723 -8C733 -27 744 -58 747 -77C818 -77 861 -76 888 -65C915 -52 924 -30 924 10ZM681 698H620V614H512V556H620V454H490V397H818V454H681V556H793V614H681ZM570 315H512V35H570V81H781V315ZM570 259H723V138H570Z" /><path id="g400-7528" d="M887 22V770H153V407C153 266 143 89 32 -36C49 -45 79 -70 90 -85C167 0 201 115 216 227H467V-71H543V227H813V22C813 4 806 -2 786 -3C767 -4 699 -5 629 -2C639 -22 651 -55 655 -74C749 -75 807 -74 841 -62C875 -50 887 -27 887 22ZM227 698H467V537H227ZM813 698V537H543V698ZM227 407V466H467V298H223C226 336 227 373 227 407ZM813 466V298H543V466Z" /><path id="g400-ff1a" d="M250 486C290 486 326 515 326 560C326 606 290 636 250 636C210 636 174 606 174 560C174 515 210 486 250 486ZM250 -4C290 -4 326 26 326 71C326 117 290 146 250 146C210 146 174 117 174 71C174 26 210 -4 250 -4Z" /><path id="g400-641c" d="M237 13V306L349 350L336 418L237 380V568H339V638H237V840H166V638H46V568H166V354L39 309L59 238L166 279V13C166 0 161 -3 150 -4C138 -4 103 -4 64 -3C74 -24 83 -56 85 -76C144 -76 181 -73 205 -61C229 -48 237 -27 237 13ZM853 290H682V387H915V758H723V696H847V602H727V545H847V449H682V841H614V449H458V544H566V602H458V695C509 711 563 731 607 754L553 804C515 779 450 751 392 733L393 732L392 387H614V290H379V226H424L416 223C458 156 515 99 584 53C499 16 402 -7 304 -20C317 -36 331 -64 338 -82C449 -64 557 -34 651 12C730 -29 820 -59 917 -78C927 -59 946 -31 962 -16C875 -2 793 21 721 52C803 106 870 178 911 271L866 293ZM809 226C771 169 717 123 652 87C586 125 531 171 491 226Z" /><path id="g400-7d22" d="M690 141 633 104C718 58 825 -12 877 -58L937 -14C881 32 773 98 690 141ZM358 109 290 136C233 82 143 26 61 -10C78 -22 106 -47 119 -61C198 -19 294 46 358 109ZM552 8V189L797 204C824 176 848 149 864 127L922 166C879 222 789 304 718 362L665 328C691 306 719 281 746 255L309 232C450 285 592 352 727 434L673 480C629 451 581 424 533 398L309 385C378 419 447 460 510 505L480 528H862V405H936V593H539V686H923V752H539V841H461V752H76V686H461V593H66V405H137V528H434C363 473 274 425 246 411C218 396 194 386 174 385C181 367 191 333 194 319C211 326 237 329 422 341C339 302 269 272 237 260C179 236 135 222 102 219C109 200 119 166 122 153C148 162 187 166 479 185V10C479 -2 475 -6 458 -6C443 -8 389 -8 327 -6C339 -25 351 -54 355 -75C428 -75 479 -75 510 -63C543 -52 552 -32 552 8Z" /><path id="g400-20" d="" /><path id="g400-2f" d="M11 -179H78L377 794H311Z" /><path id="g400-4ee3" d="M769 819 715 783C773 733 844 663 877 618L934 658C901 703 829 771 769 819ZM623 826H548C552 720 559 620 568 528L324 497L335 426L576 456C614 141 694 -68 860 -79C913 -82 953 -30 975 143C960 150 927 168 912 183C902 66 886 8 857 9C750 20 684 200 650 466L955 504L944 575L642 537C632 626 626 724 623 826ZM199 -78H276V604C317 669 354 737 384 807L313 830C247 671 136 518 21 420C34 404 57 365 65 348C111 390 156 439 199 494Z" /><path id="g400-7801" d="M792 205H410V137H792ZM791 781H443V712H778C770 624 757 502 745 401H537C546 476 556 569 561 645L491 650C484 551 471 417 458 336H863C844 117 822 28 796 2C786 -8 776 -10 758 -9C740 -9 696 -9 647 -4C659 -23 666 -52 668 -73C716 -76 763 -76 788 -74C818 -72 837 -65 856 -43C892 -7 914 98 937 368C938 379 940 401 940 401H816C832 525 848 675 856 779L803 785ZM365 479H181C208 554 229 635 245 718H394V787H51V718H173C145 565 100 423 29 328C41 308 58 266 63 247C82 272 100 300 116 329V-34H181V46H365ZM181 411H299V113H181Z" /><path id="g400-6863" d="M925 755 851 776C830 702 788 597 754 534L814 515C849 575 891 673 925 755ZM458 774 397 751C430 679 469 582 486 521L551 547C533 608 493 701 458 774ZM264 840H193V626H47V555H181C151 418 88 260 26 175C38 158 56 128 65 108C113 175 159 287 193 401V-79H264V424C295 374 332 312 347 279L393 337C375 365 291 482 264 516V555H390V626H264ZM916 471H694V837H621V471H392V398H842V269H404V201H842V63H369V-9H842V-71H916Z" /><path id="g400-56de" d="M374 271V500H618V271ZM692 568H303V204H692ZM159 46V724H839V46ZM919 799H82V-79H159V-25H839V-79H919Z" /><path id="g400-7b54" d="M343 381C400 417 451 458 495 502C543 464 608 421 680 381ZM556 574 486 602C402 485 231 383 40 319C56 305 79 275 89 258C163 285 233 317 297 354V317H711V364C778 328 850 295 918 272C930 292 954 323 971 339C814 384 633 474 537 549ZM284 27V171H719V27ZM794 236H212V-80H284V-39H719V-76H794ZM271 825 200 844C165 748 105 653 37 592C55 582 86 562 100 549C134 585 169 630 200 681H253C277 639 301 588 311 554L378 577C368 605 350 645 329 681H490V746H236C249 772 261 798 271 825ZM666 828 595 844C571 763 527 685 474 633C492 624 522 603 536 592C559 616 581 646 601 680H671C701 639 731 589 743 555L814 581C803 609 780 646 755 680H941V745H635C647 772 658 800 666 828Z" /><path id="g700-48" d="M91 0H239V320H519V0H666V741H519V448H239V741H91Z" /><path id="g700-61" d="M216 -14C281 -14 337 17 385 60H390L400 0H520V327C520 489 447 574 305 574C217 574 137 541 72 500L124 405C176 435 226 456 278 456C347 456 371 414 373 359C148 335 51 272 51 153C51 57 116 -14 216 -14ZM265 101C222 101 191 120 191 164C191 215 236 252 373 268V156C338 121 307 101 265 101Z" /><path id="g700-72" d="M79 0H226V334C258 415 310 444 353 444C377 444 390 442 408 437L437 562C421 569 403 574 372 574C313 574 253 534 213 461H210L199 560H79Z" /><path id="g700-6e" d="M79 0H226V385C267 426 297 448 342 448C397 448 421 418 421 331V0H568V349C568 490 516 574 395 574C319 574 262 534 213 486H210L199 560H79Z" /><path id="g700-65" d="M323 -14C392 -14 463 9 518 48L471 137C429 113 388 100 343 100C269 100 201 136 184 238H532C536 252 539 279 539 306C539 462 459 574 305 574C172 574 44 461 44 280C44 95 166 -14 323 -14ZM184 337C199 426 256 460 307 460C380 460 413 412 413 337Z" /><path id="g700-73" d="M239 -14C384 -14 462 64 462 163C462 259 390 304 302 334C233 357 195 372 195 410C195 440 219 464 270 464C312 464 352 452 393 422L456 505C410 545 343 574 266 574C138 574 57 503 57 403C57 314 130 267 210 237C271 215 324 197 324 155C324 120 299 96 243 96C190 96 139 112 89 152L26 69C81 16 162 -14 239 -14Z" /><path id="g400-7ec4" d="M48 58 63 -14C157 10 282 42 401 73L394 137C266 106 134 76 48 58ZM872 790H481V11H380V-58H959V11H872ZM553 11V207H798V11ZM553 535V721H798V535ZM553 466H798V274H553ZM73 182C94 194 129 204 401 259C399 274 400 301 402 321L182 281C265 370 346 480 415 591L355 628C334 591 311 555 288 520L143 505C207 591 269 701 318 808L249 840C204 719 125 588 102 555C79 521 60 497 42 493C50 473 62 438 66 423C81 430 105 436 242 454C193 388 150 335 130 315C97 278 71 253 49 249C58 231 69 197 73 182Z" /><path id="g400-7ec7" d="M40 53 55 -21C150 4 279 35 403 66L395 132C264 101 129 71 40 53ZM513 398V697H815V398ZM892 769H439V326H892ZM806 230 738 205C791 118 847 1 869 -71L943 -41C921 30 861 144 806 230ZM589 211 510 228C482 126 430 28 363 -36C382 -46 415 -68 430 -79C496 -10 554 98 589 211ZM67 176C90 189 124 199 399 253C397 268 397 298 399 318L177 278C256 367 334 475 400 585L338 622C318 585 296 548 273 513L137 499C199 585 259 696 305 803L234 836C192 715 117 584 94 551C72 516 54 493 35 489C45 469 57 432 61 416C75 424 99 430 229 447C183 382 141 330 122 309C90 273 66 248 44 244C52 225 63 191 67 176Z" /><path id="g400-b7" d="M606 380C606 439 559 486 500 486C441 486 394 439 394 380C394 321 441 274 500 274C559 274 606 321 606 380Z" /><path id="g400-6821" d="M601 567 533 597C498 527 434 442 368 388C385 377 409 357 421 343C488 402 555 487 601 567ZM771 603 719 563C785 499 859 409 891 350L947 395C914 453 837 540 771 603ZM637 846 574 819C605 782 638 729 653 693H400V623H949V693H658L721 723C706 758 671 808 637 846ZM833 403 760 421C739 341 705 270 660 207C611 269 572 340 545 417L479 399C512 306 557 221 613 149C547 78 463 20 361 -24C376 -37 399 -65 409 -80C509 -35 593 23 661 94C731 20 815 -37 914 -74C926 -53 948 -22 966 -7C866 25 779 80 709 151C764 223 805 307 833 403ZM262 840H193V628H63V558H180C151 421 91 260 30 176C43 158 62 125 69 105C115 174 160 289 193 406V-79H262V420C290 366 322 299 336 264L381 321C363 352 286 485 262 517V558H375V628H262Z" /><path id="g400-9a8c" d="M31 148 47 85C122 106 214 130 303 157L297 214C198 189 101 163 31 148ZM831 530H533V465H831ZM526 376 467 362C496 286 523 186 531 121L593 138C584 203 555 301 526 376ZM702 396 644 387C661 312 679 212 684 147L746 157C740 222 722 320 702 396ZM171 652 107 656C100 548 88 399 75 311H344C331 105 315 24 294 2C286 -8 275 -10 259 -10C240 -10 195 -9 145 -4C156 -22 164 -48 165 -67C214 -70 260 -71 285 -68C315 -66 333 -60 350 -39C382 -7 396 87 412 342C413 351 414 373 414 373L347 372H335C347 480 362 660 372 795H64V730H303C295 610 282 468 270 372H147C156 456 165 565 171 652ZM733 826 667 847C605 707 495 584 374 507C388 493 411 462 419 448C514 514 605 608 674 717C744 620 846 517 936 451C944 471 961 503 974 520C882 580 774 686 710 780ZM945 35H793C842 127 897 259 938 365L870 382C837 277 777 128 727 35H435V-31H945Z" /><path id="g400-53c2" d="M610 368 548 401C480 353 353 308 254 283C272 269 291 246 302 231C404 260 530 310 610 368ZM698 253 635 284C547 219 381 167 239 140C254 124 272 100 282 82C432 115 598 175 698 253ZM829 144 761 177C649 69 422 8 176 -17C191 -34 205 -62 213 -82C470 -50 703 18 829 144ZM950 517H442C459 548 475 580 488 615L770 627C795 604 817 583 833 564L895 609C840 670 728 754 637 810L579 771C617 746 659 717 699 686L312 672C375 710 439 756 499 807L431 845C359 775 260 710 228 693C200 676 177 665 157 663C165 643 175 607 179 591C202 599 233 602 404 611C390 578 374 546 356 517H53V450H307C237 365 145 299 39 253C56 239 85 209 96 194C216 254 321 338 400 450H606C681 345 801 250 915 199C926 218 950 246 966 261C867 298 761 370 691 450H950Z" /><path id="g400-6570" d="M506 793 443 821C426 782 393 723 368 688L417 664C443 698 477 747 506 793ZM143 815 88 793C114 751 141 697 150 661L207 687C197 722 170 776 143 815ZM442 323H278L300 375L233 388C226 367 216 345 206 323H70V260H175C153 220 131 183 110 153C159 134 214 109 264 83C200 37 123 5 41 -14C54 -28 70 -54 77 -72C169 -47 254 -8 326 50C359 30 389 11 412 -6L460 43C437 59 408 77 375 95C428 152 470 222 495 309L454 326ZM410 260C387 208 355 164 317 126C279 145 240 164 203 180C217 204 232 232 247 260ZM327 841H257V654H50V592H234C186 527 109 466 39 435C54 421 71 395 80 378C141 411 207 467 257 526V404H327V541C375 505 436 458 461 435L503 490C479 507 391 562 342 592H531V654H327ZM698 821 629 832C604 656 559 488 481 383C497 373 526 349 538 337C564 375 586 419 606 468C628 369 657 279 694 199C638 104 560 31 451 -22C465 -37 486 -67 493 -83C595 -28 672 41 731 129C781 44 843 -24 921 -71C933 -52 955 -26 972 -12C888 33 822 106 771 198C824 301 858 426 880 576H948V646H663C677 702 689 761 698 821ZM809 576C793 461 769 361 733 276C695 366 667 468 648 576Z" /><path id="g400-6743" d="M875 748H423V675H458C494 469 545 311 633 180C556 90 465 24 366 -17C383 -31 403 -61 413 -79C512 -33 602 32 679 119C740 44 817 -22 914 -85C925 -63 948 -38 968 -23C867 37 789 103 727 179C828 316 901 500 935 736L888 751ZM853 675C821 501 761 356 681 242C606 358 560 497 528 675ZM286 840H212V628H46V558H194C158 419 88 260 18 176C33 157 53 124 62 102C118 175 173 298 212 422V-79H286V430C329 375 385 298 409 260L454 327C430 356 318 485 286 516V558H419V628H286Z" /><path id="g400-9650" d="M332 799H92V-78H159V731H304C283 664 254 576 225 505C297 425 315 356 315 301C315 270 309 242 294 231C285 226 274 223 263 222C247 221 227 222 204 223C216 204 223 175 223 157C245 156 271 156 290 159C311 161 329 167 342 177C371 198 382 240 382 294C382 357 365 429 293 513C326 593 363 691 392 773L343 802ZM811 609H516V730H811ZM811 546V422H516V546ZM943 271 894 324C854 287 791 240 738 206C713 251 693 302 678 356H883V796H442V53C442 11 421 -9 406 -18C417 -33 433 -63 439 -80C458 -67 490 -56 696 0C694 16 692 47 693 68L516 25V356H612C662 157 757 3 914 -72C925 -52 948 -22 965 -8C885 25 820 81 771 152C826 185 892 229 943 271Z" /><path id="g400-5ea6" d="M458 644H386V557H225V495H386V329H775V495H937V557H775V644H701V557H458ZM701 495V389H458V495ZM807 265H239V203H369L335 189C377 133 431 86 497 47C403 17 297 -1 191 -10C203 -27 216 -55 222 -74C346 -59 469 -35 576 7C675 -36 792 -64 918 -79C927 -60 946 -30 962 -14C852 -4 749 16 660 46C748 94 821 158 867 243L820 268ZM757 203C713 151 651 110 579 78C508 111 450 153 408 203ZM548 845 473 827C488 801 502 770 513 741H126V469C126 319 119 105 36 -45C56 -52 89 -68 104 -80C188 78 201 310 201 469V670H948V741H598C586 773 566 813 548 845Z" /><path id="g400-5de5" d="M951 72H539V650H900V727H104V650H456V72H52V-3H951Z" /><path id="g400-5177" d="M653 137 605 84C716 32 832 -32 902 -81L962 -25C887 22 766 86 653 137ZM398 88 328 133C266 79 141 13 40 -26C58 -40 83 -65 95 -81C195 -40 319 25 398 88ZM802 792H212V209H52V141H951V209H802ZM284 209V300H727V209ZM284 644V730H727V644ZM284 586H727V501H284ZM284 444H727V357H284Z" /><path id="g400-8bb0" d="M176 815 124 769C179 720 248 652 280 608L334 661C300 703 230 769 176 815ZM200 -61C214 -41 241 -22 407 98C400 112 389 142 384 163L280 92V526H46V453H206V93C206 44 175 10 157 -4C171 -17 192 -45 200 -61ZM891 770H419V695H816V442H438V57C438 -41 474 -65 586 -65C611 -65 790 -65 816 -65C925 -65 951 -20 962 143C940 148 908 161 889 175C884 33 874 7 812 7C773 7 621 7 591 7C527 7 515 16 515 56V370H816V318H891Z" /><path id="g400-5f55" d="M185 363 134 317C199 281 278 225 316 186L369 238C329 276 248 329 185 363ZM68 54 108 -12C207 29 336 85 461 141V2C461 -12 456 -16 440 -17C424 -18 368 -18 309 -16C319 -35 331 -63 335 -82C413 -82 464 -82 495 -71C527 -60 537 -42 537 1V237C624 107 749 10 904 -40C914 -19 937 9 953 25C845 54 751 107 675 177C739 216 814 272 874 323L810 370C765 325 691 266 629 224C592 266 561 314 537 365V395H940V462H804C813 565 820 688 822 784L763 788L750 784H134V715H740L736 623H164V554H732L726 462H67V395H461V212C316 152 165 91 68 54Z" /><path id="g400-8f68" d="M40 167 57 92 268 133V-76H339V148L468 174L465 240L339 217V345H455V413H339V568H268V413H151C184 482 216 564 244 650H454V722H267C277 757 286 792 294 826L216 843C209 803 199 762 189 722H49V650H168C143 571 118 506 107 481C88 437 74 406 56 401C64 382 76 346 80 331C88 339 120 345 157 345H268V205C181 190 101 176 40 167ZM834 40V629H657V832H589V629H475V558H589C586 384 566 144 422 -37C441 -48 466 -70 479 -84C629 114 653 368 657 558H766V33C766 -38 793 -56 842 -56H882C950 -56 959 -16 966 117C947 121 922 132 903 147C901 33 898 7 879 7H855C842 7 834 10 834 40Z" /><path id="g400-8ff9" d="M855 539 794 520C842 433 886 318 897 246L964 268C951 340 905 453 855 539ZM462 529 394 541C371 443 329 348 274 285C291 277 322 260 335 250C389 318 435 421 462 529ZM119 781 70 735C132 697 209 639 244 599L297 651C259 690 182 745 119 781ZM617 844 547 822C571 784 597 736 612 698H333V629H521V522C521 389 507 228 349 102C367 92 394 70 407 56C573 193 591 371 591 521V629H692V144C692 132 688 129 676 129C664 129 624 128 579 129C589 110 600 82 603 62C664 62 704 63 729 74C755 86 762 106 762 144V629H953V698H690L696 700C682 739 648 800 617 844ZM250 106V490H51V420H177V100C134 80 86 38 39 -14L89 -79C139 -12 189 46 222 46C245 46 280 14 320 -12C389 -55 472 -67 594 -67C701 -67 871 -61 939 -57C941 -35 953 1 961 21C859 10 711 2 596 2C485 2 402 9 335 51C295 75 272 96 250 106Z" /><path id="g700-5de5" d="M959 101H565V620H903V746H100V620H428V101H45V-20H959Z" /><path id="g700-5177" d="M806 803H202V233H45V126H294C228 80 120 27 29 -4C57 -27 96 -66 117 -90C217 -55 341 8 420 66L335 126H639L581 64C690 17 807 -47 874 -91L973 -3C910 33 806 83 708 126H959V233H806ZM318 233V291H685V233ZM318 654V708H685V654ZM318 569H685V516H318ZM318 431H685V376H318Z" /><path id="g700-4e0e" d="M674 261H49V146H674ZM371 822 248 833C226 683 187 487 155 366H781C763 175 739 76 706 50C691 39 676 38 651 38C618 38 536 38 456 45C482 11 500 -40 503 -75C575 -78 649 -80 690 -76C743 -71 777 -62 810 -27C858 21 884 141 910 425C912 441 914 477 914 477H307L334 613H888V728H355Z" /><path id="g700-73af" d="M24 128 51 15C141 44 254 81 358 116L339 223L250 195V394H329V504H250V682H351V790H33V682H139V504H47V394H139V160ZM767 533 705 490V570C722 606 737 643 751 681H957V795H388V681H618C556 519 459 368 346 273C373 251 419 203 439 178C490 227 539 287 585 355V-88H705V433C767 354 835 259 866 196L966 270C925 341 836 453 767 533Z" /><path id="g700-5883" d="M516 245V287H773V245ZM516 358V399H773V358ZM846 672 738 691C731 667 719 634 708 606H595C589 630 577 666 564 692L467 672C475 652 484 628 489 606H366V507H937V606H813ZM690 858 578 836 594 789H396V692H912V789H717C709 811 700 837 690 858ZM785 45V170H888V474H407V170H489C476 81 439 30 285 -1C308 -21 336 -65 346 -93C535 -46 585 37 602 170H674V49C674 -13 683 -34 702 -52C720 -68 752 -76 779 -76C795 -76 825 -76 844 -76C862 -76 889 -73 905 -67C925 -59 938 -47 947 -28C955 -12 960 27 962 66C933 75 891 96 870 114C869 79 868 52 866 39C864 27 859 21 854 19C850 18 842 17 835 17C826 17 813 17 806 17C799 17 793 18 789 21C786 25 785 32 785 45ZM22 151 61 28C152 64 266 109 370 153L346 262L254 229V497H340V611H254V836H138V611H40V497H138V188C95 173 55 161 22 151Z" /><path id="g400-6267" d="M247 11V296L364 334L353 404L247 371V560H350V630H247V840H175V630H48V560H175V348L33 307L53 234L175 273V11C175 -3 169 -7 157 -7C145 -8 107 -8 63 -7C73 -28 82 -60 85 -79C149 -79 188 -77 212 -64C237 -52 247 -31 247 11ZM599 841H525C527 764 528 693 527 626H373V557H526C524 489 519 426 510 368L416 421L374 370C412 348 455 323 497 297C464 157 399 52 276 -21C291 -35 320 -69 329 -83C455 2 524 111 560 257C614 222 662 189 694 162L739 222C700 252 639 291 575 329C587 398 594 473 597 557H750C745 158 737 -80 867 -80C929 -80 953 -42 962 92C944 98 916 112 900 126C897 26 889 -8 870 -8C813 -8 817 211 827 626H599C600 693 600 764 599 841Z" /><path id="g400-884c" d="M927 780H435V708H927ZM339 811 267 841C216 768 119 679 35 623C48 608 69 579 79 562C169 626 272 724 339 811ZM955 504H391V432H728V17C728 1 721 -4 702 -5C684 -6 616 -6 545 -3C556 -25 567 -56 570 -77C668 -77 725 -77 759 -66C792 -53 804 -30 804 16V432H955ZM377 600 307 626C238 512 128 396 25 322C40 307 67 274 78 259C115 289 154 325 192 364V-83H266V446C307 496 346 548 377 600Z" /><path id="g400-41" d="M4 0H97L168 224H436L506 0H604L355 733H252ZM191 297 227 410C253 493 277 572 300 658H304C328 573 351 493 378 410L413 297Z" /><path id="g400-50" d="M101 0H193V292H314C475 292 584 363 584 518C584 678 474 733 310 733H101ZM193 367V658H298C427 658 492 625 492 518C492 413 431 367 302 367Z" /><path id="g400-49" d="M101 0H193V733H101Z" /><path id="g400-6216" d="M736 837 692 791C753 761 827 716 863 681L909 734C872 767 797 811 736 837ZM62 66 77 -11C192 14 357 50 511 84L505 155C342 121 171 86 62 66ZM195 278V452H399V278ZM472 518H125V213H472ZM936 680H635C632 731 631 784 631 838H552C552 785 554 732 557 680H68V606H561C573 443 596 293 632 175C564 95 484 29 391 -22C408 -35 437 -65 449 -80C528 -32 599 26 661 94C706 -15 766 -81 843 -81C920 -81 948 -31 962 141C941 149 913 166 896 184C890 50 877 -3 850 -3C800 -3 755 60 719 164C793 264 853 381 897 516L822 534C790 430 746 337 692 255C667 353 649 473 639 606H936Z" /><path id="g400-6c99" d="M495 656 420 670C394 547 351 419 297 336C315 327 349 308 363 297C416 386 464 523 495 656ZM819 688 755 660C814 574 871 456 893 379L962 410C939 487 880 601 819 688ZM894 360 824 384C746 161 579 37 297 -18C314 -36 331 -65 339 -86C633 -20 809 117 894 360ZM660 832H583V228H660ZM133 828 91 774C157 745 239 696 280 662L325 724C282 757 198 802 133 828ZM78 554 37 499C101 469 182 423 221 390L264 452C223 484 141 528 78 554ZM70 -16 134 -66C192 28 260 153 312 258L256 306C200 193 123 61 70 -16Z" /><path id="g400-7bb1" d="M570 352V451H837V352ZM570 293H837V191H570ZM570 132H837V28H570ZM913 519H497V-79H570V-35H837V-73H913ZM257 827 185 844C153 743 99 643 36 578C54 568 86 547 100 536C133 574 165 624 194 679H234C255 639 274 591 284 556H235V442H60V372H220C176 266 100 148 33 85C51 71 71 46 83 27C134 83 191 168 235 254V-80H307V256C349 211 398 156 420 126L468 185C444 210 348 300 307 334V372H466V442H307V551L354 570C346 599 328 641 309 679H488V743H225C237 771 248 799 257 827ZM651 827 578 844C549 745 496 649 430 587C449 578 480 556 494 544C528 580 561 626 589 678H649C682 634 715 580 728 543L794 571C781 600 756 641 728 678H948V743H620C632 770 642 798 651 827Z" /><path id="g400-2192" d="M649 182 709 147C776 235 876 323 965 380C876 437 776 525 709 613L649 578C694 516 760 453 811 414H40V346H811C760 307 694 244 649 182Z" /><path id="g400-8fd4" d="M134 804 74 766C121 715 182 645 212 604L276 648C245 689 181 756 134 804ZM249 103V467H47V396H174V110C132 95 82 56 32 5L83 -64C128 -6 174 49 206 49C228 49 261 19 305 -4C377 -42 465 -52 585 -52C686 -52 863 -46 939 -42C940 -20 952 17 961 37C860 25 706 18 587 18C476 18 387 24 321 59C289 76 268 92 249 103ZM534 453 481 410C531 370 588 323 643 276C577 216 501 170 422 143C437 128 457 100 465 81C549 115 628 164 697 229C758 175 814 123 851 83L908 136C869 176 810 228 746 281C813 358 865 454 896 569L850 586L837 583H459V703C622 711 805 732 929 764L866 824C756 794 555 775 385 767V548C385 425 373 259 277 141C295 133 327 111 340 97C434 214 456 384 459 515H805C778 444 739 381 692 327C637 371 582 415 534 453Z" /><path id="g400-7ed3" d="M35 53 48 -24C147 -2 280 26 406 55L400 124C266 97 128 68 35 53ZM63 184C87 197 123 205 402 256C400 272 397 301 398 321L175 285C254 372 334 479 401 587L334 629C315 593 292 557 270 522L137 511C196 594 254 700 298 802L221 834C181 717 110 593 87 561C66 529 48 506 30 502C39 481 52 443 56 427C71 434 96 439 223 454C178 391 136 341 117 322C84 286 61 262 38 257C47 237 59 200 63 184ZM716 841H639V706H408V634H639V478H433V406H926V478H716V634H943V706H716ZM532 32V236H826V32ZM901 304H459V-79H532V-36H826V-75H901Z" /><path id="g400-679c" d="M848 792H159V394H461V309H62V240H400C310 144 167 58 36 15C53 -1 76 -28 88 -47C220 3 364 98 461 208V-80H540V213C639 106 785 9 914 -42C925 -23 948 5 965 21C839 63 694 148 601 240H939V309H540V394H848ZM236 459V563H461V459ZM540 563H767V459H540ZM236 625V727H461V625ZM540 727H767V625H540Z" /><path id="g400-9519" d="M401 720H203C218 752 232 785 243 818L178 837C148 745 97 657 37 597C50 582 69 545 75 530C107 563 137 604 164 649H401ZM408 344H271V479H386V547H106V479H202V344H62V275H202V77C202 34 172 6 154 -4C167 -19 184 -50 190 -67C206 -51 232 -35 400 59C394 74 387 103 385 123L271 63V275H408ZM818 840H749V708H610V840H542V708H444V642H542V510H420V442H958V510H818V642H935V708H818ZM610 642H749V510H610ZM547 194V297H820V194ZM547 133H820V27H547ZM891 361H478V-78H547V-35H820V-74H891Z" /><path id="g400-8bef" d="M497 589V727H821V589ZM895 793H427V523H895ZM152 813 102 766C156 719 222 653 254 609L306 664C274 705 205 769 152 813ZM961 255H681C686 289 690 326 692 365H923V433H399V365H621C619 325 615 289 609 255H366V188H592C559 88 490 21 337 -20C352 -34 372 -63 379 -80C534 -34 611 37 651 140C705 32 795 -44 918 -82C928 -62 950 -34 967 -19C841 12 750 85 702 188H961ZM223 528H44V456H186V93C186 52 165 29 150 19C163 3 183 -32 189 -50C204 -32 228 -14 389 98C382 113 373 141 369 161L259 89V528Z" /><path id="g400-72b6" d="M798 806 741 774C785 719 836 643 859 596L920 634C896 680 843 752 798 806ZM106 709 49 674C96 615 152 537 175 486L237 528C212 577 155 653 106 709ZM663 605V838H589V605L588 545H356V471H583C568 306 512 120 327 -30C347 -43 373 -63 388 -78C539 47 609 197 640 344C695 156 782 6 918 -78C930 -59 955 -30 973 -16C816 70 723 252 675 471H951V545H662ZM32 194 76 130C127 176 188 234 247 290V-78H321V841H247V382C168 309 86 237 32 194Z" /><path id="g400-6001" d="M444 449 381 409C440 375 511 323 543 286L610 330C574 367 503 417 444 449ZM344 45V241H270V45C270 -36 300 -58 416 -58C441 -58 624 -58 650 -58C746 -58 770 -27 780 99C759 105 728 115 711 128C706 26 698 11 645 11C604 11 450 11 420 11C355 11 344 16 344 45ZM467 299 410 265C467 213 537 138 568 91L630 131C596 179 525 249 467 299ZM816 256 750 235C800 150 851 36 868 -35L940 -9C921 62 868 173 816 256ZM221 219 154 241C135 161 100 59 54 -6L122 -40C166 28 199 136 221 219ZM544 844H466C461 795 455 746 444 699H56V629H424C377 499 278 391 45 333C61 316 80 287 88 269C347 339 454 471 504 629C579 449 710 328 907 274C918 295 940 326 958 343C778 384 651 485 582 629H948V699H522C532 746 539 794 544 844Z" /><path id="g700-5956" d="M141 800 52 752C85 705 121 641 135 600L230 654C215 695 176 756 141 800ZM564 340H439L431 280H52V175H396C351 95 257 43 37 13C59 -12 85 -57 94 -88C329 -51 443 16 501 114C583 -2 708 -61 902 -84C917 -50 947 -2 972 24C783 36 653 81 586 175H948V280H556ZM874 767H665C677 783 688 799 698 815L584 853C547 784 462 705 377 661C399 640 432 598 448 574C491 598 535 630 574 667H816C785 613 743 570 690 537C662 570 622 609 588 638L503 586C533 558 568 522 593 490C530 466 457 450 378 440C398 418 430 368 441 340C692 384 888 489 966 737L895 769ZM33 495 82 390C134 420 194 455 253 491V339H369V850H253V608C171 563 89 521 33 495Z" /><path id="g700-52b1" d="M197 424V507H266C263 278 255 95 149 -18C175 -36 209 -73 224 -100C258 -64 285 -23 305 24C320 -2 329 -41 330 -69C368 -71 404 -70 426 -66C453 -62 471 -53 490 -29L498 -15C524 -35 556 -68 571 -92C703 45 743 250 755 501H833C827 180 818 61 800 35C790 21 781 17 767 18C749 18 714 18 676 21C694 -10 706 -56 708 -88C753 -89 796 -89 824 -84C856 -78 876 -68 898 -35C928 8 936 152 944 559C944 573 945 610 945 610H759C761 682 762 756 762 834H652L651 610H561V501H648C638 293 608 126 506 9C519 64 526 172 533 379C534 392 535 421 535 421H373L375 507H539V611H197V686H569V794H88V423C88 283 84 95 23 -34C50 -44 100 -73 121 -91C187 48 197 269 197 424ZM429 320C422 128 414 56 400 37C392 25 385 23 372 24C358 23 334 24 306 27C342 109 359 208 367 320Z" /><path id="g700-8ba1" d="M192 840 115 762C172 715 246 648 280 604L361 691C325 734 247 797 192 840ZM188 -85C207 -60 244 -32 446 115C434 140 415 191 408 226L306 154V541H38V422H184V120C184 75 152 42 129 27C149 1 179 -54 188 -85ZM736 845H607V534H367V409H607V-90H736V409H967V534H736Z" /><path id="g700-7b97" d="M285 405V442H731V405ZM285 300V337H731V300ZM285 509V544H731V509ZM618 169H407V228H618ZM696 830 582 858C562 802 527 748 486 704V784H264L286 827L175 858C142 782 83 706 20 658C48 643 95 611 117 592C146 618 176 652 204 690H225C240 666 256 638 265 616H164V228H287V169H48V73H248C216 44 159 17 61 -2C87 -24 120 -64 136 -90C294 -49 365 9 392 73H618V-88H743V73H954V169H743V228H857V616H766L836 646C828 659 817 674 803 690H951V784H675C683 799 690 815 696 830ZM524 616H307L374 640C369 654 359 672 348 690H472C461 679 450 670 438 661C461 651 497 633 524 616ZM556 616C577 637 598 662 618 690H671C691 666 712 638 726 616Z" /><path id="g400-8bc1" d="M151 814 102 769C156 723 224 657 256 615L309 667C275 708 206 771 151 814ZM962 30H724V360H922V431H724V693H940V763H386V693H647V30H512V512H438V30H352V-40H962ZM181 -52C196 -32 223 -10 393 124C384 138 371 168 364 188L264 111V526H50V454H191V107C191 54 154 15 135 -1C148 -12 172 -37 181 -52Z" /><path id="g400-8def" d="M156 556V732H345V556ZM571 25V218H823V25ZM38 42 51 -31C157 -6 301 29 438 64L431 130L299 99V279H405C419 265 433 244 441 229C461 238 481 247 501 258V-78H571V-41H823V-75H894V256L926 241C937 261 958 290 973 304C882 338 806 391 743 452C807 527 858 616 891 720L844 741L830 738H636C648 766 658 794 668 823L597 841C559 721 493 607 414 532V798H89V490H231V84L153 66V396H89V52ZM797 672C771 610 736 554 695 504C653 553 620 605 595 655L604 672ZM545 283C599 316 650 355 697 402C740 358 789 317 845 283ZM424 346H299V490H414V522C431 510 456 489 467 477C499 510 530 549 558 592C583 547 613 500 650 454C583 386 504 333 424 298Z" /><path id="g400-5f84" d="M328 810 257 838C214 767 128 684 50 632C62 617 81 588 89 571C177 631 270 724 328 810ZM819 787H384V718H768C666 586 479 476 312 421C328 406 347 378 357 360C454 395 555 445 646 507C742 465 856 406 915 366L957 428C900 464 797 514 707 553C781 612 844 681 887 759L833 790ZM897 332H384V262H604V18H322V-52H956V18H680V262H897ZM341 591 274 617C218 514 124 411 36 345C48 328 69 289 75 273C110 301 146 336 181 373V-80H257V464C289 505 317 548 341 591Z" /><path id="g400-4f8b" d="M757 724H690V165H757ZM923 22V835H853V22C853 6 847 1 831 0C814 0 761 -1 701 2C712 -20 722 -52 727 -72C803 -73 854 -71 883 -58C912 -47 923 -25 923 22ZM399 341 358 290C393 263 435 228 466 199C419 98 357 22 286 -23C302 -37 323 -63 333 -81C487 26 591 235 625 554L581 565L568 563H440C454 612 466 662 476 714H645V785H297V714H403C373 554 323 404 250 306C267 295 295 271 307 260C352 322 389 403 419 494H549C537 411 518 335 494 267C465 292 429 320 399 341ZM142 -78H212V626C238 689 261 755 280 820L212 839C173 692 109 548 33 453C45 434 65 393 71 376C96 408 120 444 142 483Z" /><path id="g400-529f" d="M38 182 56 105C163 134 307 175 443 214L434 285L273 241V650H419V722H51V650H199V222C138 206 82 192 38 182ZM672 824H597C597 751 596 680 594 611H426V539H591C576 295 521 93 307 -22C326 -36 351 -62 361 -81C590 47 649 273 665 539H865C851 183 834 47 805 16C794 3 784 0 764 0C741 0 685 1 623 6C637 -14 645 -46 647 -68C704 -71 762 -72 794 -69C828 -66 850 -58 872 -30C910 16 924 160 940 574C940 584 940 611 940 611H669C671 680 672 751 672 824Z" /><path id="g400-2b" d="M241 116H314V335H518V403H314V622H241V403H38V335H241Z" /><path id="g400-31" d="M88 0H490V76H343V733H273C233 710 186 693 121 681V623H252V76H88Z" /><path id="g400-5931" d="M534 529V589H863V665H534V840H456V665H264C283 711 300 760 314 810L236 826C200 690 137 556 59 472C79 463 115 443 132 432C167 475 200 529 230 589H456V529C456 483 454 436 446 390H54V315H429C387 185 285 66 42 -16C58 -31 80 -63 89 -81C345 7 456 138 502 282C580 96 712 -26 922 -80C932 -60 954 -28 971 -12C767 34 635 146 566 315H947V390H526C532 436 534 483 534 529Z" /><path id="g400-8d25" d="M300 386V656H234V386C234 257 221 76 39 -28C54 -41 75 -65 85 -79C277 42 300 236 300 386ZM341 159 288 127C332 70 387 -8 414 -54L469 -15C442 29 386 104 341 159ZM445 792H89V184H152V724H380V186H445ZM947 664H646C662 714 675 765 686 816L618 831C587 677 535 526 463 427C477 412 500 380 509 365C522 384 535 404 548 426C580 326 622 234 674 155C620 74 553 16 474 -25C488 -37 510 -63 519 -79C594 -38 660 20 714 98C771 24 839 -36 917 -78C928 -61 949 -36 966 -22C883 18 811 80 752 159C813 269 855 412 876 596H947ZM624 596H811C794 440 760 316 711 219C658 304 617 403 589 508C601 536 613 566 624 596Z" /><path id="g400-2212" d="M38 335H518V403H38Z" /><path id="g700-68af" d="M278 850H169V663H40V552H162C134 431 80 290 19 212C38 180 65 125 77 91C111 142 143 215 169 296V-89H278V367C297 328 314 288 324 260L394 341C378 369 305 483 278 518V552H377V663H278ZM540 502H436C429 413 415 301 402 228H570C511 147 424 76 333 36C357 14 391 -26 408 -53C484 -13 555 49 613 122V-88H725V228H847C843 146 839 113 830 102C824 94 816 92 804 92C794 92 774 93 749 95C764 66 774 20 776 -15C812 -16 845 -14 864 -10C888 -6 904 2 921 23C943 50 949 125 955 285C956 298 957 326 957 326H725V404H932V687H836C858 726 882 772 905 817L788 850C773 800 746 734 721 687H589L625 703C613 744 583 803 550 847L457 809C480 773 504 725 517 687H405V588H613V502ZM613 404V326H521L530 404ZM823 502H725V588H823Z" /><path id="g700-5ea6" d="M499 629H386V563H251V468H386V311H800V468H945V563H800V629H682V563H499ZM682 468V402H499V468ZM800 271H258V178H367L325 162C360 120 401 83 447 52C374 35 293 23 209 17C227 -8 249 -54 258 -83C372 -70 481 -49 577 -15C671 -53 780 -77 902 -89C917 -58 947 -10 972 15C880 22 795 34 719 52C793 99 854 159 896 238L821 276ZM714 178C678 145 633 118 582 96C529 119 485 146 450 178ZM585 857 463 830C472 809 480 786 487 763H111V496C111 343 105 118 23 -35C55 -45 110 -70 134 -88C218 77 230 328 230 496V652H955V763H622C613 794 599 829 585 857Z" /><path id="g700-66f4" d="M878 639H571V697H941V804H60V697H445V639H147V225H254L162 188C192 143 227 106 266 75C209 50 135 31 39 16C65 -12 98 -63 112 -90C229 -67 317 -35 383 4C528 -60 713 -74 931 -79C938 -39 960 12 982 40C778 38 612 42 482 84C520 126 543 174 556 225H878ZM571 354V387H759V322H570ZM261 322V387H445V355L444 322ZM571 542H759V477H571ZM261 477V542H445V477ZM426 225C414 193 396 164 367 137C331 161 299 189 270 225Z" /><path id="g700-65b0" d="M206 201 113 225C94 171 63 114 27 76C49 63 87 35 105 19C143 64 182 135 206 201ZM432 234 354 191C382 144 417 81 432 40L513 90C502 56 487 23 468 -6C493 -19 541 -56 560 -77C647 49 660 254 660 401V408H758V-85H874V408H968V519H660V676C758 694 862 719 945 751L852 840C778 806 657 774 548 754V401C548 306 545 191 513 92C497 131 463 190 432 234ZM337 36V251H503V352H337V429H520V527H415C429 559 445 597 460 637L374 653H504V750H345C333 783 317 824 301 855L195 830C205 806 215 777 224 750H53V653H189L106 633C120 601 131 559 136 527H38V429H229V352H44V251H229V38C229 28 226 25 215 25C204 25 172 25 142 26C156 -2 170 -44 174 -72C228 -72 268 -71 298 -55C329 -38 337 -12 337 36ZM202 653H351C341 616 323 565 308 527H189L237 540C233 571 220 618 202 653Z" /><path id="g400-53ea" d="M657 221 593 182C694 104 818 -8 876 -80L944 -35C882 38 757 146 657 221ZM413 188 334 218C275 132 157 32 49 -30C67 -43 94 -67 109 -82C219 -16 338 89 413 188ZM235 383V693H765V383ZM844 766H158V311H844Z" /><path id="g400-5bf9" d="M563 422 502 394C549 323 594 228 610 168L676 201C660 261 611 353 563 422ZM144 500 91 453C152 398 217 332 275 267C215 139 136 42 45 -18C63 -32 86 -60 98 -78C190 -12 268 80 329 203C374 147 411 94 435 49L495 104C466 156 419 218 364 281C410 396 443 533 460 695L411 709L398 706H70V635H378C363 527 339 430 307 344C254 399 198 453 144 500ZM839 22V527H959V599H839V840H765V599H482V527H765V22C765 4 758 -1 741 -2C724 -2 668 -3 605 0C615 -23 626 -58 630 -79C715 -79 766 -77 796 -64C827 -51 839 -28 839 22Z" /><path id="g400-6a21" d="M472 345V417H820V345ZM472 472V542H820V472ZM805 840H732V757H578V840H507V757H360V693H507V618H578V693H732V618H805V693H945V757H805ZM893 599H402V289H606C602 259 598 232 591 206H340V142H569C531 65 459 12 312 -20C326 -35 345 -63 352 -80C526 -38 607 34 647 140C697 30 790 -44 920 -80C930 -60 950 -32 966 -18C853 6 767 61 719 142H943V206H666C671 232 676 260 679 289H893ZM247 840H175V647H50V577H175V576C148 440 90 281 32 197C45 179 63 146 72 124C110 183 146 274 175 372V-79H247V436C274 383 305 320 318 286L365 340C349 371 273 496 247 535V577H350V647H247Z" /><path id="g400-578b" d="M704 783H635V448H704ZM893 386V834H822V387C822 374 818 370 802 369C787 368 737 368 680 370C691 350 701 321 705 301C776 301 825 302 855 314C885 325 893 344 893 386ZM264 601V733H388V595H264ZM573 595H459V733H552V799H100V733H195V602V595H67V528H189C178 461 145 393 59 340C73 330 98 302 108 288C210 351 248 441 259 528H388V313H459V528H573ZM544 332H467V221H151V152H467V25H47V-45H952V25H544V152H848V221H544Z" /><path id="g400-4f4d" d="M914 658H369V585H914ZM503 524 435 509C465 369 495 185 503 80L577 102C567 204 536 384 503 524ZM641 847 570 828C588 778 609 712 617 669L692 691C681 734 660 798 641 847ZM955 34H749C786 168 826 365 852 519L774 532C757 382 716 169 679 34H326V-38H955ZM180 -78H255V601C294 669 329 742 357 815L286 836C230 685 136 535 38 437C51 420 73 381 81 363C115 398 148 439 180 484Z" /><path id="g400-7f6e" d="M651 658V748H820V658ZM417 658V748H582V658ZM189 658V748H348V658ZM808 427H495L509 486H922V545H520L531 603H895V802H117V603H454L446 545H68V486H436L424 427H190V6H57V-50H945V6H808ZM262 6V68H734V6ZM262 320V376H734V320ZM262 275H734V217H262ZM262 172H734V113H262Z" /><path id="g400-8ba1" d="M186 823 137 775C193 728 263 660 295 617L346 673C312 714 241 778 186 823ZM196 -61C212 -40 240 -18 428 116C420 130 409 161 404 182L281 98V526H46V452H205V93C205 50 174 20 155 8C169 -7 189 -41 196 -61ZM705 837H626V508H372V431H626V-80H705V431H959V508H705Z" /><path id="g400-635f" d="M507 616V744H787V616ZM863 802H434V558H863ZM686 253V353H612V254C612 174 590 62 318 -11C335 -28 356 -56 365 -74C649 15 686 148 686 253ZM730 122 686 73C763 25 866 -43 917 -84L964 -28C911 11 806 76 730 122ZM895 484H406V122H477V423H822V124H895ZM243 16V287L366 327L356 395L243 359V568H357V638H243V839H168V638H42V568H168V336C116 320 68 306 29 296L43 223L168 263V16C168 1 163 -3 151 -3C138 -3 98 -3 54 -2C64 -24 74 -57 77 -76C142 -77 182 -74 207 -61C233 -49 243 -28 243 16Z" /><path id="g400-73af" d="M734 534 677 494C752 410 841 295 881 225L942 271C900 340 808 452 734 534ZM36 102 55 31C137 61 243 98 343 135L331 203L230 167V413H319V483H230V702H340V772H41V702H160V483H56V413H160V143ZM944 776H391V703H646C583 527 479 371 354 271C372 257 401 227 413 212C482 273 546 351 602 440V-77H676V577C695 618 713 660 728 703H944Z" /><path id="g400-5883" d="M485 234V300H801V234ZM485 350V415H801V350ZM657 846 587 833C596 813 606 789 613 767H397V704H900V767H692C683 792 670 822 657 846ZM817 675 748 692C739 661 722 617 706 584H535L575 595C568 621 553 663 538 694L477 680C489 650 503 612 509 584H367V520H927V584H773ZM752 27V181H873V468H415V181H519C506 65 463 7 299 -25C314 -38 333 -66 338 -83C522 -40 574 36 590 181H681V34C681 -21 688 -37 705 -49C721 -62 751 -66 774 -66C787 -66 826 -66 842 -66C861 -66 888 -64 902 -59C920 -53 932 -42 940 -26C947 -11 950 31 952 72C932 78 906 90 892 103C891 62 890 32 887 18C884 5 877 -1 870 -4C863 -6 849 -7 836 -7C821 -7 798 -7 788 -7C775 -7 766 -6 760 -3C753 1 752 10 752 27ZM34 129 59 54C143 86 251 128 353 170L338 238L233 199V525H330V596H233V828H160V596H50V525H160V172C113 155 69 140 34 129Z" /><path id="g400-53cd" d="M865 770 804 831C660 790 394 765 169 754V488C169 332 160 115 55 -39C74 -47 106 -69 120 -83C224 70 244 297 246 462H313C359 330 424 221 511 134C423 68 320 21 213 -8C229 -24 248 -55 257 -75C370 -41 477 10 570 82C657 13 763 -38 890 -71C901 -50 921 -20 937 -5C815 22 712 68 628 131C729 227 808 353 852 517L801 539L786 535H246V690C463 700 704 726 865 770ZM754 462C713 349 649 256 568 182C489 257 429 351 389 462Z" /><path id="g400-9988" d="M882 401H417V89H487V340H810V89H882ZM705 89 671 40C751 9 850 -43 898 -82L935 -28C886 10 786 59 705 89ZM683 190V289H613V193C613 111 572 30 351 -23C364 -36 384 -66 391 -82C628 -22 683 84 683 190ZM329 685H191C202 731 211 778 219 826L151 839C129 691 90 545 29 450C45 441 74 418 85 406C120 463 150 537 173 619H302C286 569 266 518 248 483L304 463C334 515 365 599 389 672L341 688ZM151 -73C164 -54 189 -33 362 100C355 115 345 141 340 160L234 82V480H166V78C166 28 129 -8 109 -23C122 -34 143 -59 151 -73ZM893 773H688V839H619V773H422V581H619V516H371V457H961V516H688V581H893ZM485 634V720H619V634ZM688 720H827V634H688Z" /><path id="g400-4f5c" d="M598 809 526 828C476 681 395 536 305 442C322 430 351 404 363 391C414 447 463 520 506 601H575V-79H651V164H952V235H651V387H939V456H651V601H962V673H542C563 717 582 763 598 809ZM179 -78H254V599C293 668 329 741 357 814L285 836C229 685 135 535 36 438C50 420 73 380 80 362C114 397 147 437 179 482Z" /><path id="g400-4e3a" d="M226 812 162 784C202 737 247 673 267 632L335 665C314 706 267 768 226 812ZM561 401 499 371C550 310 609 226 635 173L701 209C674 261 613 342 561 401ZM487 719V838H411V719C411 682 410 641 407 599H82V524H399C374 346 295 145 54 -11C73 -23 101 -49 114 -66C370 104 452 328 476 524H821C807 184 791 50 761 19C750 7 739 4 717 5C693 5 630 5 562 11C577 -11 587 -44 588 -67C650 -70 713 -72 748 -69C785 -65 808 -57 831 -28C870 18 884 159 900 560C900 572 901 599 901 599H484C486 641 487 682 487 719Z" /><path id="g700-5355" d="M254 353V422H436V353ZM560 422H750V353H560ZM254 513V580H436V513ZM560 580H750V513H560ZM816 803 682 842C662 792 628 727 596 679H379L423 700C403 742 358 802 320 846L216 799C245 764 277 717 298 679H137V255H436V189H48V78H436V-87H560V78H955V189H560V255H874V679H732C759 716 789 760 816 803Z" /><path id="g700-638c" d="M328 469V519H662V469ZM781 592H217V396H781ZM845 321 773 391C627 366 365 354 145 355C154 336 164 301 165 279C252 278 346 280 439 283V247H114V167H439V126H56V46H439V18C439 3 432 -1 415 -2C398 -3 330 -3 275 0C290 -25 308 -63 315 -91C399 -91 458 -90 500 -77C542 -64 557 -40 557 14V46H942V126H557V167H891V247H557V289C663 296 763 307 845 321ZM858 815 734 852C716 821 683 777 657 747L711 728H558V850H437V728H285L333 749C319 778 290 823 262 854L157 813C176 788 196 755 210 728H65V505H177V629H820V505H937V728H773C798 752 828 782 858 815Z" /><path id="g700-63e1" d="M241 50V282L342 313L327 420L241 396V550H335V660H241V849H129V660H37V550H129V367L21 341L47 226L129 250V50C129 38 124 34 113 34C101 33 68 33 34 34C48 2 62 -48 64 -79C127 -79 171 -74 201 -55C232 -37 241 -5 241 50ZM480 526V568H936V812H364V526C364 363 356 127 259 -34C287 -44 338 -74 360 -93C447 52 472 265 478 433H584C559 397 534 368 524 357C507 340 490 328 474 325C487 298 504 249 511 228C529 235 553 240 640 247V187H474V97H640V22H417V-72H971V22H757V97H932V187H757V256L847 263C853 251 858 239 862 229L956 268C937 316 890 383 845 433H948V523H480ZM480 719H815V661H480ZM842 433 756 398C770 382 784 364 797 346L636 337C665 367 694 401 718 433Z" /><path id="g400-4f55" d="M889 23V671H963V743H340V671H814V24C814 4 808 -2 787 -2C765 -4 691 -4 611 -1C623 -24 635 -57 638 -79C736 -79 803 -77 839 -66C876 -53 889 -30 889 23ZM683 530H369V114H440V184H683ZM440 463H613V250H440ZM173 -79H247V615C282 680 312 749 337 818L267 839C215 690 129 541 37 444C51 427 73 387 80 370C112 405 143 446 173 490Z" /><path id="g400-65f6" d="M536 485 474 452C527 375 595 269 627 208L693 246C659 307 590 409 536 485ZM324 469H153V688H324ZM324 402V174H153V402ZM153 756H81V25H153V106H394V756ZM840 33V566H962V640H840V835H764V640H440V566H764V33C764 13 756 6 736 6C714 4 640 4 562 7C573 -15 585 -49 590 -70C690 -70 754 -69 790 -56C826 -44 840 -22 840 33Z" /><path id="g400-6784" d="M938 676H543C561 723 577 773 590 824L516 840C484 705 429 572 357 487C375 477 405 453 419 441C453 486 486 543 514 606H862C849 196 834 43 804 8C794 -5 784 -8 766 -7C745 -7 697 -7 644 -2C656 -24 665 -56 667 -77C716 -80 766 -81 797 -77C829 -73 851 -65 871 -37C908 12 922 167 937 637C938 647 938 676 938 676ZM687 395 632 376C649 340 667 298 682 258L505 227C550 310 594 415 626 517L554 538C527 423 471 297 454 265C437 232 423 208 407 205C415 187 427 152 430 138C449 149 480 157 702 201C711 175 719 150 724 130L783 155C767 215 726 318 687 395ZM271 840H199V647H50V577H192C160 440 97 281 32 197C45 179 64 146 72 124C119 191 165 300 199 413V-79H271V437C299 387 332 326 346 293L393 348C376 378 297 499 271 530V577H387V647H271Z" /><path id="g400-9020" d="M126 800 70 760C125 711 191 643 221 598L280 643C248 688 181 754 126 800ZM456 155V310H796V155ZM871 374H385V91H871ZM668 840H594V714H470C484 745 497 778 507 811L437 827C409 734 362 641 304 580C322 572 353 555 367 544C392 573 416 609 438 649H594V520H305V456H949V520H668V649H905V714H668ZM251 93V456H48V386H179V87C138 70 91 35 47 -7L94 -73C144 -16 193 32 227 32C247 32 277 6 314 -16C378 -53 462 -61 579 -61C683 -61 861 -56 949 -51C950 -30 962 6 971 26C865 13 698 7 580 7C473 7 387 11 327 47C291 67 271 85 251 93Z" /><path id="g400-8bfb" d="M478 490 443 452C496 424 558 382 588 351L624 394C593 424 530 465 478 490ZM406 400 370 361C424 333 488 288 518 257L555 301C524 332 459 374 406 400ZM728 148 683 105C765 51 863 -30 911 -83L959 -34C910 19 809 96 728 148ZM153 817 105 768C159 722 226 657 259 615L310 670C277 711 207 773 153 817ZM877 593H685V683H894V747H685V840H611V747H404V683H611V593H367V528H851C838 485 822 441 808 411L866 394C890 442 916 517 937 584L889 596ZM711 369V489H639V371C639 333 637 293 626 251H346V185H601C562 108 484 33 330 -26C345 -40 366 -67 375 -84C559 -11 644 86 682 185H946V251H701C709 292 711 331 711 369ZM237 526H40V454H188V89C188 40 158 7 141 -7C153 -19 173 -45 181 -60C195 -40 220 -17 376 112C367 126 355 155 348 175L258 103V526Z" /><path id="g400-53d6" d="M870 728H506V656H556C584 479 624 323 687 195C628 100 557 25 479 -24C496 -37 517 -62 528 -80C602 -29 669 38 727 123C777 42 839 -25 915 -74C926 -54 950 -28 967 -14C886 33 821 104 770 192C847 329 902 503 929 718L883 730ZM850 656C826 508 784 379 730 270C679 381 645 513 623 656ZM38 130 55 58 356 110V-78H429V123L518 140L514 203L429 189V725H502V793H48V725H115V141ZM187 725H356V585H187ZM187 520H356V375H187ZM187 309H356V178L187 152Z" /><path id="g400-6062" d="M236 840H166V-79H236ZM145 640 88 649C83 566 67 456 39 391L97 370C126 442 142 558 145 640ZM296 678 242 659C271 596 296 513 304 463L361 487C354 536 326 617 296 678ZM645 471 587 482C575 396 554 311 519 253C532 246 557 230 568 222C604 284 630 377 645 471ZM927 476 867 489C851 404 823 315 789 254C804 247 831 235 844 226C877 289 908 385 927 476ZM574 836 504 842C499 789 494 738 488 688H346V619H478C444 408 386 232 277 114C292 102 322 76 332 63C449 198 511 387 548 619H944V688H558C564 736 569 785 574 836ZM767 581 704 584C691 258 648 59 423 -21C439 -36 457 -63 466 -82C594 -30 668 53 710 176C753 63 818 -26 912 -75C922 -57 943 -31 959 -18C847 32 774 144 738 282C755 367 763 466 767 581Z" /><path id="g400-590d" d="M288 374V442H753V374ZM288 493V559H753V493ZM759 255H358C375 275 391 296 405 317L399 319H831V614H213V319H325C268 243 180 173 93 126C109 115 136 90 147 78C187 103 229 133 269 167C311 123 362 86 422 54C301 18 165 -3 33 -13C44 -30 58 -61 62 -80C214 -65 372 -36 509 15C628 -32 770 -60 921 -72C930 -52 948 -23 963 -6C830 2 705 21 596 52C688 97 766 155 818 228L771 259ZM902 743H292C308 768 323 793 335 819L267 840C220 741 134 649 48 590C63 576 86 545 96 530C148 570 201 622 246 680H902ZM700 197C650 151 583 113 505 83C430 113 367 151 320 197Z" /><path id="g700-591a" d="M566 823 437 853C369 774 250 689 88 629C115 611 152 571 169 544C250 580 320 620 382 663H633C589 618 532 579 468 545C437 572 400 600 368 621L278 564C304 545 334 521 361 497C268 462 165 436 63 421C83 395 108 346 119 315C408 370 693 495 823 727L745 773L724 768H512C530 786 549 804 566 823ZM733 465 602 494C526 397 387 299 181 234C206 213 240 169 254 141C368 184 463 234 544 291H772C729 236 673 191 606 155C574 182 537 210 506 232L407 175C434 155 465 129 492 104C365 59 214 35 53 24C72 -6 92 -59 100 -92C485 -55 814 51 956 356L873 403L851 397H671C693 419 714 442 733 465Z" /><path id="g700-9009" d="M135 821 44 754C99 705 166 635 194 587L293 662C261 710 192 776 135 821ZM786 228V403H959V507H709V623H918V724H709V844H590V724H512C521 747 528 770 535 794L422 819C399 732 356 644 302 589C330 575 378 544 400 525C423 552 445 586 466 623H590V507H317V403H481C467 305 431 227 296 178C323 156 355 109 369 79C536 149 583 262 603 403H667V227C667 122 687 86 783 86C801 86 840 86 859 86C932 86 962 121 973 254C941 262 891 282 869 300C866 209 862 196 845 196C838 196 810 196 804 196C787 196 786 199 786 228ZM272 128V464H46V353H157V96C116 74 73 41 32 5L112 -100C165 -37 221 21 258 21C280 21 311 -8 352 -33C419 -71 499 -83 617 -83C715 -83 866 -78 940 -73C941 -41 960 19 972 51C875 37 720 28 620 28C516 28 430 34 367 72C323 98 299 122 272 128Z" /><path id="g700-62e9" d="M269 39V291L374 323L359 430L269 406V551H375V661H269V849H153V661H40V551H153V375L26 344L52 229L153 258V39C153 26 148 22 136 22C124 21 88 21 53 23C68 -9 82 -59 85 -90C151 -90 196 -86 228 -67C260 -48 269 -18 269 39ZM832 809H400V704H460C492 649 531 600 576 556C505 515 426 483 346 463C368 441 395 396 407 368C496 396 583 435 661 485C734 433 819 392 914 366C930 397 962 442 987 467C901 485 821 515 753 554C824 615 884 689 924 776L851 814ZM756 704C730 672 699 642 663 614C630 642 601 672 576 704ZM719 416H599V337H413V232H599V163H363V57H599V-90H719V57H962V163H719V232H899V337H719Z" /><path id="g400-89e3" d="M262 528V406H173V528ZM317 528H407V406H317ZM161 586C179 619 196 654 211 691H342C329 655 313 616 297 586ZM372 751H234C242 776 250 801 257 826L189 841C158 718 103 599 32 522C48 512 76 489 88 478L109 505V320C109 207 102 58 34 -48C49 -55 78 -72 90 -83C133 -16 154 72 164 158H262V-27H317V158H407V6C407 -4 404 -7 393 -7C384 -7 355 -8 321 -7C330 -24 339 -53 341 -71C391 -71 422 -69 443 -58C464 -47 471 -26 471 6V586H366C389 629 412 680 429 725L383 754ZM173 320V349H262V217H170C172 253 173 288 173 320ZM317 349H407V217H317ZM649 448 585 460C568 376 537 292 494 235C510 229 538 213 551 205C570 231 587 264 603 301H714V180H511V113H714V-79H785V113H960V180H785V301H934V367H785V462H714V367H627C635 393 643 421 649 448ZM932 789H510V726H647C630 632 591 551 488 505C503 493 522 469 530 454C650 510 696 608 716 726H862C856 609 848 563 836 549C830 541 822 540 807 540C794 540 757 541 718 544C727 527 734 501 735 482C777 479 818 479 839 482C864 483 880 490 894 506C915 530 924 594 931 761C932 771 932 789 932 789Z" /><path id="g400-6790" d="M553 422V426H736V-80H810V426H956V497H553V677C674 699 805 731 899 770L835 828C753 791 609 754 482 730V422C482 282 473 94 382 -40C400 -46 431 -66 444 -78C539 61 553 272 553 422ZM282 840H209V626H59V554H201C168 416 100 259 32 175C45 157 63 127 71 107C122 174 171 282 209 394V-79H282V408C316 356 356 291 373 257L420 317C401 346 317 459 282 502V554H430V626H282Z" /><path id="g400-6309" d="M772 379C755 284 723 210 675 151C622 181 567 209 516 234C538 278 561 327 583 379ZM959 447H611C630 497 648 547 662 594L587 605C573 556 553 501 531 447H355V379H502C474 315 444 256 417 210C482 178 553 139 623 99C557 45 470 9 358 -16C371 -32 389 -64 394 -81C518 -49 615 -4 688 61C773 10 850 -41 900 -82L954 -24C902 17 824 66 739 115C794 183 830 269 852 379H959ZM945 712H711C701 751 683 803 668 845L593 831C606 795 620 750 629 712H383V517H454V645H873V518H945ZM249 7V267L377 309L367 376L249 340V568H357V639H249V840H177V639H42V568H177V319L30 277L48 204L177 244V7C177 -8 171 -12 158 -12C145 -13 104 -13 58 -12C68 -32 79 -62 81 -80C147 -80 188 -78 214 -67C240 -55 249 -35 249 7Z" /><path id="g400-4fe1" d="M869 531H382V469H869ZM869 389H382V328H869ZM947 675H310V611H947ZM606 840 541 815C568 773 598 717 612 680L679 711C665 746 635 799 606 840ZM434 22V181H811V22ZM879 243H369V-80H434V-40H811V-77H879ZM169 -83H238V616C271 680 300 748 323 816L256 836C205 685 122 535 32 437C45 420 67 383 74 367C107 404 139 448 169 495Z" /><path id="g400-606f" d="M266 470V550H730V470ZM266 331V412H730V331ZM266 607V687H730V607ZM337 40V202H262V39C262 -41 293 -62 409 -62C433 -62 614 -62 640 -62C736 -62 761 -32 771 96C750 100 718 111 701 124C696 21 688 7 634 7C594 7 443 7 413 7C349 7 337 12 337 40ZM830 220 763 192C809 129 857 43 874 -12L945 20C926 75 877 159 830 220ZM212 176 148 204C124 141 85 55 45 0L114 -33C151 25 187 113 212 176ZM553 835 465 850C457 821 441 780 427 747H194V271H473L419 240C470 193 528 126 553 82L614 120C587 163 530 226 478 271H805V747H507C521 773 538 804 553 835Z" /><path id="g400-9700" d="M409 571H194V521H409ZM410 466H172V416H410ZM830 466H585V415H830ZM806 571H585V521H806ZM925 681H533V740H865V800H134V740H461V681H76V490H144V626H461V389H533V626H855V490H925ZM882 -5V224H505L531 295H938V356H65V295H453C448 272 440 247 433 224H143V-78H214V162H362V-72H431V162H584V-72H653V162H809V-4C809 -14 807 -17 795 -17C785 -18 751 -18 710 -17C719 -35 730 -61 734 -80C788 -80 826 -80 851 -68C876 -58 882 -40 882 -5Z" /><path id="g400-6c42" d="M174 540 117 501C180 444 252 363 283 309L344 354C311 408 237 485 174 540ZM43 89 90 21C193 81 330 163 460 242V22C460 2 453 -3 434 -4C414 -4 349 -5 280 -2C292 -25 303 -60 308 -82C396 -82 456 -80 490 -67C523 -54 537 -31 537 22V420C623 235 749 82 912 3C925 24 949 53 967 69C858 116 763 198 687 299C753 356 835 437 896 508L832 554C786 492 711 412 648 355C603 426 565 505 537 586V599H939V672H815L859 721C818 755 737 802 674 834L629 786C690 754 765 707 805 672H537V838H460V672H65V599H460V320C308 233 145 141 43 89Z" /><path id="g400-9009" d="M118 806 61 765C119 716 187 646 216 597L278 644C246 692 177 760 118 806ZM753 192V423H951V490H678V636H909V701H678V836H603V701H485C498 731 509 763 518 795L446 810C422 721 380 633 326 574C345 565 376 545 390 535C413 563 435 597 455 636H603V490H320V423H501C484 292 443 197 293 144C309 130 331 102 340 83C507 150 557 264 576 423H679V191C679 116 696 93 771 93C786 93 854 93 869 93C932 93 952 125 959 252C938 257 907 269 893 282C890 177 886 163 861 163C847 163 792 163 782 163C756 163 753 166 753 192ZM251 100V456H56V386H179V83C136 63 90 27 45 -15L95 -80C152 -18 206 34 243 34C265 34 296 5 335 -19C401 -58 484 -68 600 -68C698 -68 867 -63 945 -58C946 -36 958 1 966 20C867 10 715 3 601 3C495 3 411 9 349 46C301 74 278 98 251 100Z" /><path id="g400-62e9" d="M250 12V305L366 343L356 412L250 379V569H369V639H250V839H177V639H46V569H177V356C124 340 75 326 36 315L55 242L177 281V12C177 -1 172 -5 160 -6C148 -6 109 -7 66 -5C76 -26 85 -57 88 -76C152 -76 191 -75 216 -62C241 -50 250 -29 250 12ZM851 787H396V719H460C497 653 546 594 605 544C526 498 438 462 352 441C367 426 385 398 392 380C483 407 576 448 660 501C738 446 829 405 928 380C938 399 959 427 974 443C880 463 794 497 719 542C799 603 866 677 909 765L864 790ZM804 719C768 668 719 621 662 581C610 621 566 667 532 719ZM695 412H620V324H417V256H620V153H366V85H620V-82H695V85H957V153H695V256H885V324H695Z" /><path id="g700-94fe" d="M444 827 345 797C368 733 394 648 404 592L507 626C495 681 469 763 444 827ZM345 356H245V462H318V563H112C129 589 145 618 160 649H340V752H202C210 775 217 797 223 820L123 848C102 760 65 673 18 616C35 590 63 532 71 507L88 528V462H139V356H47V255H139V102C139 49 111 11 89 -6C107 -22 136 -61 147 -83C163 -62 191 -38 350 81C338 101 323 144 316 172L245 121V255H345ZM960 310H817V400H941L942 499H817V605H713V499H645C665 541 684 589 703 639H963V739H735C745 770 753 801 760 832L649 853C644 815 636 776 627 739H526V639H600C587 597 575 564 569 549C553 513 539 489 521 483C533 456 550 406 556 385C565 394 601 400 637 400H713V310H537V208H713V68H817V208H960ZM506 113V521H331V412H398V101C365 83 331 56 300 24L374 -89C404 -39 443 20 469 20C488 20 517 -4 552 -26C607 -59 667 -74 752 -74C814 -74 904 -71 953 -67C954 -37 969 21 980 53C914 44 813 38 753 38C677 38 615 47 565 77C541 91 523 105 506 113Z" /><path id="g700-7f16" d="M67 169C89 184 127 197 341 249C337 272 334 315 335 345L211 319C272 403 330 500 376 594L284 649C269 612 251 575 232 539L161 534C212 617 262 719 297 815L186 854C157 736 97 609 77 577C58 544 43 522 23 517C36 488 53 435 59 413C74 421 96 427 174 437C145 388 119 351 106 334C77 296 56 273 32 268C44 240 62 190 67 169ZM706 858 590 825C600 802 612 774 621 748H403V530C403 408 397 239 346 96L324 187C215 142 102 96 27 70L55 -39L345 92C332 56 316 22 297 -9C321 -20 369 -56 387 -76C440 9 471 119 489 229V-80H580V130H626V-60H699V130H740V-58H812V130H854V14C854 6 852 4 846 4C841 4 828 4 813 4C824 -18 835 -55 837 -81C871 -81 896 -79 918 -64C940 -49 944 -25 944 12V424H509L511 483H928V748H753C742 781 723 825 706 858ZM626 328V221H580V328ZM699 328H740V221H699ZM812 328H854V221H812ZM511 651H817V579H511Z" /><path id="g700-6392" d="M270 43V282L374 310L360 420L270 397V548H361V659H270V850H155V659H42V548H155V369C108 358 65 349 29 342L47 224L155 252V43C155 30 151 26 138 26C126 26 89 26 54 27C68 -3 83 -50 86 -80C152 -80 197 -77 229 -59C260 -41 270 -12 270 43ZM636 837H521V691H392V586H521V478H395V374H521V266H370V158H521V-88H636ZM820 838H705V-90H820V156H970V263H820V374H949V478H820V586H957V691H820Z" /><path id="g400-4f9d" d="M613 836 546 814C574 764 604 696 615 655L687 682C674 722 642 787 613 836ZM953 433 897 485C851 436 777 371 714 323C678 403 649 489 628 578L631 582H944V653H297V582H545C467 462 353 354 237 284C253 270 279 239 290 223C330 251 371 283 411 319V60C411 14 380 -14 361 -26C374 -39 394 -67 401 -83C422 -67 453 -53 675 28C670 44 664 73 663 93L484 31V391C518 427 550 465 579 504C643 264 753 54 915 -52C928 -32 953 -5 971 9C878 63 801 156 741 268C808 313 890 377 953 433ZM160 -81H232V588C273 661 309 739 338 817L266 839C213 687 126 538 32 440C46 422 68 383 75 366C104 397 133 433 160 473Z" /><path id="g400-8d56" d="M750 465H686C683 153 669 35 446 -32C460 -43 477 -68 483 -82C723 -7 746 132 750 465ZM765 115 723 72C792 28 880 -35 923 -76L966 -26C922 13 832 74 765 115ZM463 566H311V664H484V730H311V833H242V730H56V664H242V566H84V285H217C176 198 109 108 47 59C59 40 76 9 83 -12C140 39 198 124 242 212V-76H312V212C357 165 402 113 427 77L475 123C443 166 380 233 325 285H463ZM149 345V505H248V345ZM305 505H397V345H305ZM906 575H796C826 623 858 683 880 736L835 764L825 761H674L703 829L635 840C605 757 551 647 474 562C491 555 515 540 529 527V128H595V518H838V130H906ZM644 699H793C774 656 750 609 726 575H569C597 615 622 657 644 699Z" /><path id="g400-5173" d="M546 429V552H881V627H682C718 681 759 749 792 809L711 836C686 774 640 687 600 627H326L391 663C372 710 330 780 287 831L224 799C265 746 307 675 324 627H129V552H461V430C461 412 460 393 459 374H68V300H444C412 192 317 77 48 -13C68 -30 93 -62 102 -79C360 11 470 127 515 243C599 88 729 -21 907 -74C919 -51 942 -18 960 -1C777 44 640 152 565 300H935V374H544Z" /><path id="g400-7cfb" d="M361 197 286 224C233 152 150 79 70 30C89 19 121 -5 135 -19C211 34 301 117 361 197ZM695 229 636 190C719 126 822 34 872 -22L936 22C882 80 779 168 695 229ZM722 474 664 444C690 420 718 392 745 363L305 334C456 408 609 500 756 612L700 660C649 619 594 580 540 543L294 531C367 582 440 647 507 716C637 729 760 747 855 770L803 833C641 793 350 766 107 753C115 737 124 707 126 688C214 692 308 698 402 706C336 637 262 578 236 560C207 539 183 524 162 521C170 502 181 469 183 454C204 461 235 465 438 478C352 425 279 385 245 369C183 338 138 319 106 315C115 295 126 260 129 245C157 256 196 261 471 282V21C471 9 468 6 451 5C435 4 380 4 320 6C332 -15 345 -46 349 -68C422 -68 472 -67 505 -55C539 -43 547 -22 547 19V287L797 306C825 273 850 241 866 216L926 252C885 313 799 405 722 474Z" /><path id="g400-4e92" d="M704 548H353L382 710H921V783H85V710H302C275 543 231 322 196 191H653L629 29H53V-43H951V29H706C732 195 760 409 774 545L717 552ZM340 478H689L662 261H295C310 325 325 400 340 478Z" /><path id="g400-65a5" d="M245 427V450H560V274C485 299 411 322 345 340L306 281C384 258 474 228 560 197V-80H639V168C726 134 804 101 858 73L900 142C835 174 740 211 639 247V450H952V523H245V683C457 699 693 728 856 768L793 831C648 793 387 762 167 745V428C167 285 156 99 45 -31C61 -41 93 -68 105 -84C226 55 245 273 245 427Z" /><path id="g400-7ea6" d="M40 53 52 -20C154 2 293 29 427 56L422 122C281 95 135 68 40 53ZM549 457 498 415C571 350 655 258 691 196L747 243C709 306 624 394 549 457ZM68 184C91 196 127 204 413 251C410 266 409 295 410 315L173 280C256 369 338 479 407 590L345 628C324 591 301 553 276 517L140 505C204 590 267 699 316 807L245 836C199 716 120 589 97 556C73 522 55 500 36 495C45 476 57 440 61 424C76 432 100 437 231 452C184 388 142 337 123 317C91 281 66 256 44 252C53 233 64 199 68 184ZM638 825 566 840C534 704 478 568 409 481C426 471 458 450 472 439C502 480 530 530 555 586H849C838 193 824 43 794 9C783 -3 772 -7 753 -6C729 -6 672 -6 609 0C622 -21 632 -51 633 -72C689 -76 747 -77 780 -73C815 -70 837 -62 859 -33C897 15 909 166 922 618C922 628 923 656 923 656H584C604 710 623 767 638 825Z" /><path id="g400-675f" d="M859 554H537V663H927V734H537V839H460V734H76V663H460V554H145V266H420C327 160 178 64 40 17C57 1 80 -27 92 -46C222 6 361 100 460 209V-80H537V214C636 102 779 5 912 -48C924 -28 948 2 966 17C825 64 673 160 580 266H859ZM217 333V487H460V333ZM537 487H782V333H537Z" /><path id="g400-8de8" d="M146 556V732H315V556ZM712 648C735 602 767 555 803 514H544C583 554 618 598 648 648ZM720 810 653 827C641 787 626 749 607 714H427V648H567C517 579 454 523 381 482C394 466 413 431 420 416C462 442 501 472 536 506V452H804V513C841 470 883 433 924 407C935 425 958 451 974 465C903 501 830 573 784 648H950V714H683C697 744 710 776 720 810ZM390 351H286V491H381V797H83V491H220V88L148 69V396H88V54L39 42L57 -29C159 0 297 38 427 75L418 141L286 105V285H390ZM888 204H577L606 304H944V369H416V304H537C522 248 502 185 485 140H813C802 45 791 1 773 -13C762 -20 750 -21 728 -21C702 -21 630 -20 560 -14C574 -32 585 -59 587 -79C654 -83 718 -84 749 -82C787 -81 809 -75 829 -57C857 -31 872 31 885 173C887 183 888 204 888 204Z" /><path id="g400-6b65" d="M363 396 291 420C244 338 165 257 89 204C106 191 133 162 145 148C222 209 308 303 363 396ZM286 762H210V535H60V463H465V146H537C411 71 249 24 51 -3C67 -23 83 -53 90 -75C473 -16 728 118 859 378L788 411C733 301 652 215 544 150V463H937V535H551V663H846V733H551V840H472V535H286Z" /><path id="g400-9aa4" d="M604 254 545 274C506 233 442 193 383 166C397 156 420 133 429 122C488 155 559 205 604 254ZM27 158 43 95C110 113 189 135 269 157L263 215C175 192 89 171 27 158ZM911 252 863 293C825 261 764 218 712 188C702 199 694 211 687 223V320C758 328 825 339 880 352L823 401C730 378 561 359 416 349C424 335 432 312 434 298C494 301 557 306 620 312V134L566 150C523 95 447 44 374 10C388 0 411 -23 421 -35C491 2 570 59 620 122V-77H687V136C743 68 821 12 903 -19C912 -2 931 22 946 34C872 56 801 98 747 149C800 178 861 216 911 252ZM732 697 689 662C719 632 751 597 781 561C751 518 715 483 678 460L676 510L643 506V744H677V800H375V744H420V477L366 471L379 414L586 445V388H643V454L676 459L672 456C685 444 701 422 709 407C750 433 788 470 821 514C851 478 877 443 895 416L939 456C919 486 888 524 854 565C889 625 916 697 931 779L895 790L884 788L872 787H704V729H860C848 687 832 647 812 612C785 642 758 671 732 697ZM476 744H586V694H476ZM476 648H586V595H476ZM476 549H586V498L476 484ZM321 369H303C316 481 330 659 338 793H57V728H270C263 608 250 466 239 369H143C152 453 161 562 167 649L104 653C98 545 84 396 71 308H304C291 101 275 19 255 -3C247 -13 237 -15 224 -14C207 -14 171 -14 132 -10C143 -28 150 -54 151 -73C189 -75 228 -76 250 -73C277 -71 295 -64 311 -45C340 -13 356 82 372 338C372 348 373 369 373 369Z" /><path id="g400-672c" d="M539 839H460V629H65V553H367C294 383 170 221 37 140C55 125 80 98 92 79C237 178 365 357 443 553H460V183H226V107H460V-80H539V107H772V183H539V553H553C630 358 758 177 906 81C920 102 946 131 965 146C826 226 700 384 628 553H937V629H539Z" /><path id="g400-4f18" d="M711 53V453H638V53C638 -29 658 -53 737 -53C754 -53 837 -53 854 -53C927 -53 946 -11 953 140C933 145 902 158 886 171C883 39 878 16 848 16C829 16 761 16 746 16C716 16 711 23 711 53ZM751 814 699 778C748 731 807 665 833 624L889 666C860 707 800 770 751 814ZM596 828H521C521 753 520 677 517 603H291V531H513C497 305 446 99 275 -21C294 -34 318 -58 330 -76C514 57 570 284 588 531H950V603H592C595 678 596 753 596 828ZM165 -80H237V587C278 660 313 738 342 816L271 838C218 687 130 536 37 439C51 421 73 382 80 365C109 396 138 432 165 472Z" /><path id="g400-5316" d="M939 647 867 695C797 588 701 490 596 406V822H516V346C452 301 386 262 322 230C341 216 365 190 377 174C423 198 469 225 516 255V81C516 -31 546 -62 647 -62C668 -62 801 -62 824 -62C930 -62 951 4 962 191C939 197 907 212 887 228C880 57 873 13 820 13C791 13 678 13 654 13C606 13 596 23 596 79V310C725 403 847 519 939 647ZM387 817 313 840C252 687 149 538 42 442C58 425 83 386 92 369C131 407 170 452 207 502V-80H286V619C324 682 359 750 387 817Z" /></defs></svg>
